<svg width="24" height="24" viewBox="0 0 24 24" fill="none" xmlns="http://www.w3.org/2000/svg">
<path d="M4 4C4 2.89543 4.89543 2 6 2H14C14.2652 2 14.5196 2.10536 14.7071 2.29289L19.7071 7.29289C19.8946 7.48043 20 7.73478 20 8V20C20 21.1046 19.1046 22 18 22H6C4.89543 22 4 21.1046 4 20V4ZM17.5858 8L14 4.41421V8H17.5858ZM12 4L6 4V20H18V10H13C12.4477 10 12 9.55228 12 9V4Z" fill="currentColor"/>
<path d="M15.5625 11.2C15.5625 11.0895 15.473 11 15.3625 11H12.2625C12.152 11 12.0625 11.0895 12.0625 11.2V14.0197C12.0625 14.1798 11.8803 14.2791 11.7329 14.2166C11.5219 14.1273 11.296 14.0751 11.0652 14.0634C10.7089 14.0454 10.3543 14.1248 10.0396 14.2929C9.72489 14.4611 9.46187 14.7117 9.27873 15.0179C9.0956 15.3241 8.99924 15.6744 9 16.0312C9 17.1163 9.88375 18 10.9688 18C12.0538 18 12.9375 17.1163 12.9375 16.0312V12.95C12.9375 12.8395 13.027 12.75 13.1375 12.75H15.3625C15.473 12.75 15.5625 12.6605 15.5625 12.55V11.2Z" fill="currentColor"/>
</svg>
