<svg width="24" height="24" viewBox="0 0 24 24" fill="none" xmlns="http://www.w3.org/2000/svg">
<path d="M21 21.75H9C8.625 21.75 8.25 21.375 8.25 21V17.25H9.75V20.25H20.25V9.75004H17.25V8.25004L21 8.24951C21.375 8.24951 21.75 8.62451 21.75 8.99973V21C21.75 21.375 21.375 21.75 21 21.75Z" fill="currentColor"/>
<path d="M8.25 14.25H15.75V15.75H8.25V14.25ZM8.25 11.25H15.75V12.75H8.25V11.25ZM8.25 8.25H15.75V9.75H8.25V8.25Z" fill="currentColor"/>
<path d="M3 2.25L15 2.25C15.375 2.25 15.75 2.625 15.75 2.99969V6.75002H14.25V3.75002H3.75V14.25H6.75V15.75H3C2.625 15.75 2.25 15.375 2.25 15V2.99971C2.25 2.625 2.625 2.24998 3 2.25Z" fill="currentColor"/>
</svg>
