<svg width="25" height="25" viewBox="0 0 25 25" fill="none" xmlns="http://www.w3.org/2000/svg">
<path d="M22.2653 18.2981L20.6221 16.6549V8.03991H12.3357L10.4577 6.16197H10.1291L8.25117 4.28404H11.2324L13.1103 6.16197H20.6221C21.1385 6.16197 21.5807 6.34601 21.9488 6.71408C22.3169 7.08216 22.5006 7.5241 22.5 8.03991V17.4296C22.5 17.6017 22.4803 17.7582 22.4408 17.8991C22.4014 18.0399 22.3429 18.1729 22.2653 18.2981ZM21.0681 22.4061L17.9695 19.3075H5.59859C5.08216 19.3075 4.63991 19.1235 4.27183 18.7554C3.90376 18.3873 3.72003 17.9454 3.72066 17.4296V6.16197C3.72066 5.64554 3.90469 5.20329 4.27277 4.83521C4.64084 4.46714 5.08279 4.28341 5.59859 4.28404L7.47653 6.16197H5.59859V17.4296H16.0915L2.5 3.81455L3.81455 2.5L22.4061 21.0915L21.0681 22.4061Z" fill="#666666"/>
</svg>
