<svg width="24" height="24" viewBox="0 0 24 24" fill="none" xmlns="http://www.w3.org/2000/svg">
<g clip-path="url(#clip0_1733_58323)">
<path fill-rule="evenodd" clip-rule="evenodd" d="M12.0004 0.400397C9.24436 0.398305 6.57758 1.37759 4.47784 3.16281C2.37809 4.94803 0.982576 7.42254 0.541287 10.1431C0.0999971 12.8636 0.641768 15.6523 2.06954 18.0097C3.49732 20.3672 5.71781 22.1392 8.33323 23.0084C8.91403 23.114 9.12523 22.7556 9.12523 22.4484C9.12523 22.1732 9.11563 21.4436 9.10923 20.4756C5.88363 21.1764 5.20203 18.9204 5.20203 18.9204C4.67403 17.5796 3.91403 17.2244 3.91403 17.2244C2.86123 16.5044 3.99403 16.5188 3.99403 16.5188C5.15883 16.6004 5.77003 17.714 5.77003 17.714C6.80523 19.4868 8.48523 18.9748 9.14603 18.6772C9.25163 17.9284 9.55243 17.4164 9.88203 17.1268C7.30603 16.834 4.59883 15.8388 4.59883 11.394C4.58208 10.2415 5.01015 9.12696 5.79403 8.282C5.67403 7.9876 5.27563 6.81 5.90603 5.21C5.90603 5.21 6.88203 4.8996 9.09643 6.4004C10.043 6.14298 11.0195 6.01171 12.0004 6.01C12.9814 6.01184 13.9578 6.14311 14.9044 6.4004C17.1188 4.8996 18.0916 5.2116 18.0916 5.2116C18.7252 6.8084 18.3268 7.9876 18.2068 8.282C18.9508 9.0932 19.3988 10.1268 19.3988 11.394C19.3988 15.85 16.6868 16.8308 14.1028 17.1172C14.5188 17.4756 14.89 18.1844 14.89 19.266C14.89 20.818 14.8756 22.0676 14.8756 22.4484C14.8756 22.7588 15.0852 23.1204 15.674 23.0068C18.2889 22.1365 20.5085 20.3636 21.9353 18.0058C23.3621 15.648 23.9027 12.8592 23.4605 10.139C23.0183 7.41878 21.622 4.94488 19.5218 3.16043C17.4216 1.37598 14.7563 0.397546 12.0004 0.400397Z" fill="currentColor"/>
</g>
<defs>
<clipPath id="clip0_1733_58323">
<rect width="24" height="24" fill="white"/>
</clipPath>
</defs>
</svg>
