<svg width="24" height="24" viewBox="0 0 24 24" fill="none" xmlns="http://www.w3.org/2000/svg">
<path d="M13.3333 7.33333C12.9651 7.33333 12.6667 7.03486 12.6667 6.66667C12.6667 6.29848 12.9651 6 13.3333 6H17.3333C17.5101 6 17.6797 6.07024 17.8047 6.19526C17.9298 6.32029 18 6.48986 18 6.66667L18 10.6667C18 11.0349 17.7015 11.3333 17.3333 11.3333C16.9651 11.3333 16.6667 11.0349 16.6667 10.6667L16.6667 8.27614L10.4714 14.4714C10.2111 14.7318 9.78894 14.7318 9.5286 14.4714C9.26825 14.2111 9.26825 13.7889 9.5286 13.5286L15.7239 7.33333H13.3333ZM6 8.66667C6 7.93029 6.59695 7.33333 7.33333 7.33333H10.6667C11.0349 7.33333 11.3333 7.63181 11.3333 8C11.3333 8.36819 11.0349 8.66667 10.6667 8.66667H7.33333V16.6667H15.3333V13.3333C15.3333 12.9651 15.6318 12.6667 16 12.6667C16.3682 12.6667 16.6667 12.9651 16.6667 13.3333V16.6667C16.6667 17.403 16.0697 18 15.3333 18H7.33333C6.59695 18 6 17.403 6 16.6667V8.66667Z" fill="currentColor"/>
<rect x="2.5" y="2.5" width="19" height="19" rx="9.5" stroke="currentColor"/>
</svg>
