<svg width="24" height="24" viewBox="0 0 24 24" fill="none" xmlns="http://www.w3.org/2000/svg">
<path d="M14.2222 4.22222C13.6086 4.22222 13.1111 3.72476 13.1111 3.11111C13.1111 2.49746 13.6086 2 14.2222 2H20.8889C21.1836 2 21.4662 2.11706 21.6746 2.32544C21.8829 2.53381 22 2.81643 22 3.11111L22 9.77778C22 10.3914 21.5025 10.8889 20.8889 10.8889C20.2752 10.8889 19.7778 10.3914 19.7778 9.77778L19.7778 5.79357L9.45234 16.119C9.01843 16.5529 8.31491 16.5529 7.88099 16.119C7.44708 15.6851 7.44708 14.9816 7.88099 14.5477L18.2064 4.22222H14.2222ZM2 6.44444C2 5.21715 2.99492 4.22222 4.22222 4.22222H9.77778C10.3914 4.22222 10.8889 4.71968 10.8889 5.33333C10.8889 5.94698 10.3914 6.44444 9.77778 6.44444H4.22222V19.7778H17.5556V14.2222C17.5556 13.6086 18.053 13.1111 18.6667 13.1111C19.2803 13.1111 19.7778 13.6086 19.7778 14.2222V19.7778C19.7778 21.0051 18.7829 22 17.5556 22H4.22222C2.99492 22 2 21.0051 2 19.7778V6.44444Z" fill="currentColor"/>
</svg>
