<svg width="24" height="24" viewBox="0 0 24 24" fill="none" xmlns="http://www.w3.org/2000/svg">
<path d="M12 21C16.9706 21 21 16.9706 21 12C21 7.02944 16.9706 3 12 3C7.02944 3 3 7.02944 3 12C3 16.9706 7.02944 21 12 21Z" stroke="currentColor" stroke-linecap="round" stroke-linejoin="round"/>
<path d="M12 21C16.9706 21 21 16.9706 21 12C21 7.02944 16.9706 3 12 3C7.02944 3 3 7.02944 3 12C3 16.9706 7.02944 21 12 21Z" stroke="currentColor" stroke-opacity="0.2" stroke-linecap="round" stroke-linejoin="round"/>
<path d="M10 16H14" stroke="currentColor" stroke-linecap="round"/>
<path d="M10 16H14" stroke="currentColor" stroke-opacity="0.2" stroke-linecap="round"/>
<path d="M14 10.5C14.463 10.688 14.97 10.79 15.5 10.79C16.03 10.79 16.537 10.688 17 10.5M7 10.5C7.463 10.688 7.97 10.79 8.5 10.79C9.03 10.79 9.537 10.688 10 10.5" stroke="currentColor" stroke-linecap="round" stroke-linejoin="round"/>
<path d="M14 10.5C14.463 10.688 14.97 10.79 15.5 10.79C16.03 10.79 16.537 10.688 17 10.5M7 10.5C7.463 10.688 7.97 10.79 8.5 10.79C9.03 10.79 9.537 10.688 10 10.5" stroke="currentColor" stroke-opacity="0.2" stroke-linecap="round" stroke-linejoin="round"/>
</svg>
