<svg width="24" height="24" viewBox="0 0 24 24" fill="none" xmlns="http://www.w3.org/2000/svg">
<path d="M12 21C16.9706 21 21 16.9706 21 12C21 7.02944 16.9706 3 12 3C7.02944 3 3 7.02944 3 12C3 16.9706 7.02944 21 12 21Z" stroke="currentColor" stroke-linecap="round" stroke-linejoin="round"/>
<path d="M12 21C16.9706 21 21 16.9706 21 12C21 7.02944 16.9706 3 12 3C7.02944 3 3 7.02944 3 12C3 16.9706 7.02944 21 12 21Z" stroke="currentColor" stroke-opacity="0.2" stroke-linecap="round" stroke-linejoin="round"/>
<path d="M9.01 9.5V9.51H9V9.5H9.01ZM15.01 9.5V9.51H15V9.5H15.01Z" stroke="currentColor" stroke-width="1.5" stroke-linejoin="round"/>
<path d="M9.01 9.5V9.51H9V9.5H9.01ZM15.01 9.5V9.51H15V9.5H15.01Z" stroke="currentColor" stroke-opacity="0.2" stroke-width="1.5" stroke-linejoin="round"/>
<path d="M9 15H15" stroke="currentColor" stroke-linecap="round"/>
<path d="M9 15H15" stroke="currentColor" stroke-opacity="0.2" stroke-linecap="round"/>
</svg>
