<svg width="24" height="24" viewBox="0 0 24 24" fill="none" xmlns="http://www.w3.org/2000/svg">
<path d="M12 21C16.9706 21 21 16.9706 21 12C21 7.02944 16.9706 3 12 3C7.02944 3 3 7.02944 3 12C3 16.9706 7.02944 21 12 21Z" stroke="currentColor" stroke-linecap="round" stroke-linejoin="round"/>
<path d="M12 21C16.9706 21 21 16.9706 21 12C21 7.02944 16.9706 3 12 3C7.02944 3 3 7.02944 3 12C3 16.9706 7.02944 21 12 21Z" stroke="currentColor" stroke-opacity="0.2" stroke-linecap="round" stroke-linejoin="round"/>
<path d="M9.01 9.5V9.51H9V9.5H9.01Z" stroke="currentColor" stroke-width="1.5" stroke-linejoin="round"/>
<path d="M9.01 9.5V9.51H9V9.5H9.01Z" stroke="currentColor" stroke-opacity="0.2" stroke-width="1.5" stroke-linejoin="round"/>
<path d="M15.4652 14C15.1142 14.6083 14.6091 15.1135 14.0008 15.4646C13.3925 15.8157 12.7025 16.0004 12.0002 16C11.2978 16.0004 10.6078 15.8157 9.99949 15.4646C9.39121 15.1135 8.88615 14.6083 8.53516 14M16.5002 9.5H13.5002" stroke="currentColor" stroke-linecap="round" stroke-linejoin="round"/>
<path d="M15.4652 14C15.1142 14.6083 14.6091 15.1135 14.0008 15.4646C13.3925 15.8157 12.7025 16.0004 12.0002 16C11.2978 16.0004 10.6078 15.8157 9.99949 15.4646C9.39121 15.1135 8.88615 14.6083 8.53516 14M16.5002 9.5H13.5002" stroke="currentColor" stroke-opacity="0.2" stroke-linecap="round" stroke-linejoin="round"/>
</svg>
