<svg width="85" height="16" viewBox="0 0 85 16" fill="none" xmlns="http://www.w3.org/2000/svg">
<g clip-path="url(#clip0_2218_256452)">
<path d="M21.5229 8.76388L21.5257 8.76374C21.6987 8.75496 22.0923 8.77815 22.4502 8.85204C22.6291 8.88897 22.7703 8.93294 22.8611 8.97672C22.8656 8.9789 22.8699 8.98101 22.8738 8.98302C22.8775 9.20957 22.6724 9.4659 22.358 9.46008L10.8493 9.24697L21.5229 8.76388ZM22.9235 9.01342C22.9233 9.01348 22.9211 9.01189 22.9176 9.00848C22.922 9.01166 22.9238 9.01337 22.9235 9.01342ZM5.1741 8.5028L5.17136 8.50294C4.73617 8.52503 4.35538 8.88459 4.3627 9.35206C4.36979 9.80493 4.73893 10.134 5.16214 10.1418L22.3395 10.4599C23.2778 10.4773 24.0731 9.60786 23.8331 8.6589C23.7491 8.32714 23.4621 8.15632 23.2955 8.07601C23.0991 7.98127 22.8675 7.91712 22.6524 7.8727C22.2231 7.78406 21.7452 7.75156 21.4767 7.76494C21.4761 7.76497 21.4755 7.765 21.475 7.76503L5.1741 8.5028ZM83.1625 7.98706C83.0904 10.5922 80.7421 12.7679 77.9879 12.706L5.7085 11.0807C4.82322 11.0608 4.18783 10.39 4.21017 9.58403C4.23339 8.7459 4.95774 8.0009 5.87878 7.94556L78.3774 3.58944C81.0924 3.4263 83.2331 5.43958 83.1625 7.98706Z" fill="#B361F3" stroke="black"/>
<circle cx="77" cy="8" r="7.5" fill="black" stroke="#FFFFEC"/>
</g>
<defs>
<clipPath id="clip0_2218_256452">
<rect width="85" height="16" fill="white"/>
</clipPath>
</defs>
</svg>
