<svg width="24" height="24" viewBox="0 0 24 24" fill="none" xmlns="http://www.w3.org/2000/svg">
<path d="M12 22C10.6167 22 9.31667 21.7373 8.1 21.212C6.88333 20.6867 5.825 19.9743 4.925 19.075C4.025 18.175 3.31267 17.1167 2.788 15.9C2.26333 14.6833 2.00067 13.3833 2 12C2 10.6167 2.26267 9.31667 2.788 8.1C3.31333 6.88333 4.02567 5.825 4.925 4.925C5.825 4.025 6.88333 3.31267 8.1 2.788C9.31667 2.26333 10.6167 2.00067 12 2C13.3833 2 14.6833 2.26267 15.9 2.788C17.1167 3.31333 18.175 4.02567 19.075 4.925C19.975 5.825 20.6877 6.88333 21.213 8.1C21.7383 9.31667 22.0007 10.6167 22 12C22 13.3833 21.7373 14.6833 21.212 15.9C20.6867 17.1167 19.9743 18.175 19.075 19.075C18.175 19.975 17.1167 20.6877 15.9 21.213C14.6833 21.7383 13.3833 22.0007 12 22ZM11 19.95V18C10.45 18 9.979 17.804 9.587 17.412C9.195 17.02 8.99933 16.5493 9 16V15L4.2 10.2C4.15 10.5 4.104 10.8 4.062 11.1C4.02 11.4 3.99933 11.7 4 12C4 14.0167 4.66267 15.7833 5.988 17.3C7.31333 18.8167 8.984 19.7 11 19.95ZM17.9 17.4C18.2333 17.0333 18.5333 16.6373 18.8 16.212C19.0667 15.7867 19.2873 15.345 19.462 14.887C19.6373 14.429 19.7707 13.9583 19.862 13.475C19.9533 12.9917 19.9993 12.5 20 12C20 10.3667 19.5457 8.875 18.637 7.525C17.7283 6.175 15.516 4.6 14 4V5C14 5.55 14 6 14 6.5C14 7 12.5493 7.00067 12 7H11V8C11 8 10.2827 8.00067 10 8H7V12H12C12.2833 12 13 12 14 13C15 14 15.0007 14.7173 15 15V16H16C16.4333 16 16.825 16.1293 17.175 16.388C17.525 16.6467 17.7667 16.984 17.9 17.4Z" fill="currentColor"/>
</svg>
