<svg width="24" height="25" viewBox="0 0 24 25" fill="none" xmlns="http://www.w3.org/2000/svg">
<path d="M14.736 19.4579C12.0232 16.7481 12 12.1804 12 12.1804C12 12.1804 16.3752 12.0061 19.088 14.7159C21.8008 17.4257 21.824 21.9935 21.824 21.9935C21.824 21.9935 17.4488 22.1678 14.736 19.4579Z" fill="black"/>
<path d="M9.26399 19.4579C11.9768 16.7481 12 12.1804 12 12.1804C12 12.1804 7.62483 12.0061 4.91201 14.7159C2.19918 17.4257 2.17599 21.9935 2.17599 21.9935C2.17599 21.9935 6.55116 22.1678 9.26399 19.4579Z" fill="black"/>
<path d="M14.736 4.90656C12.0232 7.61638 12 12.1841 12 12.1841C12 12.1841 16.3752 12.3584 19.088 9.6486C21.8008 6.93878 21.824 2.37102 21.824 2.37102C21.824 2.37102 17.4488 2.19674 14.736 4.90656Z" fill="black"/>
<path d="M9.26399 4.90656C11.9768 7.61638 12 12.1841 12 12.1841C12 12.1841 7.62483 12.3584 4.91201 9.6486C2.19918 6.93878 2.17599 2.37102 2.17599 2.37102C2.17599 2.37102 6.55116 2.19674 9.26399 4.90656Z" fill="black"/>
</svg>
