<svg width="22" height="24" viewBox="0 0 22 24" fill="none" xmlns="http://www.w3.org/2000/svg">
<path d="M8.71774 1.5C8.71774 0.670312 9.38805 0 10.2177 0H11.7177C12.5474 0 13.2177 0.670312 13.2177 1.5V8.10469L18.9365 4.80469C19.6537 4.39219 20.5724 4.63594 20.9849 5.35312L21.7349 6.65156C22.1474 7.36875 21.9037 8.2875 21.1865 8.7L15.4677 12L21.1865 15.3C21.9037 15.7125 22.1474 16.6313 21.7349 17.3484L20.9849 18.6469C20.5724 19.3641 19.6537 19.6125 18.9365 19.1953L13.2177 15.8953V22.5C13.2177 23.3297 12.5474 24 11.7177 24H10.2177C9.38805 24 8.71774 23.3297 8.71774 22.5V15.8953L2.99899 19.2C2.2818 19.6125 1.36305 19.3687 0.950549 18.6516L0.200548 17.3531C-0.211952 16.6359 0.0317985 15.7172 0.748986 15.3047L6.46774 12L0.748986 8.7C0.0317985 8.2875 -0.211952 7.36875 0.200548 6.65156L0.950549 5.35312C1.36305 4.63125 2.2818 4.3875 2.99899 4.8L8.71774 8.1V1.5Z" fill="black"/>
</svg>
