<svg width="24" height="26" viewBox="0 0 24 26" fill="none" xmlns="http://www.w3.org/2000/svg">
<path fill-rule="evenodd" clip-rule="evenodd" d="M18.0627 16.2179C18.5234 17.0775 18.7828 18.0486 18.7828 19.0766C18.7828 22.5939 15.7461 25.4452 12 25.4452V19.7114C11.4882 20.5445 10.7779 21.2592 9.88709 21.7774C6.8467 23.5458 2.85514 22.3543 0.971693 19.1162L5.95584 16.2172C4.97569 16.1918 3.99856 15.934 3.1019 15.4202C0.0501995 13.6713 -0.913763 9.6188 0.948828 6.36862L5.93727 9.22735C5.47657 8.3677 5.21717 7.3966 5.21717 6.36861C5.21717 2.85132 8.25395 -1.90735e-06 12 -1.90735e-06L12 5.73386C12.5118 4.90075 13.2221 4.186 14.1129 3.66786C17.1533 1.89943 21.1449 3.09087 23.0283 6.32901L18.0442 9.22801C19.0243 9.25341 20.0014 9.51121 20.8981 10.0251C23.9498 11.7739 24.9138 15.8264 23.0512 19.0766L18.0627 16.2179ZM11.9964 12.7372C11.9976 12.7393 11.9988 12.7413 12 12.7434L12 12.7372C11.9988 12.7372 11.9976 12.7372 11.9964 12.7372ZM12 12.708V12.7018L12.0036 12.708L12 12.708Z" fill="black"/>
</svg>
