<svg width="24" height="24" viewBox="0 0 24 24" fill="none" xmlns="http://www.w3.org/2000/svg">
<path d="M15.211 10.6698C20.2793 10.8313 24 11.3656 24 11.9999C24 12.6341 20.2793 13.1685 15.211 13.3299C18.6806 17.0279 20.9338 20.0367 20.4853 20.4852C20.0368 20.9336 17.028 18.6805 13.33 15.2109C13.1686 20.2792 12.6343 23.9999 12 23.9999C11.3657 23.9999 10.8314 20.2792 10.67 15.2109C6.97197 18.6805 3.9632 20.9336 3.51472 20.4852C3.06623 20.0367 5.31935 17.0279 8.78899 13.3299C3.72071 13.1684 0 12.6341 0 11.9999C0 11.3656 3.72071 10.8313 8.78899 10.6698C5.31935 6.97185 3.06623 3.96308 3.51471 3.5146C3.9632 3.06611 6.97196 5.31924 10.67 8.78888C10.8314 3.7206 11.3657 -0.00012207 12 -0.00012207C12.6343 -0.00012207 13.1686 3.72059 13.33 8.78887C17.028 5.31923 20.0368 3.06611 20.4853 3.51459C20.9338 3.96308 18.6806 6.97184 15.211 10.6698Z" fill="black"/>
</svg>
