<svg width="24" height="24" viewBox="0 0 24 24" fill="none" xmlns="http://www.w3.org/2000/svg">
<path d="M4.34374 4.29314C4.34374 3.18857 5.23917 2.29314 6.34374 2.29314H14.3437C14.609 2.29314 14.8633 2.39849 15.0508 2.58603L20.0508 7.58603C20.2384 7.77357 20.3437 8.02792 20.3437 8.29314V20.2931C20.3437 21.3977 19.4483 22.2931 18.3437 22.2931H6.34374C5.23917 22.2931 4.34374 21.3977 4.34374 20.2931V4.29314ZM17.9295 8.29314L14.3437 4.70735V8.29314H17.9295ZM12.3437 4.29314L6.34374 4.29314V20.2931H18.3437V10.2931H13.3437C12.7915 10.2931 12.3437 9.84542 12.3437 9.29314V4.29314ZM10 14.0002V11.8708C10 11.4849 10.4186 11.2444 10.7519 11.4389L15.2016 14.0345C15.5448 14.2347 15.5286 14.7359 15.1733 14.9136L10.7236 17.1384C10.3912 17.3047 10 17.0634 10 16.6917C10 15.7765 10 14.3652 10 14.0002Z" fill="currentColor"/>
</svg>
