<svg width="24" height="24" viewBox="0 0 24 24" fill="none" xmlns="http://www.w3.org/2000/svg">
<rect x="0.5" y="0.5" width="23" height="23" rx="11.5" fill="#FF1F1F"/>
<rect x="0.5" y="0.5" width="23" height="23" rx="11.5" fill="black" fill-opacity="0.2"/>
<path d="M12 13.6667C11.5398 13.6667 11.1667 13.2936 11.1667 12.8333L11.1667 7.83333C11.1667 7.3731 11.5398 7 12 7C12.4602 7 12.8333 7.3731 12.8333 7.83333L12.8333 12.8333C12.8333 13.2936 12.4602 13.6667 12 13.6667Z" fill="black"/>
<path d="M10.75 15.75C10.75 15.0596 11.3096 14.5 12 14.5C12.6904 14.5 13.25 15.0596 13.25 15.75C13.25 16.4404 12.6904 17 12 17C11.3096 17 10.75 16.4404 10.75 15.75Z" fill="black"/>
<rect x="0.5" y="0.5" width="23" height="23" rx="11.5" stroke="black"/>
</svg>
