<svg width="25" height="24" viewBox="0 0 25 24" fill="none" xmlns="http://www.w3.org/2000/svg">
<g clip-path="url(#clip0_1153_216979)">
<path fill-rule="evenodd" clip-rule="evenodd" d="M12.5004 0.399909C9.74436 0.397817 7.07758 1.3771 4.97784 3.16232C2.87809 4.94754 1.48258 7.42205 1.04129 10.1426C0.599997 12.8631 1.14177 15.6518 2.56954 18.0093C3.99732 20.3667 6.21781 22.1387 8.83323 23.0079C9.41403 23.1135 9.62523 22.7551 9.62523 22.4479C9.62523 22.1727 9.61563 21.4431 9.60923 20.4751C6.38363 21.1759 5.70203 18.9199 5.70203 18.9199C5.17403 17.5791 4.41403 17.2239 4.41403 17.2239C3.36123 16.5039 4.49403 16.5183 4.49403 16.5183C5.65883 16.5999 6.27003 17.7135 6.27003 17.7135C7.30523 19.4863 8.98523 18.9743 9.64603 18.6767C9.75163 17.9279 10.0524 17.4159 10.382 17.1263C7.80603 16.8335 5.09883 15.8383 5.09883 11.3935C5.08208 10.2411 5.51015 9.12647 6.29403 8.28151C6.17403 7.98711 5.77563 6.80951 6.40603 5.20951C6.40603 5.20951 7.38203 4.89911 9.59643 6.39991C10.543 6.14249 11.5195 6.01122 12.5004 6.00951C13.4814 6.01135 14.4578 6.14262 15.4044 6.39991C17.6188 4.89911 18.5916 5.21111 18.5916 5.21111C19.2252 6.80791 18.8268 7.98711 18.7068 8.28151C19.4508 9.09271 19.8988 10.1263 19.8988 11.3935C19.8988 15.8495 17.1868 16.8303 14.6028 17.1167C15.0188 17.4751 15.39 18.1839 15.39 19.2655C15.39 20.8175 15.3756 22.0671 15.3756 22.4479C15.3756 22.7583 15.5852 23.1199 16.174 23.0063C18.7889 22.136 21.0085 20.3632 22.4353 18.0053C23.8621 15.6475 24.4027 12.8587 23.9605 10.1385C23.5183 7.41829 22.122 4.9444 20.0218 3.15994C17.9216 1.37549 15.2563 0.397057 12.5004 0.399909Z" fill="black"/>
</g>
<defs>
<clipPath id="clip0_1153_216979">
<rect width="24" height="24" fill="white" transform="translate(0.5)"/>
</clipPath>
</defs>
</svg>
