<svg width="25" height="24" viewBox="0 0 25 24" fill="none" xmlns="http://www.w3.org/2000/svg">
<path d="M24.5 12C24.5 15.1826 23.2357 18.2348 20.9853 20.4853C18.7348 22.7357 15.6826 24 12.5 24C9.3174 24 6.26516 22.7357 4.01472 20.4853C1.76428 18.2348 0.5 15.1826 0.5 12C0.5 8.8174 1.76428 5.76516 4.01472 3.51472C6.26516 1.26428 9.3174 0 12.5 0C15.6826 0 18.7348 1.26428 20.9853 3.51472C23.2357 5.76516 24.5 8.8174 24.5 12ZM12.9305 8.859C11.7635 9.345 9.4295 10.35 5.9315 11.874C5.3645 12.099 5.066 12.321 5.039 12.537C4.994 12.9015 5.4515 13.0455 6.074 13.242L6.3365 13.3245C6.9485 13.524 7.7735 13.7565 8.201 13.7655C8.591 13.7745 9.0245 13.6155 9.503 13.2855C12.7715 11.079 14.459 9.9645 14.564 9.9405C14.639 9.9225 14.744 9.9015 14.813 9.9645C14.8835 10.026 14.876 10.1445 14.8685 10.176C14.8235 10.3695 13.028 12.0375 12.0995 12.9015C11.81 13.1715 11.6045 13.362 11.5625 13.4055C11.47 13.5 11.376 13.593 11.2805 13.6845C10.7105 14.2335 10.2845 14.6445 11.303 15.3165C11.7935 15.6405 12.1865 15.906 12.578 16.173C13.004 16.464 13.43 16.7535 13.982 17.1165C14.1215 17.2065 14.2565 17.304 14.387 17.397C14.8835 17.751 15.332 18.069 15.8825 18.018C16.2035 17.988 16.535 17.688 16.703 16.788C17.1005 14.6625 17.882 10.059 18.062 8.1615C18.073 8.00376 18.0664 7.84529 18.0425 7.689C18.0284 7.56288 17.9673 7.44669 17.8715 7.3635C17.735 7.26928 17.5723 7.22047 17.4065 7.224C16.9565 7.2315 16.262 7.473 12.9305 8.859Z" fill="black"/>
</svg>
