<svg width="1226" height="262" viewBox="0 0 1226 262" fill="none" xmlns="http://www.w3.org/2000/svg">
<path d="M0 29.5002C23.4713 29.4466 41.4903 43.3885 48.8962 58.5385C56.1615 73.4006 54.5346 89.4304 54.5843 110.081C54.5843 110.081 54.5285 150.119 54.5843 173.343C54.6029 181.04 56.3386 201.516 66.3695 214.46C76.6258 227.694 87.4155 235.813 105.31 235.997C123.545 236.184 135.293 228.377 146.715 213.481C156.632 200.547 157.228 183.67 157.199 171.874C157.143 148.65 155.733 109.613 155.733 109.613C155.673 84.8929 159.726 60.4965 168.713 48.7488C177.699 37.0012 190.054 28.2206 207.154 28.1904C223.898 28.1609 237.411 36.5856 245.096 47.7698C257.576 62.7192 259.09 85.3911 259.148 109.613C259.249 151.314 257.992 180.196 258.99 190.475C259.988 200.754 266.814 210.044 276.048 218.865C287.031 229.357 295.204 234.49 309.996 235.507C323.004 236.402 333.587 228.587 342.946 220.823C351.118 214.043 360.445 200.322 360.419 189.496L361.43 117.028C361.383 97.6025 358.592 83.9849 363.914 67.1246C370.016 47.7902 386.504 29.0015 411.341 28.9448C429.011 28.9044 444.267 40.7603 452.278 50.4821C465.347 66.3417 462.656 86.2797 462.718 112.133C462.818 153.834 462.762 184.354 462.762 184.354C462.818 207.578 490.16 235.138 515.681 234.281C540.135 233.461 564.639 202.954 565.105 181.906C565.572 160.859 564.586 140.052 564.49 99.8958C564.393 59.7398 574.38 26.9286 616 26.0002C639.471 25.9466 654 37.0003 660.5 53.0003C666.365 67.4376 666.035 89.4305 666.084 110.081C666.084 110.081 666.028 150.119 666.084 173.343C666.103 181.04 667.839 201.516 677.87 214.46C688.126 227.694 698.916 235.813 716.81 235.997C735.045 236.184 746.793 228.377 758.215 213.481C768.132 200.547 768.728 183.67 768.699 171.874C768.643 148.65 767.233 109.613 767.233 109.613C767.173 84.893 771.226 60.4965 780.213 48.7489C789.199 37.0013 801.554 28.2207 818.654 28.1905C835.398 28.161 848.911 36.5857 856.596 47.7699C869.076 62.7193 870.59 85.3912 870.648 109.613C870.749 151.314 869.492 180.196 870.49 190.475C871.488 200.754 878.314 210.044 887.548 218.865C898.531 229.357 906.704 234.49 921.496 235.508C934.504 236.402 945.087 228.587 954.446 220.823C962.618 214.043 971.945 200.322 971.919 189.496L972.93 117.028C972.883 97.6026 970.092 83.985 975.414 67.1247C981.516 47.7903 998.004 29.0016 1022.84 28.9448C1040.51 28.9045 1055.77 40.7604 1063.78 50.4822C1076.85 66.3418 1074.16 86.2798 1074.22 112.133C1074.32 153.834 1074.26 184.354 1074.26 184.354C1074.32 207.578 1101.66 235.138 1127.18 234.281C1151.63 233.461 1176.14 202.954 1176.61 181.907C1177.07 160.859 1176.09 140.052 1175.99 99.8959C1175.89 59.7399 1183.38 26.9287 1225 26.0003" stroke="black"/>
</svg>
