<svg width="1226" height="262" viewBox="0 0 1226 262" fill="none" xmlns="http://www.w3.org/2000/svg">
<path d="M0 232.5C23.4713 232.553 41.4903 218.611 48.8962 203.461C56.1615 188.599 54.5346 172.57 54.5843 151.919C54.5843 151.919 54.5285 111.881 54.5843 88.6572C54.6029 80.9597 56.3386 60.4843 66.3695 47.5404C76.6258 34.3056 87.4155 26.187 105.31 26.0031C123.545 25.8157 135.293 33.6231 146.715 48.5195C156.632 61.4529 157.228 78.3301 157.199 90.1257C157.143 113.35 155.733 152.387 155.733 152.387C155.673 177.107 159.726 201.504 168.713 213.251C177.699 224.999 190.054 233.779 207.154 233.81C223.898 233.839 237.411 225.414 245.096 214.23C257.576 199.281 259.09 176.609 259.148 152.387C259.249 110.686 257.992 81.8044 258.99 71.5252C259.988 61.246 266.814 51.9565 276.048 43.1351C287.031 32.6427 295.204 27.5101 309.996 26.4926C323.004 25.5978 333.587 33.4127 342.946 41.1771C351.118 47.957 360.445 61.6781 360.419 72.5042L361.43 144.972C361.383 164.397 358.592 178.015 363.914 194.875C370.016 214.21 386.504 232.998 411.341 233.055C429.011 233.096 444.267 221.24 452.278 211.518C465.347 195.658 462.656 175.72 462.718 149.867C462.818 108.166 462.762 77.6462 462.762 77.6462C462.818 54.4219 490.16 26.8623 515.681 27.7187C540.135 28.5393 564.639 59.0457 565.105 80.0936C565.572 101.141 564.586 121.948 564.49 162.104C564.393 202.26 574.38 235.071 616 236C639.471 236.053 654 225 660.5 209C666.365 194.562 666.035 172.569 666.084 151.919C666.084 151.919 666.028 111.881 666.084 88.6571C666.103 80.9596 667.839 60.4842 677.87 47.5403C688.126 34.3055 698.916 26.1869 716.81 26.003C735.045 25.8156 746.793 33.623 758.215 48.5193C768.132 61.4527 768.728 78.33 768.699 90.1256C768.643 113.35 767.233 152.387 767.233 152.387C767.173 177.107 771.226 201.503 780.213 213.251C789.199 224.999 801.554 233.779 818.654 233.809C835.398 233.839 848.911 225.414 856.596 214.23C869.076 199.281 870.59 176.609 870.648 152.387C870.749 110.686 869.492 81.8043 870.49 71.5251C871.488 61.2459 878.314 51.9563 887.548 43.135C898.531 32.6426 906.704 27.51 921.496 26.4925C934.504 25.5977 945.087 33.4126 954.446 41.177C962.618 47.9569 971.945 61.678 971.919 72.5041L972.93 144.972C972.883 164.397 970.092 178.015 975.414 194.875C981.516 214.21 998.004 232.998 1022.84 233.055C1040.51 233.096 1055.77 221.24 1063.78 211.518C1076.85 195.658 1074.16 175.72 1074.22 149.867C1074.32 108.166 1074.26 77.6461 1074.26 77.6461C1074.32 54.4218 1101.66 26.8622 1127.18 27.7186C1151.63 28.5392 1176.14 59.0456 1176.61 80.0935C1177.07 101.141 1176.09 121.948 1175.99 162.104C1175.89 202.26 1183.38 235.071 1225 236" stroke="black"/>
</svg>
