<svg width="1228" height="264" viewBox="0 0 1228 264" fill="none" xmlns="http://www.w3.org/2000/svg">
<path d="M614 1.63818C572.494 2.58654 538.575 36.0167 538.672 77.0354L538.906 176.61C538.961 200.333 523.469 211.598 513.504 211.621C503.539 211.645 487.993 200.453 487.937 176.73L487.727 87.0475C487.627 44.4507 457.379 1.9867 411.01 2.09525C364.642 2.20379 334.594 44.8089 334.694 87.4057L334.905 177.088C334.961 200.811 319.468 212.075 309.503 212.099C299.538 212.122 283.993 200.93 283.937 177.207L283.726 87.525C283.626 44.9283 253.378 2.46424 207.01 2.57278C160.642 2.68133 130.594 45.2865 130.694 87.8832L130.905 177.565C130.96 201.288 115.467 212.553 105.503 212.576C95.5375 212.6 79.992 201.408 79.9362 177.685L79.7255 88.0025C79.6254 45.4058 49.3776 2.94178 3.00933 3.05032C2.33611 3.0519 1.66633 3.06243 1 3.08179L1.11817 53.3778C1.80737 53.2808 2.47899 53.2318 3.12723 53.2302C13.0921 53.2069 28.6377 64.3989 28.6935 88.122L28.9042 177.804C29.0043 220.401 59.2522 262.865 105.62 262.756C151.989 262.648 182.037 220.043 181.937 177.446L181.726 87.7638C181.67 64.0407 197.163 52.776 207.128 52.7527C217.093 52.7294 232.638 63.9213 232.694 87.6445L232.905 177.327C233.005 219.923 263.253 262.387 309.621 262.279C355.989 262.17 386.037 219.565 385.937 176.968L385.726 87.2862C385.671 63.5631 401.163 52.2985 411.128 52.2752C421.093 52.2518 436.639 63.4438 436.695 87.1669L436.905 176.849C437.005 219.446 467.253 261.91 513.622 261.801C559.99 261.693 590.038 219.088 589.938 176.491L589.704 76.9159C589.672 63.6137 601.185 52.7077 614.5 51.8517C624.465 51.8283 641.638 63.3989 641.693 87.122L641.904 176.804C642.004 219.401 672.252 261.865 718.62 261.756C764.989 261.648 795.037 219.043 794.937 176.446L794.726 86.7638C794.67 63.0407 810.163 51.776 820.128 51.7527C830.093 51.7294 845.638 62.9213 845.694 86.6445L845.905 176.327C846.005 218.923 876.253 261.387 922.621 261.279C968.989 261.17 999.037 218.565 998.937 175.968L998.726 86.2862C998.671 62.5631 1014.16 51.2985 1024.13 51.2752C1034.09 51.2518 1049.64 62.4438 1049.69 86.1669L1049.91 175.849C1050.01 218.446 1080.25 260.91 1126.62 260.801C1172.99 260.693 1203.04 218.088 1202.94 175.491L1202.7 75.9159C1202.67 62.6137 1213.19 51.7077 1226.5 50.8517L1226.38 0.638184C1184.88 1.58654 1151.58 35.0167 1151.67 76.0354L1151.91 175.61C1151.96 199.333 1136.47 210.598 1126.5 210.621C1116.54 210.645 1100.99 199.453 1100.94 175.73L1100.73 86.0475C1100.63 43.4507 1070.38 0.986703 1024.01 1.09525C977.642 1.20379 947.594 43.8089 947.694 86.4057L947.905 176.088C947.961 199.811 932.468 211.075 922.503 211.099C912.538 211.122 896.992 199.93 896.937 176.207L896.726 86.525C896.626 43.9283 866.378 1.46424 820.01 1.57278C773.642 1.68133 743.594 44.2865 743.694 86.8832L743.905 176.565C743.96 200.288 728.467 211.553 718.503 211.576C708.537 211.6 692.992 200.408 692.936 176.685L692.726 87.0025C692.625 44.4058 662.368 1.52964 616 1.63818C615.327 1.63976 614.666 1.61883 614 1.63818Z" fill="#FFFFEC" stroke="black"/>
</svg>
