<svg width="1228" height="264" viewBox="0 0 1228 264" fill="none" xmlns="http://www.w3.org/2000/svg">
<path d="M614 261.756C572.494 260.808 538.575 227.378 538.672 186.359L538.906 86.7843C538.961 63.0612 523.469 51.7966 513.504 51.7733C503.539 51.7499 487.993 62.9419 487.937 86.665L487.727 176.347C487.627 218.944 457.379 261.408 411.01 261.299C364.642 261.191 334.594 218.586 334.694 175.989L334.905 86.3068C334.961 62.5836 319.468 51.319 309.503 51.2957C299.538 51.2724 283.993 62.4643 283.937 86.1875L283.726 175.87C283.626 218.466 253.378 260.93 207.01 260.822C160.642 260.713 130.594 218.108 130.694 175.511L130.905 85.8292C130.96 62.1061 115.467 50.8415 105.503 50.8182C95.5375 50.7948 79.992 61.9868 79.9362 85.7099L79.7255 175.392C79.6254 217.989 49.3776 260.453 3.00933 260.344C2.33611 260.343 1.66633 260.332 1 260.313L1.11817 210.017C1.80737 210.114 2.47899 210.163 3.12723 210.164C13.0921 210.188 28.6377 198.996 28.6935 175.273L28.9042 85.5905C29.0043 42.9937 59.2522 0.529694 105.62 0.638245C151.989 0.746796 182.037 43.3519 181.937 85.9487L181.726 175.631C181.67 199.354 197.163 210.619 207.128 210.642C217.093 210.665 232.638 199.473 232.694 175.75L232.905 86.068C233.005 43.4713 263.253 1.00723 309.621 1.11578C355.989 1.22433 386.037 43.8295 385.937 86.4262L385.726 176.108C385.671 199.831 401.163 211.096 411.128 211.119C421.093 211.143 436.639 199.951 436.695 176.228L436.905 86.5456C437.005 43.9488 467.253 1.48477 513.622 1.59332C559.99 1.70187 590.038 44.307 589.938 86.9038L589.704 186.479C589.672 199.781 601.185 210.687 614.5 211.543C624.465 211.566 641.638 199.996 641.693 176.273L641.904 86.5905C642.004 43.9937 672.252 1.52969 718.62 1.63824C764.989 1.7468 795.037 44.3519 794.937 86.9487L794.726 176.631C794.67 200.354 810.163 211.619 820.128 211.642C830.093 211.665 845.638 200.473 845.694 176.75L845.905 87.068C846.005 44.4713 876.253 2.00723 922.621 2.11578C968.989 2.22433 999.037 44.8295 998.937 87.4262L998.726 177.108C998.671 200.831 1014.16 212.096 1024.13 212.119C1034.09 212.143 1049.64 200.951 1049.69 177.228L1049.91 87.5456C1050.01 44.9488 1080.25 2.48477 1126.62 2.59332C1172.99 2.70187 1203.04 45.307 1202.94 87.9038L1202.7 187.479C1202.67 200.781 1213.19 211.687 1226.5 212.543L1226.38 262.756C1184.88 261.808 1151.58 228.378 1151.67 187.359L1151.91 87.7843C1151.96 64.0612 1136.47 52.7966 1126.5 52.7733C1116.54 52.7499 1100.99 63.9419 1100.94 87.665L1100.73 177.347C1100.63 219.944 1070.38 262.408 1024.01 262.299C977.642 262.191 947.594 219.586 947.694 176.989L947.905 87.3068C947.961 63.5836 932.468 52.319 922.503 52.2957C912.538 52.2724 896.992 63.4643 896.937 87.1875L896.726 176.87C896.626 219.466 866.378 261.93 820.01 261.822C773.642 261.713 743.594 219.108 743.694 176.511L743.905 86.8292C743.96 63.1061 728.467 51.8415 718.503 51.8182C708.537 51.7948 692.992 62.9868 692.936 86.7099L692.726 176.392C692.625 218.989 662.368 261.865 616 261.756C615.327 261.755 614.666 261.776 614 261.756Z" fill="#FFFFEC" stroke="black"/>
</svg>
