<svg width="613" height="260" viewBox="0 0 613 260" fill="none" xmlns="http://www.w3.org/2000/svg">
<path d="M612 25C570.38 25.9284 562.893 58.7396 562.99 98.8956C563.086 139.052 564.072 159.858 563.605 180.906C563.139 201.954 538.635 232.46 514.181 233.281C488.66 234.138 461.318 206.578 461.262 183.354C461.262 183.354 461.318 152.834 461.218 111.133C461.156 85.2795 463.847 65.3415 450.778 49.4819C442.767 39.7601 427.511 27.9042 409.841 27.9446C385.004 28.0013 368.516 46.79 362.414 66.1244C357.092 82.9847 359.883 96.6023 359.93 116.028L358.919 188.496C358.945 199.322 349.618 213.043 341.446 219.823C332.087 227.587 321.504 235.402 308.496 234.507C293.704 233.49 285.531 228.357 274.548 217.865C265.314 209.043 258.488 199.754 257.49 189.475C256.492 179.195 257.749 150.314 257.648 108.613C257.59 84.391 256.076 61.719 243.596 46.7697C235.911 35.5854 222.398 27.1607 205.654 27.1903C188.554 27.2204 176.199 36.001 167.213 47.7486C158.226 59.4963 154.173 83.8928 154.233 108.613C154.233 108.613 155.643 147.65 155.699 170.874C155.728 182.67 155.132 199.547 145.215 212.48C133.793 227.377 122.045 235.184 103.81 234.997C85.9155 234.813 75.1258 226.694 64.8695 213.459C54.8386 200.515 53.1029 180.04 53.0843 172.343C53.0285 149.118 53.0843 109.081 53.0843 109.081C53.0346 88.4302 54.6615 72.4004 47.3962 57.5383C39.9903 42.3883 23.4713 28.6051 0 28.6587" stroke="black"/>
</svg>
