<svg width="24" height="24" viewBox="0 0 24 24" fill="none" xmlns="http://www.w3.org/2000/svg">
<path d="M4.34374 4.29302C4.34374 3.18845 5.23917 2.29302 6.34374 2.29302H14.3437C14.609 2.29302 14.8633 2.39837 15.0508 2.58591L20.0508 7.58591C20.2384 7.77345 20.3437 8.0278 20.3437 8.29302V20.293C20.3437 21.3976 19.4483 22.293 18.3437 22.293H6.34374C5.23917 22.293 4.34374 21.3976 4.34374 20.293V4.29302ZM17.9295 8.29302L14.3437 4.70723V8.29302H17.9295ZM12.3437 4.29302L6.34374 4.29302V20.293H18.3437V10.293H13.3437C12.7915 10.293 12.3437 9.8453 12.3437 9.29302V4.29302Z" fill="black"/>
<path d="M7.49432 15.7386V14.7159L10.6648 13.446V14.5199L8.64489 15.2188L8.67898 15.1676V15.2869L8.64489 15.2358L10.6648 15.9347V17.0085L7.49432 15.7386ZM13.5977 12.4318L12.1914 17.6562H11.1942L12.6005 12.4318H13.5977ZM17.2976 15.7386L14.1271 17.0085V15.9347L16.147 15.2358L16.1129 15.2869V15.1676L16.147 15.2188L14.1271 14.5199V13.446L17.2976 14.7159V15.7386Z" fill="black"/>
</svg>
