<svg width="24" height="24" viewBox="0 0 24 24" fill="none" xmlns="http://www.w3.org/2000/svg">
<path d="M4.34375 4.29297C4.34375 3.1884 5.23918 2.29297 6.34375 2.29297H14.3438C14.609 2.29297 14.8633 2.39833 15.0509 2.58586L20.0509 7.58586C20.2384 7.7734 20.3438 8.02775 20.3438 8.29297V20.293C20.3438 21.3975 19.4483 22.293 18.3438 22.293H6.34375C5.23918 22.293 4.34375 21.3975 4.34375 20.293V4.29297ZM17.9295 8.29297L14.3438 4.70718V8.29297H17.9295ZM12.3438 4.29297L6.34375 4.29297V20.293H18.3438V10.293H13.3438C12.7915 10.293 12.3438 9.84525 12.3438 9.29297V4.29297Z" fill="black"/>
<path d="M8.6238 15.6477V15.1505C8.94577 15.1505 9.1702 15.0852 9.2971 14.9545C9.42588 14.8219 9.49028 14.607 9.49028 14.3096V13.5852C9.49028 13.2651 9.53005 13.0028 9.6096 12.7983C9.69104 12.5937 9.80941 12.4346 9.96471 12.321C10.12 12.2074 10.3094 12.1288 10.5329 12.0852C10.7564 12.0397 11.0102 12.017 11.2943 12.017V12.8068C11.0708 12.8068 10.8994 12.838 10.7801 12.9005C10.6607 12.9611 10.5783 13.0549 10.5329 13.1818C10.4893 13.3087 10.4676 13.4706 10.4676 13.6676V14.5994C10.4676 14.7452 10.4429 14.8816 10.3937 15.0085C10.3444 15.1354 10.2545 15.2471 10.1238 15.3437C9.99312 15.4384 9.80657 15.5132 9.56414 15.5682C9.32361 15.6212 9.01016 15.6477 8.6238 15.6477ZM11.2943 19.2358C11.0102 19.2358 10.7564 19.213 10.5329 19.1676C10.3094 19.124 10.12 19.0454 9.96471 18.9318C9.80941 18.8182 9.69104 18.6591 9.6096 18.4545C9.53005 18.25 9.49028 17.9877 9.49028 17.6676V16.946C9.49028 16.6486 9.42588 16.4346 9.2971 16.304C9.1702 16.1714 8.94577 16.1051 8.6238 16.1051V15.6079C9.01016 15.6079 9.32361 15.6354 9.56414 15.6903C9.80657 15.7433 9.99312 15.8182 10.1238 15.9147C10.2545 16.0094 10.3444 16.1202 10.3937 16.2471C10.4429 16.374 10.4676 16.5094 10.4676 16.6534V17.5852C10.4676 17.7822 10.4893 17.9441 10.5329 18.071C10.5783 18.1979 10.6607 18.2926 10.7801 18.3551C10.8994 18.4176 11.0708 18.4488 11.2943 18.4488V19.2358ZM8.6238 16.1051V15.1505H9.52437V16.1051H8.6238Z" fill="black"/>
<path d="M16.3759 15.6079V16.1051C16.054 16.1051 15.8286 16.1714 15.6998 16.304C15.5729 16.4346 15.5095 16.6486 15.5095 16.946V17.6676C15.5095 17.9877 15.4687 18.25 15.3873 18.4545C15.3077 18.6591 15.1903 18.8182 15.035 18.9318C14.8797 19.0454 14.6903 19.124 14.4668 19.1676C14.2434 19.213 13.9896 19.2358 13.7055 19.2358V18.4488C13.929 18.4488 14.1004 18.4176 14.2197 18.3551C14.339 18.2926 14.4204 18.1979 14.464 18.071C14.5095 17.9441 14.5322 17.7822 14.5322 17.5852V16.6534C14.5322 16.5094 14.5568 16.374 14.606 16.2471C14.6553 16.1202 14.7452 16.0094 14.8759 15.9147C15.0066 15.8182 15.1922 15.7433 15.4327 15.6903C15.6752 15.6354 15.9896 15.6079 16.3759 15.6079ZM13.7055 12.017C13.9896 12.017 14.2434 12.0397 14.4668 12.0852C14.6903 12.1288 14.8797 12.2074 15.035 12.321C15.1903 12.4346 15.3077 12.5937 15.3873 12.7983C15.4687 13.0028 15.5095 13.2651 15.5095 13.5852V14.3096C15.5095 14.607 15.5729 14.8219 15.6998 14.9545C15.8286 15.0852 16.054 15.1505 16.3759 15.1505V15.6477C15.9896 15.6477 15.6752 15.6212 15.4327 15.5682C15.1922 15.5132 15.0066 15.4384 14.8759 15.3437C14.7452 15.2471 14.6553 15.1354 14.606 15.0085C14.5568 14.8816 14.5322 14.7452 14.5322 14.5994V13.6676C14.5322 13.4706 14.5095 13.3087 14.464 13.1818C14.4204 13.0549 14.339 12.9611 14.2197 12.9005C14.1004 12.838 13.929 12.8068 13.7055 12.8068V12.017ZM16.3759 15.1505V16.1051H15.4754V15.1505H16.3759Z" fill="black"/>
</svg>
