<svg width="216" height="216" viewBox="0 0 216 216" fill="none" xmlns="http://www.w3.org/2000/svg">
<circle cx="18" cy="54" r="6" fill="#E94B84"/>
<circle cx="18" cy="66" r="6" fill="#E94B84"/>
<circle cx="18" cy="78" r="6" fill="#E94B84"/>
<circle cx="18" cy="90" r="6" fill="#E94B84"/>
<circle cx="18" cy="102" r="6" fill="#E94B84"/>
<circle cx="18" cy="114" r="6" fill="#E94B84"/>
<circle cx="198" cy="55" r="6" fill="#B361F3"/>
<circle cx="198" cy="67" r="6" fill="#B361F3"/>
<circle cx="198" cy="79" r="6" fill="#B361F3"/>
<circle cx="198" cy="91" r="6" fill="#B361F3"/>
<circle cx="198" cy="103" r="6" fill="#B361F3"/>
<circle cx="198" cy="115" r="6" fill="#B361F3"/>
<circle cx="30" cy="54" r="6" fill="#E94B84"/>
<circle cx="30" cy="66" r="6" fill="#E94B84"/>
<circle cx="30" cy="78" r="6" fill="#E94B84"/>
<circle cx="30" cy="90" r="6" fill="#E94B84"/>
<circle cx="30" cy="102" r="6" fill="#E94B84"/>
<circle cx="30" cy="114" r="6" fill="#E94B84"/>
<circle cx="30" cy="126" r="6" fill="#E94B84"/>
<circle cx="30" cy="138" r="6" fill="#E94B84"/>
<circle cx="186" cy="55" r="6" fill="#B361F3"/>
<circle cx="186" cy="67" r="6" fill="#B361F3"/>
<circle cx="186" cy="79" r="6" fill="#B361F3"/>
<circle cx="186" cy="91" r="6" fill="#B361F3"/>
<circle cx="186" cy="103" r="6" fill="#B361F3"/>
<circle cx="186" cy="115" r="6" fill="#B361F3"/>
<circle cx="186" cy="127" r="6" fill="#B361F3"/>
<circle cx="186" cy="139" r="6" fill="#B361F3"/>
<circle cx="42" cy="54" r="6" fill="#E94B84"/>
<circle cx="42" cy="66" r="6" fill="#E94B84"/>
<circle cx="42" cy="78" r="6" fill="#E94B84"/>
<circle cx="42" cy="90" r="6" fill="#E94B84"/>
<circle cx="42" cy="102" r="6" fill="#E94B84"/>
<circle cx="42" cy="114" r="6" fill="#E94B84"/>
<circle cx="42" cy="126" r="6" fill="#E94B84"/>
<circle cx="42" cy="138" r="6" fill="#E94B84"/>
<circle cx="42" cy="150" r="6" fill="#E94B84"/>
<circle cx="42" cy="162" r="6" fill="#E94B84"/>
<circle cx="174" cy="55" r="6" fill="#B361F3"/>
<circle cx="174" cy="67" r="6" fill="#B361F3"/>
<circle cx="174" cy="79" r="6" fill="#B361F3"/>
<circle cx="174" cy="91" r="6" fill="#B361F3"/>
<circle cx="174" cy="103" r="6" fill="#B361F3"/>
<circle cx="174" cy="115" r="6" fill="#B361F3"/>
<circle cx="174" cy="127" r="6" fill="#B361F3"/>
<circle cx="174" cy="139" r="6" fill="#B361F3"/>
<circle cx="174" cy="151" r="6" fill="#B361F3"/>
<circle cx="174" cy="163" r="6" fill="#B361F3"/>
<circle cx="54" cy="91" r="6" fill="#E94B84"/>
<circle cx="54" cy="103" r="6" fill="#E94B84"/>
<circle cx="54" cy="115" r="6" fill="#E94B84"/>
<circle cx="54" cy="127" r="6" fill="#E94B84"/>
<circle cx="54" cy="139" r="6" fill="#E94B84"/>
<circle cx="54" cy="151" r="6" fill="#E94B84"/>
<circle cx="54" cy="163" r="6" fill="#E94B84"/>
<circle cx="162" cy="91" r="6" fill="#B361F3"/>
<circle cx="162" cy="103" r="6" fill="#B361F3"/>
<circle cx="162" cy="115" r="6" fill="#B361F3"/>
<circle cx="162" cy="127" r="6" fill="#B361F3"/>
<circle cx="162" cy="139" r="6" fill="#B361F3"/>
<circle cx="162" cy="151" r="6" fill="#B361F3"/>
<circle cx="162" cy="163" r="6" fill="#B361F3"/>
<circle cx="66" cy="127" r="6" fill="#4CF3D5"/>
<circle cx="66" cy="139" r="6" fill="#4CF3D5"/>
<circle cx="66" cy="151" r="6" fill="#4CF3D5"/>
<circle cx="66" cy="163" r="6" fill="#4CF3D5"/>
<circle cx="78" cy="103" r="6" fill="#4CF3D5"/>
<circle cx="78" cy="115" r="6" fill="#4CF3D5"/>
<circle cx="78" cy="127" r="6" fill="#4CF3D5"/>
<circle cx="78" cy="139" r="6" fill="#4CF3D5"/>
<circle cx="78" cy="151" r="6" fill="#4CF3D5"/>
<circle cx="78" cy="163" r="6" fill="#4CF3D5"/>
<circle cx="90" cy="79" r="6" fill="#4CF3D5"/>
<circle cx="90" cy="91" r="6" fill="#4CF3D5"/>
<circle cx="90" cy="103" r="6" fill="#4CF3D5"/>
<circle cx="90" cy="115" r="6" fill="#4CF3D5"/>
<circle cx="90" cy="127" r="6" fill="#4CF3D5"/>
<circle cx="90" cy="139" r="6" fill="#4CF3D5"/>
<circle cx="102" cy="55" r="6" fill="#4CF3D5"/>
<circle cx="102" cy="67" r="6" fill="#4CF3D5"/>
<circle cx="102" cy="79" r="6" fill="#4CF3D5"/>
<circle cx="102" cy="91" r="6" fill="#4CF3D5"/>
<circle cx="102" cy="103" r="6" fill="#4CF3D5"/>
<circle cx="102" cy="115" r="6" fill="#4CF3D5"/>
<circle cx="114" cy="55" r="6" fill="#6461F3"/>
<circle cx="114" cy="67" r="6" fill="#6461F3"/>
<circle cx="114" cy="79" r="6" fill="#6461F3"/>
<circle cx="114" cy="91" r="6" fill="#6461F3"/>
<circle cx="114" cy="103" r="6" fill="#6461F3"/>
<circle cx="114" cy="115" r="6" fill="#6461F3"/>
<circle cx="126" cy="79" r="6" fill="#6461F3"/>
<circle cx="126" cy="91" r="6" fill="#6461F3"/>
<circle cx="126" cy="103" r="6" fill="#6461F3"/>
<circle cx="126" cy="115" r="6" fill="#6461F3"/>
<circle cx="126" cy="127" r="6" fill="#6461F3"/>
<circle cx="126" cy="139" r="6" fill="#6461F3"/>
<circle cx="138" cy="103" r="6" fill="#6461F3"/>
<circle cx="138" cy="115" r="6" fill="#6461F3"/>
<circle cx="138" cy="127" r="6" fill="#6461F3"/>
<circle cx="138" cy="139" r="6" fill="#6461F3"/>
<circle cx="138" cy="151" r="6" fill="#6461F3"/>
<circle cx="138" cy="163" r="6" fill="#6461F3"/>
<circle cx="150" cy="127" r="6" fill="#6461F3"/>
<circle cx="150" cy="139" r="6" fill="#6461F3"/>
<circle cx="150" cy="151" r="6" fill="#6461F3"/>
<circle cx="150" cy="163" r="6" fill="#6461F3"/>
<circle cx="6" cy="54" r="6" fill="#E94B84"/>
<circle cx="6" cy="66" r="6" fill="#E94B84"/>
<circle cx="6" cy="78" r="6" fill="#E94B84"/>
<circle cx="210" cy="55" r="6" fill="#B361F3"/>
<circle cx="210" cy="67" r="6" fill="#B361F3"/>
<circle cx="210" cy="79" r="6" fill="#B361F3"/>
</svg>
