<svg width="24" height="24" viewBox="0 0 24 24" fill="none" xmlns="http://www.w3.org/2000/svg">
<path d="M4.34374 4.29302C4.34374 3.18845 5.23917 2.29302 6.34374 2.29302H14.3437C14.609 2.29302 14.8633 2.39837 15.0508 2.58591L20.0508 7.58591C20.2384 7.77345 20.3437 8.0278 20.3437 8.29302V20.293C20.3437 21.3976 19.4483 22.293 18.3437 22.293H6.34374C5.23917 22.293 4.34374 21.3976 4.34374 20.293V4.29302ZM17.9295 8.29302L14.3437 4.70723V8.29302H17.9295ZM12.3437 4.29302L6.34374 4.29302V20.293H18.3437V10.293H13.3437C12.7915 10.293 12.3437 9.8453 12.3437 9.29302V4.29302ZM10 14.0001V11.8706C10 11.4847 10.4186 11.2443 10.7519 11.4388L15.2016 14.0344C15.5448 14.2346 15.5286 14.7358 15.1733 14.9135L10.7236 17.1383C10.3912 17.3045 10 17.0632 10 16.6915C10 15.7764 10 14.3651 10 14.0001Z" fill="black"/>
</svg>
