<svg width="24" height="24" viewBox="0 0 24 24" fill="none" xmlns="http://www.w3.org/2000/svg">
<mask id="path-1-inside-1_2514_87135" fill="white">
<path d="M4.34375 4.29297C4.34375 3.1884 5.23918 2.29297 6.34375 2.29297H14.3438C14.609 2.29297 14.8633 2.39833 15.0509 2.58586L20.0509 7.58586C20.2384 7.7734 20.3438 8.02775 20.3438 8.29297V20.293C20.3438 21.3975 19.4483 22.293 18.3438 22.293H6.34375C5.23918 22.293 4.34375 21.3975 4.34375 20.293V4.29297ZM17.9295 8.29297L14.3438 4.70718V8.29297H17.9295ZM12.3438 4.29297L6.34375 4.29297V20.293H18.3438V10.293H13.3438C12.7915 10.293 12.3438 9.84525 12.3438 9.29297V4.29297Z"/>
<path d="M8 4V4L8.72233 4.29297H9.50004L9.5 4L9.50022 5.49997H8.00022L8 4Z"/>
<path d="M8.00022 6.99997H9.50022V8.49997H8.00022V6.99997Z"/>
<path d="M8.00022 9.99997H9.50022V11.5H8.00022V9.99997Z"/>
<path d="M8.00022 13H9.50022L9.5 14H10L11.0002 14V18H8.00022V14.5V13Z"/>
<path d="M9.50022 5.49997H11.0002V6.99997H9.50022V5.49997Z"/>
<path d="M9.50022 8.49997H11.0002V9.99997H9.50022V8.49997Z"/>
<path d="M9.50022 11.5H11.0002V13H9.50022V11.5Z"/>
</mask>
<path d="M8.00022 14V13.5H7.50022V14H8.00022ZM8.50022 18V14H7.50022V18H8.50022ZM8.00022 14.5H11.0002V13.5H8.00022V14.5ZM15.0509 2.58586L14.3437 3.29297L14.3437 3.29297L15.0509 2.58586ZM20.0509 7.58586L19.3437 8.29297L20.0509 7.58586ZM17.9295 8.29297V9.29297H20.3438L18.6366 7.58586L17.9295 8.29297ZM14.3438 8.29297H13.3438V9.29297H14.3438V8.29297ZM14.3438 4.70718L15.0509 4.00008L13.3438 2.29297V4.70718H14.3438ZM12.3438 4.29297H13.3438V3.29297L12.3437 3.29297L12.3438 4.29297ZM18.3438 10.293H19.3438V9.29297H18.3438V10.293ZM18.3438 20.293V21.293H19.3438V20.293H18.3438ZM6.34375 20.293H5.34375V21.293H6.34375V20.293ZM6.34375 4.29297L6.34375 3.29297L5.34375 3.29297V4.29297H6.34375ZM8.00022 5.49997L7.00022 5.50012L7.00037 6.49997H8.00022V5.49997ZM8.00022 6.99997V5.99997H7.00022V6.99997H8.00022ZM8.00022 8.49997H7.00022V9.49997H8.00022V8.49997ZM8.00022 9.99997V8.99997H7.00022V9.99997H8.00022ZM8.00022 11.5H7.00022V12.5H8.00022V11.5ZM8.00022 13V12H7.00022V13H8.00022ZM9.5 14L8.5 13.9998L8.49978 15H9.5V14ZM11.0002 5.49997H12.0002V4.49997H11.0002V5.49997ZM11.0002 6.99997V7.99997H12.0002V6.99997H11.0002ZM11.0002 8.49997H12.0002V7.49997H11.0002V8.49997ZM11.0002 9.99997V11H12.0002V9.99997H11.0002ZM11.0002 11.5H12.0002V10.5H11.0002V11.5ZM11.0002 13V14H12.0002V13H11.0002ZM11.0002 14H12.0002V13L11.0002 13L11.0002 14ZM11.0002 18V19H12.0002V18H11.0002ZM8.00022 18H7.00022V19H8.00022V18ZM10 14L10 15L10 15L10 14ZM8.72233 4.29297L8.34648 5.21965L8.52725 5.29297H8.72233V4.29297ZM9.50004 4.29297V5.29297H10.5002L10.5 4.29282L9.50004 4.29297ZM6.34375 1.29297C4.68689 1.29297 3.34375 2.63612 3.34375 4.29297H5.34375C5.34375 3.74068 5.79147 3.29297 6.34375 3.29297V1.29297ZM15.758 1.87876C15.3829 1.50368 14.8742 1.29297 14.3438 1.29297V3.29297L14.3437 3.29297L15.758 1.87876ZM20.758 6.87876L15.758 1.87876L14.3437 3.29297L19.3437 8.29297L20.758 6.87876ZM21.3438 8.29297C21.3438 7.76254 21.133 7.25383 20.758 6.87876L19.3437 8.29297L19.3438 8.29297H21.3438ZM18.3438 23.293C20.0006 23.293 21.3438 21.9498 21.3438 20.293H19.3438C19.3438 20.8453 18.896 21.293 18.3438 21.293V23.293ZM6.34375 23.293H18.3438V21.293H6.34375V23.293ZM3.34375 20.293C3.34375 21.9498 4.6869 23.293 6.34375 23.293V21.293C5.79147 21.293 5.34375 20.8453 5.34375 20.293H3.34375ZM3.34375 4.29297V20.293H5.34375V4.29297H3.34375ZM17.9295 7.29297H14.3438V9.29297H17.9295V7.29297ZM15.3438 8.29297V4.70718H13.3438V8.29297H15.3438ZM13.6366 5.41429L17.2224 9.00008L18.6366 7.58586L15.0509 4.00008L13.6366 5.41429ZM11.3438 4.29297V9.29297H13.3438V4.29297H11.3438ZM11.3438 9.29297C11.3438 10.3975 12.2392 11.293 13.3438 11.293V9.29297H11.3438ZM13.3438 11.293H18.3438V9.29297H13.3438V11.293ZM17.3438 10.293V20.293H19.3438V10.293H17.3438ZM18.3438 19.293H6.34375V21.293H18.3438V19.293ZM7.34375 20.293V4.29297H5.34375V20.293H7.34375ZM6.34375 5.29297L12.3438 5.29297L12.3437 3.29297L6.34375 3.29297L6.34375 5.29297ZM14.3438 1.29297H6.34375V3.29297H14.3438V1.29297ZM21.3438 20.293V8.29297H19.3438V20.293H21.3438ZM8.5 4.00015L8.50022 5.50012L10.5002 5.49983L10.5 3.99985L8.5 4.00015ZM9.50022 4.49997H8.00022V6.49997H9.50022V4.49997ZM9.00022 5.49983L9 3.99985L7 4.00015L7.00022 5.50012L9.00022 5.49983ZM8.50022 5.49997V6.99997H10.5002V5.49997H8.50022ZM9.50022 5.99997H8.00022V7.99997H9.50022V5.99997ZM8.50022 6.99997V8.49997H10.5002V6.99997H8.50022ZM9.50022 7.49997H8.00022V9.49997H9.50022V7.49997ZM9.00022 8.49997V6.99997H7.00022V8.49997H9.00022ZM8.50022 8.49997V9.99997H10.5002V8.49997H8.50022ZM9.50022 8.99997H8.00022V11H9.50022V8.99997ZM8.50022 9.99997V11.5H10.5002V9.99997H8.50022ZM9.50022 10.5H8.00022V12.5H9.50022V10.5ZM9.00022 11.5V9.99997H7.00022V11.5H9.00022ZM8.50022 11.5V13H10.5002V11.5H8.50022ZM9.50022 12H8.00022V14H9.50022V12ZM8.50022 12.9998L8.5 13.9998L10.5 14.0002L10.5002 13.0002L8.50022 12.9998ZM9.00022 14.5V13H7.00022V14.5H9.00022ZM11.0002 4.49997H9.50022V6.49997H11.0002V4.49997ZM10.0002 5.49997V6.99997H12.0002V5.49997H10.0002ZM11.0002 5.99997H9.50022V7.99997H11.0002V5.99997ZM11.0002 7.49997H9.50022V9.49997H11.0002V7.49997ZM10.0002 8.49997V9.99997H12.0002V8.49997H10.0002ZM11.0002 8.99997H9.50022V11H11.0002V8.99997ZM11.0002 10.5H9.50022V12.5H11.0002V10.5ZM10.0002 11.5V13H12.0002V11.5H10.0002ZM11.0002 12H9.50022V14H11.0002V12ZM10.0002 14V18H12.0002V14H10.0002ZM11.0002 17H8.00022V19H11.0002V17ZM9.00022 18V14.5H7.00022V18H9.00022ZM9.5 15H10V13H9.5V15ZM10 15L11.0002 15L11.0002 13L9.99998 13L10 15ZM8.72233 5.29297H9.50004V3.29297H8.72233V5.29297ZM10.5 4.29282L10.5 3.99985L8.5 4.00015L8.50004 4.29312L10.5 4.29282ZM7.62415 4.92668L8.34648 5.21965L9.09818 3.36629L8.37585 3.07332L7.62415 4.92668Z" fill="black" mask="url(#path-1-inside-1_2514_87135)"/>
</svg>
