<svg width="100" height="100" viewBox="0 0 100 100" fill="none" xmlns="http://www.w3.org/2000/svg">
<mask id="path-1-inside-1_795_143419" fill="white">
<path d="M100 50C100 77.6142 77.6142 100 50 100C22.3858 100 0 77.6142 0 50C0 22.3858 22.3858 0 50 0C77.6142 0 100 22.3858 100 50ZM15.8984 50C15.8984 68.8338 31.1662 84.1016 50 84.1016C68.8338 84.1016 84.1016 68.8338 84.1016 50C84.1016 31.1662 68.8338 15.8984 50 15.8984C31.1662 15.8984 15.8984 31.1662 15.8984 50Z"/>
</mask>
<path d="M100 50C100 77.6142 77.6142 100 50 100C22.3858 100 0 77.6142 0 50C0 22.3858 22.3858 0 50 0C77.6142 0 100 22.3858 100 50ZM15.8984 50C15.8984 68.8338 31.1662 84.1016 50 84.1016C68.8338 84.1016 84.1016 68.8338 84.1016 50C84.1016 31.1662 68.8338 15.8984 50 15.8984C31.1662 15.8984 15.8984 31.1662 15.8984 50Z" stroke="currentColor" stroke-width="1.26231" mask="url(#path-1-inside-1_795_143419)"/>
<path d="M86.917 30.8911L87.4359 30.6312L88.3211 32.3987L87.8021 32.6586L86.917 30.8911Z" fill="currentColor"/>
<path d="M87.3553 25.7091L85.7463 23.4574L84.1311 24.6115L85.3342 26.2952L84.862 26.6326L83.6589 24.949L82.0232 26.1178L83.6322 28.3695L83.1599 28.7069L81.189 25.9488L85.8567 22.6135L87.8276 25.3716L87.3553 25.7091Z" fill="currentColor"/>
<path d="M79.9557 21.2729L80.3745 20.871L81.5392 22.085L79.5422 24.001L79.1287 23.57L79.6447 23.075L79.5864 23.0143C79.0584 23.2334 78.5575 23.0961 78.0839 22.6024L78.0606 22.5781C77.684 22.1856 77.5084 21.7596 77.5338 21.3C77.5592 20.8404 77.8227 20.37 78.3245 19.8886L79.6235 18.6423C80.1253 18.1609 80.6141 17.9251 81.0898 17.935C81.5656 17.9449 82.0053 18.1602 82.4091 18.5811L82.4382 18.6114C82.842 19.0323 83.0389 19.4806 83.029 19.9563C83.0192 20.4321 82.7634 20.9106 82.2616 21.3921L81.8306 20.9429C82.2151 20.574 82.4164 20.2371 82.4346 19.9321C82.4569 19.6232 82.3205 19.315 82.0254 19.0074L81.9963 18.9771C81.7013 18.6695 81.3989 18.5205 81.0894 18.5299C80.7839 18.5355 80.4389 18.7227 80.0545 19.0915L78.7555 20.3377C78.3751 20.7027 78.1718 21.0376 78.1457 21.3424C78.1234 21.6513 78.254 21.9535 78.5374 22.2489L78.5665 22.2792C78.8616 22.5868 79.1677 22.7399 79.4851 22.7385C79.8024 22.7372 80.1513 22.554 80.5316 22.1891L80.6895 22.0377L79.9557 21.2729Z" fill="currentColor"/>
<path d="M74.6478 19.4078L75.3466 17.7096L73.8531 16.5746L72.3975 17.6977L71.8617 17.2905L76.6119 13.695L77.3754 14.2752L75.1702 19.8047L74.6478 19.4078ZM74.3249 16.2041L75.5706 17.1508L76.6709 14.4794L76.6106 14.4336L74.3249 16.2041Z" fill="currentColor"/>
<path d="M72.4051 12.996C71.9001 13.9215 71.2028 14.1926 70.3131 13.8093L70.293 13.8462L70.4288 16.4598L69.816 16.1253L69.6814 13.4742L68.943 13.0713L67.8592 15.0576L67.3128 14.7595L70.0606 9.72355L71.7368 10.6382C72.741 11.1861 72.9678 11.9647 72.4172 12.9738L72.4051 12.996ZM71.8782 12.6797C72.0823 12.3056 72.1484 12.003 72.0763 11.7721C72.0092 11.5438 71.8034 11.3357 71.4588 11.1477L70.329 10.5312L69.221 12.5618L70.3508 13.1783C70.6954 13.3663 70.9818 13.4268 71.2101 13.3597C71.4433 13.2953 71.6619 13.076 71.8661 12.7019L71.8782 12.6797Z" fill="currentColor"/>
<path d="M63.1287 13.1668C62.5807 12.9672 62.2062 12.6518 62.0051 12.2206C61.8041 11.7893 61.8225 11.2469 62.0604 10.5935L62.6763 8.90202C62.9142 8.2486 63.2488 7.82137 63.68 7.62032C64.1113 7.41927 64.601 7.41851 65.149 7.61804L65.1885 7.63243C65.7365 7.83196 66.1111 8.14737 66.3121 8.57865C66.5132 9.00994 66.4948 9.55228 66.2569 10.2057L65.641 11.8972C65.4031 12.5506 65.0685 12.9778 64.6372 13.1789C64.2059 13.3799 63.7163 13.3807 63.1682 13.1812L63.1287 13.1668ZM63.3244 12.6293L63.3639 12.6437C63.7644 12.7895 64.1005 12.7925 64.3722 12.6527C64.6459 12.5077 64.8738 12.1848 65.0561 11.6842L65.6777 9.97692C65.858 9.4816 65.8891 9.09305 65.7709 8.81128C65.6527 8.52952 65.3933 8.31573 64.9928 8.16992L64.9533 8.15553C64.5528 8.00971 64.2167 8.0067 63.945 8.14649C63.6733 8.28628 63.4473 8.60384 63.2669 9.09917L62.6453 10.8065C62.463 11.3071 62.4301 11.7009 62.5464 11.9879C62.6646 12.2697 62.9239 12.4835 63.3244 12.6293Z" fill="currentColor"/>
<path d="M60.9015 6.4201L60.7834 6.98836L59.1692 6.65284L58.1198 11.7014L57.5104 11.5747L58.5598 6.52616L56.9456 6.19063L57.0637 5.62236L60.9015 6.4201Z" fill="currentColor"/>
<path d="M53.3546 11.1071C52.7452 11.0591 52.2761 10.873 51.9473 10.5489C51.6245 10.2197 51.4878 9.74203 51.5372 9.11589L52.1577 9.16483C52.1211 9.62884 52.2043 9.96448 52.4074 10.1717C52.6104 10.379 52.9411 10.5007 53.3996 10.5369L53.4415 10.5402C54.2857 10.6068 54.7335 10.313 54.7851 9.65891C54.7944 9.54151 54.7886 9.43698 54.7677 9.34533C54.7472 9.24809 54.7063 9.16048 54.6449 9.08251C54.5836 9.00455 54.5241 8.93798 54.4666 8.88282C54.4147 8.82809 54.332 8.77095 54.2186 8.71137C54.1107 8.65224 54.0241 8.60885 53.9588 8.5812C53.8995 8.5484 53.8018 8.50412 53.6655 8.44838C53.5293 8.39263 53.4367 8.35439 53.3877 8.33365C53.1483 8.23039 52.9584 8.14229 52.8179 8.06933C52.6778 7.99078 52.5178 7.87972 52.3379 7.73615C52.1579 7.59258 52.0279 7.42201 51.9479 7.22444C51.8734 7.02731 51.8463 6.80016 51.8666 6.543C51.9088 6.07942 52.0938 5.73118 52.4215 5.49826C52.7553 5.2602 53.1822 5.16167 53.7021 5.20267L53.744 5.20597C54.3142 5.25094 54.7552 5.43759 55.0668 5.76593C55.3789 6.08868 55.5102 6.56312 55.4608 7.18926L54.8403 7.14032C54.8769 6.67631 54.7964 6.34089 54.599 6.13406C54.4071 5.92767 54.1071 5.80839 53.699 5.7762L53.6571 5.7729C52.9303 5.71559 52.5432 5.98882 52.4955 6.59259C52.4898 6.66527 52.4927 6.73581 52.5042 6.80422C52.5157 6.87263 52.5278 6.93265 52.5406 6.98429C52.5534 7.03593 52.5802 7.08867 52.6209 7.14251C52.6673 7.19679 52.7031 7.2418 52.7284 7.27755C52.7537 7.3133 52.7984 7.35338 52.8624 7.39781C52.932 7.44267 52.9827 7.47761 53.0144 7.50262C53.0467 7.52203 53.1034 7.55182 53.1846 7.59197C53.2714 7.63257 53.3283 7.65956 53.3554 7.67295C53.3881 7.68677 53.4506 7.71421 53.543 7.75524C53.6414 7.79113 53.7042 7.81577 53.7312 7.82915C54.2701 8.05728 54.6377 8.24659 54.834 8.39708C55.2579 8.72864 55.4484 9.16556 55.4057 9.70784C55.3669 10.1998 55.1662 10.5693 54.8035 10.8164C54.4413 11.0578 53.9723 11.1558 53.3965 11.1104L53.3546 11.1071Z" fill="currentColor"/>
<path d="M49.3815 10.9017L49.3742 10.0353L50.2406 10.0279L50.2479 10.8943L49.3815 10.9017Z" fill="currentColor"/>
<path d="M46.5226 11.1537C45.9141 11.2121 45.4199 11.1103 45.0398 10.8482C44.6648 10.5799 44.4473 10.1332 44.3872 9.50802L45.0069 9.44855C45.0513 9.91187 45.1915 10.228 45.4275 10.3969C45.6634 10.5658 46.0102 10.6283 46.468 10.5843L46.5098 10.5803C47.3527 10.4994 47.7428 10.1324 47.6802 9.47928C47.6689 9.36205 47.645 9.26012 47.6086 9.17348C47.5715 9.08127 47.5161 9.00209 47.4421 8.93595C47.3681 8.86981 47.2981 8.81456 47.2318 8.77022C47.1712 8.72534 47.0798 8.6834 46.9578 8.64441C46.8413 8.60489 46.7485 8.57718 46.6794 8.56128C46.6153 8.53926 46.5114 8.51262 46.3675 8.48136C46.2237 8.45009 46.1258 8.4285 46.074 8.41657C45.8203 8.35642 45.618 8.3026 45.467 8.25512C45.3154 8.20207 45.1385 8.12045 44.9364 8.01028C44.7343 7.9001 44.5767 7.75467 44.4636 7.57399C44.356 7.39276 44.29 7.17376 44.2653 6.91698C44.2264 6.45312 44.3482 6.07807 44.6305 5.79182C44.918 5.49945 45.3212 5.32835 45.8404 5.27853L45.8823 5.27451C46.4516 5.21986 46.9183 5.32718 47.2821 5.59647C47.6455 5.86018 47.8571 6.30464 47.9171 6.92985L47.2975 6.98932C47.253 6.526 47.1156 6.20962 46.8853 6.04018C46.6605 5.87021 46.3444 5.80478 45.9369 5.84389L45.895 5.84791C45.1694 5.91756 44.8354 6.25383 44.8933 6.85671C44.9003 6.92927 44.9153 6.99825 44.9385 7.06363C44.9617 7.12901 44.9841 7.18601 45.0056 7.23465C45.0272 7.28328 45.0627 7.33057 45.1122 7.37652C45.1673 7.42194 45.2104 7.46006 45.2415 7.49087C45.2726 7.52169 45.3235 7.55342 45.3943 7.58606C45.4706 7.61817 45.5266 7.64379 45.5622 7.6629C45.5973 7.67643 45.6583 7.69593 45.7453 7.72138C45.8378 7.7463 45.8986 7.76301 45.9276 7.77149C45.9621 7.77944 46.0285 7.79561 46.1266 7.81999C46.2297 7.83826 46.2958 7.85164 46.3248 7.86012C46.8951 7.99129 47.29 8.11395 47.5094 8.2281C47.9843 8.4811 48.2478 8.87833 48.2998 9.41981C48.3469 9.91104 48.2134 10.3098 47.8991 10.616C47.5843 10.9166 47.1394 11.0945 46.5645 11.1497L46.5226 11.1537Z" fill="currentColor"/>
<path d="M42.5196 6.36769L39.8165 6.96085L40.2419 8.8999L42.2632 8.45638L42.3876 9.02331L40.3663 9.46682L40.9216 11.9974L40.3136 12.1309L39.084 6.52734L42.3952 5.80076L42.5196 6.36769Z" fill="currentColor"/>
<path d="M35.7799 7.52896C36.8651 7.14956 37.5974 7.50246 37.9768 8.58767L37.9851 8.61149C38.3645 9.69669 38.0116 10.429 36.9264 10.8084L35.6559 11.2526L36.4027 13.3886L35.8151 13.594L33.9218 8.17857L35.7799 7.52896ZM37.3975 8.81692L37.3892 8.7931C37.2485 8.39078 37.0684 8.1389 36.8488 8.03746C36.6344 7.93418 36.342 7.94731 35.9714 8.07686L34.701 8.52103L35.4644 10.7047L36.7349 10.2605C37.1054 10.1309 37.3423 9.959 37.4456 9.74467C37.5542 9.52849 37.5382 9.21924 37.3975 8.81692Z" fill="currentColor"/>
<path d="M33.2165 14.7511L30.8119 9.54253L31.3771 9.28162L33.7816 14.4902L33.2165 14.7511Z" fill="currentColor"/>
<path d="M28.8442 15.0668C29.0793 15.475 29.3323 15.7176 29.6031 15.7945C29.874 15.8715 30.211 15.7938 30.6144 15.5615L30.6362 15.5489C31.0347 15.3194 31.2742 15.0779 31.3547 14.8244C31.4324 14.5661 31.3859 14.2888 31.2152 13.9923L31.1858 13.9413C31.0066 13.6303 30.8074 13.4474 30.5881 13.3925C30.366 13.3327 30.0995 13.3924 29.7885 13.5715L29.096 13.9704L28.8063 13.4675L29.3093 13.1778C29.6251 12.9958 29.8168 12.7948 29.8842 12.5748C29.9564 12.352 29.9086 12.0948 29.7407 11.8032L29.7071 11.7449C29.5559 11.4825 29.3578 11.3183 29.1127 11.2524C28.8697 11.1788 28.5952 11.2302 28.289 11.4065L28.2453 11.4317C27.8954 11.6332 27.6893 11.8652 27.6269 12.1277C27.5645 12.3901 27.6397 12.706 27.8524 13.0753L27.313 13.386C27.0275 12.8903 26.9424 12.4281 27.0578 11.9992C27.178 11.5675 27.4787 11.2132 27.9598 10.9361L28.0035 10.9109C28.4554 10.6506 28.8843 10.575 29.2902 10.6842C29.6982 10.7857 30.0127 11.0285 30.2339 11.4123L30.2758 11.4852C30.5809 12.0149 30.544 12.4957 30.165 12.9275L30.207 13.0004C30.8685 12.8006 31.377 13.0093 31.7325 13.6264L31.766 13.6847C32.0096 14.1075 32.067 14.5274 31.9384 14.9445C31.8097 15.3616 31.4733 15.7269 30.929 16.0404L30.8999 16.0572C30.3653 16.3651 29.8749 16.4631 29.4287 16.3513C28.9873 16.2366 28.6127 15.912 28.3048 15.3775L28.8442 15.0668Z" fill="currentColor"/>
<path d="M23.6127 21.1505L19.1069 17.4146L19.5914 17.0237L23.611 20.4385L23.6699 20.391L21.1429 15.7719L21.8761 15.1803L25.8631 18.6215L25.9154 18.5792L23.4277 13.9285L23.9122 13.5376L26.611 18.7314L25.8451 19.3494L22.0705 16.1044L22.0115 16.1519L24.3852 20.5272L23.6127 21.1505Z" fill="currentColor"/>
<path d="M19.7835 25.4377C19.4514 25.8471 19.0711 26.0621 18.6427 26.0828C18.2143 26.1036 17.7496 25.9108 17.2488 25.5045L16.9222 25.2395C16.417 24.8297 16.1326 24.4148 16.0689 23.9949C16.0008 23.5714 16.1328 23.155 16.4649 22.7456L16.4861 22.7194C17.175 21.8702 18.0182 21.8501 19.0155 22.6592L19.3421 22.9241C19.8473 23.334 20.1339 23.7506 20.2019 24.1741C20.2656 24.5941 20.1332 25.0065 19.8046 25.4116L19.7835 25.4377ZM19.3458 25.0826L19.367 25.0565C19.5895 24.7821 19.6693 24.5147 19.6063 24.2541C19.5468 23.9892 19.3298 23.7049 18.9552 23.401L18.6286 23.136C18.2541 22.8322 17.9311 22.6785 17.6596 22.6749C17.3916 22.6669 17.1464 22.8001 16.9238 23.0745L16.9026 23.1006C16.68 23.375 16.5985 23.6446 16.658 23.9095C16.7175 24.1744 16.9345 24.4588 17.309 24.7627L17.6357 25.0276C18.0102 25.3315 18.3332 25.4852 18.6047 25.4888C18.8762 25.4924 19.1232 25.357 19.3458 25.0826Z" fill="currentColor"/>
<path d="M12.8978 24.9063L13.3891 25.2153L12.5114 26.611L16.8764 29.356L16.545 29.883L12.18 27.1379L11.3023 28.5335L10.811 28.2246L12.8978 24.9063Z" fill="currentColor"/>
<path d="M12.9006 32.5879L11.8595 35.0975L11.9061 35.1168C12.362 35.3059 12.7195 35.3662 12.9786 35.2976C13.2347 35.2217 13.4326 35.0155 13.5723 34.6788L13.5949 34.6244C13.799 34.1323 13.7029 33.7494 13.3064 33.4756L13.545 32.9007C14.2575 33.3784 14.444 34.0265 14.1044 34.8449L14.0851 34.8915C13.8831 35.3784 13.5797 35.6927 13.1749 35.8344C12.77 35.9761 12.2698 35.9234 11.6741 35.6762L11.2856 35.5151C10.6847 35.2658 10.2941 34.9489 10.1136 34.5644C9.92792 34.1778 9.93609 33.741 10.1381 33.2541L10.151 33.223C10.57 32.2129 11.3726 31.9539 12.5588 32.446L12.9006 32.5879ZM10.6509 33.4668C10.5155 33.7931 10.5036 34.0705 10.6153 34.299C10.7291 34.5223 10.991 34.725 11.4011 34.9073L12.2102 32.9571C11.7915 32.7956 11.4618 32.7559 11.2213 32.8383C10.9828 32.9154 10.797 33.1146 10.6638 33.4357L10.6509 33.4668Z" fill="currentColor"/>
<path d="M11.56 42.5356L7.58976 41.4924L7.75476 40.8748L8.36427 41.0376L8.38598 40.9563C8.19242 40.8117 8.05848 40.6395 7.98416 40.4398C7.90586 40.2331 7.89711 40.016 7.9579 39.7884L7.96658 39.7559C8.10843 39.225 8.43547 38.9351 8.94773 38.8862L8.96944 38.8049C8.77733 38.6549 8.6443 38.4684 8.57034 38.2455C8.49639 38.0226 8.49198 37.7892 8.55711 37.5454L8.5658 37.5129C8.77856 36.7165 9.41047 36.4587 10.4615 36.7395L12.9321 37.3995L12.7714 38.0009L10.3253 37.3474C9.95685 37.249 9.6769 37.2322 9.48541 37.2971C9.29393 37.3621 9.1649 37.5192 9.09832 37.7684L9.08964 37.8009C8.92319 38.4239 9.22734 38.839 10.0021 39.0459L12.3264 39.6668L12.1657 40.2682L9.58138 39.5778C9.27256 39.4953 9.03054 39.4887 8.85531 39.558C8.68008 39.6273 8.5599 39.7838 8.49477 40.0276L8.48608 40.0601C8.41227 40.3364 8.44629 40.5893 8.58815 40.8188C8.73146 41.0428 9.00087 41.2076 9.39637 41.3133L11.7206 41.9342L11.56 42.5356Z" fill="currentColor"/>
<path d="M11.2764 45.3327C11.2119 45.8559 11.0034 46.2398 10.6512 46.4845C10.2989 46.7292 9.80274 46.8121 9.16269 46.7331L8.74527 46.6816C8.09965 46.6019 7.63852 46.4009 7.36187 46.0786C7.07966 45.7556 6.97083 45.3325 7.03539 44.8094L7.03951 44.776C7.17344 43.6907 7.87767 43.2267 9.15221 43.3839L9.56963 43.4354C10.2152 43.5151 10.6792 43.7165 10.9614 44.0394C11.238 44.3618 11.3444 44.7817 11.2805 45.2993L11.2764 45.3327ZM10.7171 45.2637L10.7212 45.2303C10.7645 44.8797 10.6903 44.6106 10.4987 44.4231C10.3078 44.23 9.97307 44.104 9.49442 44.0449L9.077 43.9934C8.59835 43.9343 8.24298 43.9752 8.01088 44.1161C7.77947 44.2514 7.64213 44.4944 7.59886 44.845L7.59474 44.8784C7.55147 45.229 7.62528 45.5009 7.81617 45.6939C8.00706 45.887 8.34183 46.0131 8.82047 46.0721L9.2379 46.1237C9.71654 46.1827 10.0719 46.1418 10.304 46.0009C10.5361 45.8601 10.6738 45.6143 10.7171 45.2637Z" fill="currentColor"/>
<path d="M10.9867 49.0972C10.9758 49.6242 10.8076 50.0274 10.4821 50.3067C10.1567 50.5804 9.67161 50.7106 9.02684 50.6972L8.60634 50.6885C7.95597 50.6751 7.47676 50.5221 7.1687 50.2297C6.85504 49.9371 6.70361 49.5301 6.7144 49.0087L6.71475 48.9919C6.72462 48.5153 6.86129 48.1451 7.12477 47.8814C7.38836 47.612 7.75867 47.471 8.2357 47.4584L8.22282 48.0808C7.60539 48.1017 7.29052 48.4092 7.27822 49.0036L7.27787 49.0204C7.27068 49.368 7.37467 49.6282 7.58985 49.8009C7.79942 49.9735 8.14249 50.0647 8.61905 50.0746L9.03955 50.0833C9.51612 50.0932 9.86547 50.0163 10.0876 49.8526C10.3041 49.6888 10.416 49.4331 10.4232 49.0855L10.4236 49.0687C10.4359 48.4744 10.134 48.154 9.51796 48.1076L9.53084 47.4853C10.0126 47.5177 10.3795 47.6739 10.6317 47.954C10.8783 48.2339 10.9968 48.6094 10.987 49.0803L10.9867 49.0972Z" fill="currentColor"/>
<path d="M10.98 52.9353L4.9335 53.2824L4.89783 52.661L10.9444 52.3138L10.98 52.9353Z" fill="currentColor"/>
<path d="M9.10373 54.3329L9.47045 57.0251L9.52046 57.0183C10.0094 56.9517 10.3485 56.8234 10.5377 56.6335C10.7206 56.4388 10.7875 56.1609 10.7383 55.7997L10.7303 55.7413C10.6584 55.2135 10.3823 54.9313 9.90188 54.8949L9.81787 54.2781C10.6741 54.3313 11.1619 54.7968 11.2815 55.6747L11.2883 55.7248C11.3595 56.2471 11.256 56.6715 10.9779 56.998C10.6998 57.3245 10.2412 57.5313 9.60221 57.6184L9.18547 57.6751C8.54091 57.7629 8.04374 57.6864 7.69397 57.4454C7.33865 57.2051 7.12541 56.8238 7.05426 56.3015L7.04972 56.2682C6.90212 55.1847 7.46455 54.5562 8.737 54.3829L9.10373 54.3329ZM7.60436 56.2266C7.65204 56.5766 7.7817 56.8222 7.99333 56.9631C8.2042 57.0985 8.53266 57.1415 8.9787 57.0921L8.69372 55C8.25071 55.0717 7.9461 55.2037 7.77988 55.3962C7.61291 55.5831 7.55289 55.8487 7.59982 56.1932L7.60436 56.2266Z" fill="currentColor"/>
<path d="M13.1708 63.6373L7.9934 66.3674L7.81803 65.7701L12.5125 63.366L12.4912 63.2933L7.25636 63.8573L6.99093 62.9533L11.6973 60.5895L11.6783 60.5249L6.42926 61.0405L6.25389 60.4432L12.0854 59.9408L12.3627 60.8851L7.9189 63.128L7.94023 63.2006L12.8912 62.6849L13.1708 63.6373Z" fill="currentColor"/>
<path d="M13.7569 70.0318L13.2416 70.2988L12.3324 68.5435L12.8478 68.2765L13.7569 70.0318Z" fill="currentColor"/>
<path d="M13.3898 75.2197L15.0293 77.4493L16.6286 76.2732L15.4028 74.6061L15.8704 74.2623L17.0962 75.9294L18.7159 74.7384L17.0764 72.5088L17.544 72.165L19.5523 74.8961L14.9304 78.2946L12.9222 75.5635L13.3898 75.2197Z" fill="currentColor"/>
<path d="M20.849 79.5544L20.4357 79.9619L19.2546 78.7639L21.2254 76.821L21.6447 77.2463L21.1355 77.7482L21.1946 77.8081C21.7196 77.5819 22.2223 77.7124 22.7026 78.1996L22.7262 78.2235C23.1081 78.6109 23.2895 79.0345 23.2704 79.4944C23.2512 79.9542 22.9941 80.4282 22.4989 80.9164L21.217 82.1802C20.7218 82.6684 20.2363 82.9108 19.7604 82.9074C19.2846 82.904 18.842 82.6947 18.4325 82.2793L18.403 82.2494C17.9935 81.8341 17.7905 81.3885 17.7939 80.9127C17.7973 80.4368 18.0466 79.9548 18.5418 79.4666L18.9788 79.9099C18.5994 80.2839 18.4027 80.6236 18.3886 80.9288C18.3705 81.238 18.5111 81.5443 18.8103 81.8478L18.8399 81.8778C19.1391 82.1813 19.4434 82.3262 19.7528 82.3125C20.0582 82.3028 20.4006 82.1109 20.78 81.7369L22.0619 80.4731C22.4373 80.1031 22.636 79.7654 22.658 79.4603C22.676 79.1511 22.5414 78.8507 22.254 78.5592L22.2244 78.5292C21.9252 78.2257 21.617 78.0768 21.2997 78.0825C20.9824 78.0882 20.6361 78.276 20.2607 78.6461L20.1049 78.7997L20.849 79.5544Z" fill="currentColor"/>
<path d="M26.1808 81.3473L25.5052 83.0548L27.014 84.1694L28.4542 83.0266L28.9955 83.4265L24.2946 87.0863L23.5233 86.5165L25.6531 80.9575L26.1808 81.3473ZM26.5474 84.5463L25.2889 83.6167L24.225 86.3028L24.2859 86.3478L26.5474 84.5463Z" fill="currentColor"/>
<path d="M28.5122 87.728C29.0045 86.7958 29.6981 86.5152 30.5929 86.8863L30.6126 86.8491L30.4411 84.2377L31.0585 84.5637L31.2291 87.2128L31.9729 87.6056L33.0296 85.6047L33.5801 85.8954L30.901 90.9683L29.2125 90.0765C28.2009 89.5423 27.9635 88.7669 28.5004 87.7503L28.5122 87.728ZM29.0434 88.0371C28.8444 88.414 28.7824 88.7174 28.8576 88.9473C28.9278 89.1747 29.1364 89.38 29.4835 89.5633L30.6216 90.1643L31.7019 88.1188L30.5638 87.5178C30.2167 87.3345 29.9295 87.2779 29.7022 87.3481C29.4699 87.4157 29.2542 87.6379 29.0552 88.0148L29.0434 88.0371Z" fill="currentColor"/>
<path d="M37.7855 87.431C38.3362 87.623 38.715 87.9333 38.9219 88.3618C39.1288 88.7903 39.1177 89.3329 38.8888 89.9895L38.296 91.6892C38.067 92.3458 37.7382 92.7775 37.3097 92.9844C36.8812 93.1913 36.3916 93.1987 35.8409 93.0067L35.8012 92.9928C35.2505 92.8008 34.8717 92.4905 34.6648 92.062C34.4579 91.6335 34.469 91.0909 34.698 90.4343L35.2908 88.7346C35.5197 88.078 35.8485 87.6463 36.277 87.4394C36.7055 87.2325 37.1951 87.2251 37.7458 87.4171L37.7855 87.431ZM37.5971 87.9711L37.5574 87.9572C37.155 87.8169 36.8189 87.8184 36.5491 87.9619C36.2775 88.1107 36.0539 88.4366 35.8785 88.9396L35.2802 90.6552C35.1066 91.1529 35.0808 91.5419 35.2029 91.822C35.3249 92.1021 35.5871 92.3124 35.9896 92.4527L36.0293 92.4666C36.4317 92.6069 36.7678 92.6054 37.0376 92.4619C37.3074 92.3184 37.5291 91.9978 37.7027 91.5001L38.301 89.7845C38.4764 89.2814 38.5041 88.8872 38.3839 88.6018C38.2618 88.3217 37.9996 88.1114 37.5971 87.9711Z" fill="currentColor"/>
<path d="M40.1041 94.147L40.2145 93.5772L41.8331 93.8907L42.8137 88.8284L43.4248 88.9468L42.4442 94.0091L44.0628 94.3226L43.9524 94.8924L40.1041 94.147Z" fill="currentColor"/>
<path d="M47.5861 89.3571C48.196 89.3968 48.6676 89.5765 49.0008 89.8961C49.3281 90.2209 49.4713 90.6966 49.4304 91.3234L48.8093 91.2829C48.8396 90.8184 48.7518 90.484 48.5459 90.2795C48.3401 90.075 48.0077 89.9578 47.5489 89.9279L47.5069 89.9251C46.6619 89.8701 46.2181 90.1699 46.1754 90.8246C46.1677 90.9421 46.175 91.0466 46.1971 91.1379C46.2189 91.2349 46.261 91.3219 46.3234 91.3991C46.3858 91.4762 46.4462 91.5419 46.5044 91.5963C46.5571 91.6503 46.6406 91.7063 46.7548 91.7644C46.8634 91.822 46.9506 91.8642 47.0163 91.891C47.076 91.923 47.1744 91.9659 47.3114 92.0198C47.4483 92.0737 47.5415 92.1107 47.5907 92.1307C47.8315 92.2307 48.0226 92.3162 48.1641 92.3873C48.3052 92.4639 48.4667 92.5728 48.6486 92.7139C48.8305 92.855 48.9628 93.0238 49.0455 93.2203C49.1226 93.4164 49.1528 93.6431 49.136 93.9005C49.1001 94.3646 48.9199 94.7154 48.5954 94.9527C48.2649 95.1953 47.8394 95.2996 47.319 95.2657L47.277 95.263C46.7062 95.2258 46.2628 95.0451 45.9467 94.7211C45.6303 94.4026 45.4925 93.93 45.5333 93.3032L46.1545 93.3437C46.1242 93.8082 46.2092 94.1425 46.4095 94.3466C46.6041 94.5504 46.9057 94.6656 47.3142 94.6922L47.3562 94.6949C48.0836 94.7423 48.4671 94.4639 48.5065 93.8595C48.5112 93.7868 48.5074 93.7163 48.495 93.648C48.4826 93.5798 48.4696 93.5199 48.4561 93.4685C48.4426 93.417 48.4151 93.3646 48.3736 93.3113C48.3265 93.2577 48.2901 93.2132 48.2643 93.1778C48.2385 93.1424 48.1933 93.1029 48.1287 93.0594C48.0585 93.0154 48.0074 92.9812 47.9752 92.9566C47.9428 92.9376 47.8856 92.9086 47.8039 92.8696C47.7165 92.8302 47.6592 92.804 47.632 92.7909C47.5992 92.7776 47.5363 92.751 47.4433 92.7112C47.3444 92.6767 47.2813 92.6529 47.2541 92.6399C46.7121 92.4191 46.342 92.2348 46.1437 92.087C45.7153 91.7612 45.5189 91.3269 45.5542 90.7841C45.5863 90.2917 45.782 89.9195 46.1412 89.6675C46.5001 89.4212 46.9677 89.3168 47.5441 89.3544L47.5861 89.3571Z" fill="currentColor"/>
<path d="M51.5605 89.5086L51.5797 90.3748L50.7135 90.3939L50.6943 89.5277L51.5605 89.5086Z" fill="currentColor"/>
<path d="M54.4182 89.2177C55.0258 89.1511 55.5214 89.2462 55.905 89.5031C56.2837 89.7662 56.5072 90.2099 56.5758 90.8342L55.957 90.9021C55.9062 90.4395 55.7617 90.1253 55.5235 89.9596C55.2853 89.7939 54.9377 89.7362 54.4806 89.7863L54.4388 89.7909C53.597 89.8833 53.212 90.2556 53.2835 90.9078C53.2964 91.0248 53.3216 91.1264 53.3593 91.2126C53.3976 91.3043 53.4541 91.3827 53.529 91.4478C53.6038 91.5129 53.6746 91.5672 53.7415 91.6107C53.8027 91.6547 53.8946 91.6954 54.0172 91.7327C54.1342 91.7707 54.2273 91.7971 54.2967 91.8121C54.3611 91.8332 54.4654 91.8584 54.6096 91.8877C54.7539 91.917 54.852 91.9373 54.904 91.9485C55.1585 92.0052 55.3615 92.0563 55.5132 92.1017C55.6655 92.1527 55.8434 92.2319 56.047 92.3393C56.2506 92.4467 56.4102 92.59 56.5257 92.7691C56.6357 92.9489 56.7048 93.1669 56.7329 93.4234C56.7781 93.8867 56.6615 94.2633 56.383 94.5534C56.0996 94.8496 55.6987 95.0262 55.1803 95.0831L55.1385 95.0877C54.5699 95.1501 54.1018 95.0491 53.7344 94.7848C53.3675 94.5261 53.1498 94.0845 53.0813 93.4602L53.7 93.3923C53.7508 93.855 53.8925 94.1694 54.1251 94.3357C54.3522 94.5026 54.6692 94.5638 55.0761 94.5191L55.1179 94.5145C55.8426 94.435 56.1719 94.0942 56.1058 93.4922C56.0979 93.4197 56.0818 93.351 56.0578 93.2859C56.0337 93.2208 56.0106 93.1641 55.9883 93.1158C55.9661 93.0675 55.93 93.0207 55.8799 92.9754C55.8242 92.9307 55.7806 92.8932 55.749 92.8628C55.7175 92.8324 55.6661 92.8014 55.595 92.7697C55.5182 92.7386 55.4619 92.7138 55.426 92.6952C55.3907 92.6821 55.3294 92.6634 55.2421 92.6392C55.1493 92.6155 55.0883 92.5996 55.0592 92.5916C55.0245 92.5841 54.958 92.5688 54.8595 92.5458C54.7562 92.5289 54.6899 92.5164 54.6608 92.5083C54.0888 92.3849 53.6923 92.2677 53.4713 92.1565C52.993 91.91 52.7241 91.5164 52.6648 90.9757C52.6109 90.4851 52.7391 90.0846 53.0491 89.7742C53.3598 89.4693 53.8022 89.2853 54.3764 89.2223L54.4182 89.2177Z" fill="currentColor"/>
<path d="M58.4847 93.9485L61.1795 93.3186L60.7277 91.3855L58.7127 91.8565L58.5806 91.2913L60.5956 90.8203L60.0059 88.2975L60.612 88.1558L61.9177 93.7421L58.6168 94.5137L58.4847 93.9485Z" fill="currentColor"/>
<path d="M65.2079 92.6966C64.1279 93.0907 63.3909 92.7478 62.9968 91.6679L62.9881 91.6442C62.594 90.5642 62.9369 89.8272 64.0168 89.4331L65.2812 88.9717L64.5054 86.846L65.0901 86.6326L67.0569 92.0218L65.2079 92.6966ZM63.5729 91.4308L63.5815 91.4545C63.7276 91.8548 63.9112 92.1042 64.1322 92.2027C64.3479 92.3031 64.6401 92.2859 65.0089 92.1514L66.2732 91.6899L65.4801 89.5169L64.2158 89.9783C63.8471 90.1129 63.6125 90.288 63.5121 90.5038C63.4065 90.7214 63.4268 91.0304 63.5729 91.4308Z" fill="currentColor"/>
<path d="M67.6723 85.4403L70.1475 90.6157L69.5859 90.8843L67.1107 85.7089L67.6723 85.4403Z" fill="currentColor"/>
<path d="M72.04 85.0638C71.7994 84.6589 71.5431 84.4198 71.2713 84.3465C70.9994 84.2732 70.6634 84.3555 70.2633 84.5933L70.2416 84.6061C69.8463 84.8411 69.6101 85.0858 69.533 85.3403C69.4588 85.5997 69.5091 85.8764 69.6839 86.1705L69.714 86.2211C69.8973 86.5296 70.099 86.7098 70.319 86.7618C70.5419 86.8185 70.8076 86.7552 71.1162 86.5718L71.8031 86.1636L72.0996 86.6625L71.6007 86.959C71.2873 87.1453 71.0985 87.3488 71.034 87.5698C70.9648 87.7936 71.0161 88.0501 71.188 88.3393L71.2224 88.3972C71.3771 88.6575 71.5774 88.819 71.8234 88.8815C72.0674 88.9518 72.3412 88.8967 72.6449 88.7162L72.6883 88.6904C73.0354 88.4842 73.2384 88.2494 73.2972 87.9861C73.356 87.7229 73.2766 87.408 73.0588 87.0417L73.594 86.7237C73.8862 87.2154 73.9775 87.6764 73.868 88.1068C73.7536 88.5401 73.4578 88.8986 72.9806 89.1822L72.9372 89.208C72.4888 89.4744 72.061 89.5558 71.6536 89.4521C71.2443 89.3561 70.9265 89.1177 70.7002 88.7369L70.6572 88.6646C70.345 88.1391 70.3754 87.6579 70.7484 87.2209L70.7055 87.1486C70.0467 87.3574 69.5355 87.1556 69.1716 86.5434L69.1372 86.4855C68.888 86.0661 68.8249 85.647 68.9478 85.2282C69.0708 84.8094 69.4022 84.4396 69.9421 84.1187L69.9711 84.1015C70.5013 83.7864 70.9904 83.6817 71.4381 83.7875C71.881 83.8961 72.26 84.2155 72.5752 84.7458L72.04 85.0638Z" fill="currentColor"/>
<path d="M77.1893 78.9105L81.7454 82.5848L81.2663 82.9822L77.2006 79.6225L77.1423 79.6708L79.732 84.255L79.0068 84.8565L74.9735 81.4699L74.9217 81.5129L77.4725 86.1294L76.9934 86.5268L74.2241 81.3702L74.9816 80.7419L78.8 83.9352L78.8582 83.8869L76.4253 79.5442L77.1893 78.9105Z" fill="currentColor"/>
<path d="M80.9581 74.572C81.2846 74.1581 81.6619 73.9379 82.09 73.9114C82.5181 73.8848 82.9853 74.0713 83.4916 74.4707L83.8218 74.7312C84.3325 75.1341 84.6226 75.5451 84.692 75.9641C84.7658 76.3867 84.6394 76.8049 84.3129 77.2187L84.2921 77.2451C83.6148 78.1036 82.772 78.1352 81.7638 77.3398L81.4336 77.0793C80.9229 76.6764 80.6306 76.2637 80.5568 75.8412C80.4874 75.4221 80.6142 75.0079 80.9372 74.5984L80.9581 74.572ZM81.4006 74.9211L81.3797 74.9475C81.1609 75.2249 81.0848 75.4934 81.1513 75.753C81.2144 76.0171 81.4353 76.2985 81.8139 76.5972L82.1442 76.8577C82.5228 77.1564 82.8479 77.3057 83.1194 77.3056C83.3874 77.3099 83.6308 77.1734 83.8496 76.896L83.8705 76.8696C84.0893 76.5923 84.1672 76.3215 84.1041 76.0575C84.041 75.7934 83.8201 75.512 83.4415 75.2133L83.1113 74.9528C82.7326 74.6541 82.4076 74.5048 82.1361 74.5049C81.8645 74.505 81.6194 74.6437 81.4006 74.9211Z" fill="currentColor"/>
<path d="M87.8525 75.0088L87.3571 74.7066L88.2157 73.2991L83.8137 70.6137L84.1379 70.0823L88.5399 72.7677L89.3985 71.3602L89.894 71.6625L87.8525 75.0088Z" fill="currentColor"/>
<path d="M87.7435 67.3277L88.7504 64.8042L88.7035 64.7855C88.2452 64.6026 87.8869 64.5472 87.6287 64.6193C87.3737 64.6986 87.1786 64.9076 87.0435 65.2461L87.0217 65.3008C86.8243 65.7957 86.9256 66.1772 87.3257 66.4455L87.095 67.0237C86.3761 66.5557 86.1808 65.9102 86.5091 65.0873L86.5278 65.0404C86.7232 64.5508 87.0223 64.2324 87.4252 64.0852C87.8281 63.938 88.329 63.9839 88.928 64.2229L89.3186 64.3788C89.9228 64.6199 90.3178 64.9314 90.5035 65.3134C90.6944 65.6975 90.6921 66.1344 90.4968 66.624L90.4843 66.6552C90.0791 67.6709 89.2801 67.9408 88.0873 67.4649L87.7435 67.3277ZM89.9811 66.4182C90.1121 66.0901 90.1202 65.8126 90.0054 65.5856C89.8886 65.3639 89.6239 65.1648 89.2114 64.9881L88.4289 66.9491C88.8498 67.1049 89.1799 67.1401 89.4194 67.0545C89.6567 66.9741 89.8398 66.7724 89.9687 66.4495L89.9811 66.4182Z" fill="currentColor"/>
<path d="M88.9494 57.3642L92.9334 58.3533L92.7769 58.9731L92.1652 58.8186L92.1446 58.9001C92.3401 59.0421 92.4764 59.2124 92.5534 59.4112C92.6345 59.6168 92.6462 59.8337 92.5885 60.0621L92.5803 60.0947C92.4457 60.6275 92.1226 60.9219 91.6111 60.9778L91.5905 61.0593C91.7846 61.2067 91.9202 61.3913 91.9971 61.6132C92.0741 61.8351 92.0817 62.0684 92.0199 62.313L92.0116 62.3457C91.8097 63.1449 91.1814 63.4113 90.1266 63.1448L87.6473 62.5185L87.7998 61.915L90.2546 62.5351C90.6243 62.6285 90.9045 62.6415 91.0951 62.5739C91.2856 62.5064 91.4125 62.3476 91.4757 62.0975L91.4839 62.0649C91.6419 61.4396 91.3321 61.0288 90.5546 60.8323L88.2221 60.2431L88.3746 59.6396L90.9681 60.2948C91.278 60.373 91.5201 60.3764 91.6943 60.3047C91.8686 60.2331 91.9866 60.0749 92.0485 59.8302L92.0567 59.7976C92.1267 59.5203 92.0893 59.2679 91.9443 59.0404C91.798 58.8184 91.5263 58.6572 91.1294 58.5569L88.7969 57.9677L88.9494 57.3642Z" fill="currentColor"/>
<path d="M89.1954 54.5627C89.2528 54.0387 89.456 53.652 89.8049 53.4025C90.1538 53.153 90.6488 53.0634 91.2899 53.1337L91.7079 53.1795C92.3546 53.2504 92.8184 53.4451 93.0994 53.7636C93.386 54.0827 93.5006 54.5043 93.4431 55.0283L93.4395 55.0617C93.3203 56.1488 92.6225 56.6223 91.3459 56.4824L90.9278 56.4366C90.2812 56.3657 89.8146 56.1707 89.528 55.8516C89.247 55.533 89.1349 55.1146 89.1917 54.5961L89.1954 54.5627ZM89.7556 54.6241L89.7519 54.6575C89.7135 55.0087 89.7913 55.2768 89.9854 55.4617C90.1789 55.6521 90.5153 55.7736 90.9947 55.8262L91.4128 55.872C91.8922 55.9245 92.247 55.8788 92.4772 55.7348C92.7067 55.5963 92.8407 55.3515 92.8792 55.0003L92.8829 54.9669C92.9214 54.6157 92.8439 54.3449 92.6504 54.1544C92.4569 53.964 92.1204 53.8425 91.641 53.7899L91.2229 53.7441C90.7435 53.6915 90.3888 53.7373 90.1586 53.8813C89.9284 54.0253 89.7941 54.2729 89.7556 54.6241Z" fill="currentColor"/>
<path d="M89.4339 50.7945C89.4376 50.2674 89.6003 49.8619 89.922 49.5782C90.2436 49.3001 90.7269 49.1633 91.3718 49.1679L91.7924 49.1709C92.4429 49.1755 92.9241 49.3219 93.2361 49.6101C93.5537 49.8984 93.7107 50.3033 93.707 50.8248L93.7069 50.8416C93.7035 51.3183 93.5719 51.6903 93.312 51.9576C93.0521 52.2306 92.6837 52.3766 92.2069 52.3956L92.2113 51.7732C92.8284 51.7439 93.1391 51.432 93.1433 50.8376L93.1434 50.8208C93.1459 50.4731 93.0383 50.2144 92.8208 50.0446C92.6089 49.8749 92.2647 49.7883 91.788 49.7849L91.3674 49.7819C90.8908 49.7786 90.5425 49.8602 90.3226 50.0269C90.1083 50.1936 89.9999 50.4508 89.9975 50.7985L89.9974 50.8153C89.9931 51.4097 90.2993 51.726 90.9159 51.764L90.9115 52.3864C90.4294 52.3606 90.0604 52.2094 89.8044 51.9327C89.554 51.6562 89.4304 51.2824 89.4338 50.8113L89.4339 50.7945Z" fill="currentColor"/>
<path d="M89.388 46.9564L95.4292 46.5271L95.4734 47.148L89.4321 47.5773L89.388 46.9564Z" fill="currentColor"/>
<path d="M91.251 45.5334L90.8476 42.8465L90.7977 42.854C90.3097 42.9272 89.9724 43.0601 89.7858 43.2526C89.6056 43.4497 89.5425 43.7285 89.5966 44.089L89.6054 44.1473C89.6845 44.6741 89.9644 44.9525 90.4452 44.9824L90.5376 45.5979C89.6808 45.5564 89.1866 45.0976 89.0551 44.2213L89.0476 44.1714C88.9693 43.6501 89.0671 43.2243 89.3407 42.8941C89.6144 42.5638 90.0701 42.3508 90.7078 42.255L91.1238 42.1926C91.7671 42.096 92.2652 42.1659 92.6182 42.4021C92.9768 42.6375 93.1952 43.0158 93.2734 43.5371L93.2784 43.5704C93.4408 44.6518 92.8869 45.2878 91.617 45.4785L91.251 45.5334ZM92.7244 43.6195C92.672 43.2701 92.539 43.0264 92.3255 42.8883C92.1128 42.7558 91.7838 42.7173 91.3384 42.7728L91.6518 44.8608C92.0938 44.7831 92.3966 44.6469 92.5602 44.4522C92.7246 44.2631 92.781 43.9966 92.7294 43.6528L92.7244 43.6195Z" fill="currentColor"/>
<path d="M87.0523 36.2852L92.1921 33.4849L92.3755 34.0797L87.7142 36.5475L87.7365 36.6199L92.9632 35.9847L93.2409 36.885L88.5672 39.3126L88.587 39.3769L93.8285 38.79L94.012 39.3848L88.1879 39.9666L87.8978 39.0262L92.3106 36.723L92.2883 36.6507L87.3449 37.2337L87.0523 36.2852Z" fill="currentColor"/>
<path d="M31.0938 49.7663C41.551 49.7663 50.0284 39.2137 50.0284 26.1963C50.0284 39.2137 58.5057 49.7663 68.963 49.7663C58.5057 49.7663 50.0284 60.319 50.0284 73.3364C50.0284 60.319 41.551 49.7663 31.0938 49.7663Z" fill="currentColor"/>
</svg>
