<svg width="54" height="54" viewBox="0 0 54 54" fill="none" xmlns="http://www.w3.org/2000/svg">
<path d="M25.5438 50.4025L25.5585 50.0736L26.6787 50.1239L26.6639 50.4528L25.5438 50.4025Z" fill="#F2F2F2"/>
<path d="M21.2371 50.9869L21.941 47.6243L22.2866 47.6968L21.9845 49.1399L22.0265 49.1487C22.1086 49.0359 22.2132 48.9554 22.3403 48.9073C22.4711 48.8567 22.6082 48.8465 22.7514 48.8765L22.7701 48.8804C23.2402 48.9789 23.412 49.3302 23.2855 49.9342L22.9883 51.354L22.6427 51.2815L22.937 49.8758C22.9807 49.6672 22.9765 49.5087 22.9245 49.4003C22.8762 49.2894 22.7773 49.2183 22.6279 49.187L22.6092 49.1831C22.4349 49.1465 22.2784 49.1722 22.1397 49.2601C22.0017 49.345 21.9092 49.4995 21.8623 49.7236L21.5827 51.0593L21.2371 50.9869Z" fill="#F2F2F2"/>
<path d="M20.2672 50.3877L20.7867 50.5489L20.6921 50.8543L20.2455 50.7156C20.0754 50.6628 19.9603 50.5721 19.9002 50.4436C19.8432 50.316 19.8406 50.1686 19.8924 50.0015L20.3163 48.6343L19.8697 48.4956L19.9644 48.1903L20.411 48.3289L20.5791 47.7866L20.9202 47.8625L20.7436 48.4322L21.3451 48.6189L21.2505 48.9243L20.649 48.7375L20.1883 50.2233C20.1619 50.3083 20.1883 50.3631 20.2672 50.3877Z" fill="#F2F2F2"/>
<path d="M17.476 49.7821L17.4584 49.7747C17.2441 49.6853 17.1064 49.5278 17.0453 49.3024C16.9842 49.077 17.0227 48.7984 17.161 48.4666L17.2528 48.2464C17.3911 47.9146 17.5618 47.6911 17.7649 47.576C17.968 47.4608 18.1767 47.448 18.3909 47.5374L18.4086 47.5447C18.5524 47.6048 18.6625 47.6921 18.7388 47.8067C18.8193 47.9195 18.8608 48.0472 18.8635 48.1896L18.9075 48.208L19.4766 46.8427L19.8068 46.9805L18.4851 50.1515L18.1637 50.0174L18.3124 49.6606L18.2683 49.6422C18.1629 49.7464 18.0411 49.8111 17.9032 49.8363C17.7652 49.8614 17.6228 49.8433 17.476 49.7821ZM17.7084 49.5223C17.8727 49.5909 18.0302 49.5894 18.1806 49.5178C18.3311 49.4461 18.4553 49.2929 18.5532 49.058L18.6523 48.8202C18.7503 48.5853 18.7717 48.3891 18.7167 48.2317C18.6617 48.0743 18.552 47.9613 18.3876 47.8927L18.37 47.8854C18.0382 47.7469 17.7745 47.9126 17.5787 48.3824L17.4869 48.6026C17.2911 49.0724 17.359 49.3765 17.6907 49.5149L17.7084 49.5223Z" fill="#F2F2F2"/>
<path d="M16.5838 46.0411L16.7923 45.6494L17.1881 45.8604L16.9796 46.2521L16.5838 46.0411ZM15.2469 48.6538L16.3411 46.5984L16.6527 46.7645L15.5585 48.8199L15.2469 48.6538Z" fill="#F2F2F2"/>
<path d="M12.1895 46.6943L13.0086 44.4251L13.2899 44.6222L12.5674 46.5454L12.6026 46.57L14.1536 45.2272L14.4701 45.449L13.7359 47.364L13.771 47.3886L15.3416 46.0595L15.6151 46.2512L13.7722 47.8031L13.3502 47.5074L14.0328 45.766L13.9977 45.7414L12.5999 46.9818L12.1895 46.6943Z" fill="#F2F2F2"/>
<path d="M10.0055 44.8752L9.99168 44.862C9.82327 44.7021 9.75063 44.506 9.77376 44.2735C9.79688 44.0411 9.9321 43.7945 10.1794 43.5336L10.3436 43.3605C10.5909 43.0996 10.8299 42.9516 11.0607 42.9162C11.2914 42.8809 11.491 42.9432 11.6594 43.103L11.6732 43.1162C11.7863 43.2235 11.8581 43.3443 11.8886 43.4785C11.9236 43.6127 11.917 43.7467 11.8688 43.8808L11.9034 43.9137L12.9211 42.8403L13.1806 43.0867L10.8169 45.5797L10.5643 45.3399L10.8302 45.0594L10.7956 45.0266C10.66 45.0864 10.5232 45.1035 10.3854 45.0779C10.2475 45.0522 10.1209 44.9847 10.0055 44.8752ZM10.3151 44.7151C10.4443 44.8377 10.5919 44.8924 10.758 44.879C10.9241 44.8656 11.0947 44.7666 11.2698 44.5819L11.4471 44.395C11.6222 44.2103 11.712 44.0346 11.7166 43.8679C11.7212 43.7013 11.659 43.5566 11.5298 43.4339L11.5159 43.4208C11.2552 43.1733 10.9498 43.2342 10.5996 43.6036L10.4355 43.7767C10.0853 44.1461 10.0406 44.4545 10.3012 44.7019L10.3151 44.7151Z" fill="#F2F2F2"/>
<path d="M7.56032 42.1071L9.35506 40.6237L9.57983 40.896L9.29665 41.13L9.32398 41.1631C9.45851 41.1262 9.59042 41.1286 9.71971 41.1703C9.85348 41.2125 9.96694 41.2899 10.0601 41.4028L10.0722 41.4175C10.378 41.7879 10.2931 42.1697 9.81742 42.5629L8.69939 43.487L8.47461 43.2147L9.58161 42.2997C9.74589 42.1639 9.84151 42.0374 9.86849 41.9202C9.89995 41.8034 9.86708 41.6861 9.76987 41.5684L9.75772 41.5537C9.64432 41.4163 9.50603 41.3387 9.34284 41.3209C9.1821 41.3011 9.01346 41.3641 8.83693 41.51L7.7851 42.3794L7.56032 42.1071Z" fill="#F2F2F2"/>
<path d="M7.26515 41.1943L7.45995 41.4945L7.19189 41.6686L6.82565 41.1043L7.11014 40.8853L7.08416 40.8453C6.78991 40.8885 6.54235 40.7554 6.34148 40.4459L6.33109 40.4299C6.22719 40.2698 6.17942 40.0997 6.18779 39.9198C6.20055 39.7408 6.29096 39.5967 6.459 39.4875L6.483 39.4719C6.64571 39.3662 6.80736 39.3465 6.96797 39.4128C7.13125 39.4774 7.30595 39.6181 7.49207 39.8348L7.93033 40.3523L8.03035 40.2873C8.3611 40.0724 8.43469 39.8235 8.25114 39.5407L8.24075 39.5247C8.0572 39.2418 7.82113 39.179 7.53254 39.3362L7.33254 39.028C7.55458 38.9027 7.76977 38.8691 7.97812 38.9271C8.18646 38.9852 8.36509 39.129 8.51401 39.3585L8.5218 39.3705C8.67592 39.608 8.72439 39.8288 8.66721 40.0328C8.61004 40.2369 8.45609 40.4204 8.20537 40.5833L7.26515 41.1943ZM6.63151 40.3143C6.89992 40.7279 7.24884 40.7952 7.67827 40.5161L7.69027 40.5083L7.28459 40.0322C7.15589 39.8806 7.04329 39.7831 6.94679 39.7396C6.8503 39.696 6.75937 39.702 6.67402 39.7575L6.65001 39.7731C6.56733 39.8268 6.52323 39.8991 6.51771 39.9899C6.51392 40.0834 6.5484 40.1862 6.62112 40.2983L6.63151 40.3143Z" fill="#F2F2F2"/>
<path d="M5.08216 38.2667C4.93635 37.9733 4.96542 37.7066 5.16936 37.4665L5.14813 37.4238L4.80211 37.596L4.6471 37.2841L7.72279 35.7536L7.87992 36.0698L6.55567 36.7287L6.5769 36.7714C6.71915 36.7646 6.84921 36.7976 6.96709 36.8704C7.08782 36.9418 7.18286 37.0473 7.25223 37.1869L7.26072 37.204C7.36406 37.4119 7.365 37.6211 7.26353 37.8314C7.16205 38.0418 6.95041 38.2271 6.62861 38.3872L6.41502 38.4935C6.09321 38.6536 5.81716 38.7093 5.58686 38.6604C5.35798 38.6144 5.19187 38.4875 5.08853 38.2795L5.08216 38.2667ZM5.32595 38.0175L5.33444 38.0346C5.493 38.3536 5.8001 38.3998 6.25576 38.173L6.46935 38.0668C6.925 37.84 7.07356 37.5671 6.91501 37.2481L6.90651 37.231C6.82582 37.0686 6.70517 36.9652 6.54456 36.9208C6.38394 36.8764 6.18972 36.9108 5.96189 37.0242L5.73121 37.139C5.50339 37.2523 5.35871 37.3865 5.29719 37.5415C5.23567 37.6964 5.24526 37.8551 5.32595 38.0175Z" fill="#F2F2F2"/>
<path d="M3.3076 33.7435L3.30234 33.7252C3.2383 33.502 3.2752 33.2961 3.41305 33.1076C3.5509 32.919 3.79256 32.7751 4.13804 32.6759L4.36734 32.61C4.71281 32.5108 4.99395 32.5045 5.21075 32.5911C5.42755 32.6778 5.56797 32.8327 5.632 33.0559L5.63727 33.0743C5.68025 33.2241 5.68085 33.3646 5.63905 33.4957C5.60119 33.6291 5.52748 33.7412 5.41792 33.8323L5.43108 33.8782L6.85273 33.4697L6.95142 33.8137L3.64952 34.7623L3.55347 34.4275L3.92493 34.3208L3.91177 34.2749C3.76452 34.2576 3.63797 34.203 3.53214 34.1109C3.42631 34.0189 3.35146 33.8964 3.3076 33.7435ZM3.65561 33.7627C3.70474 33.9339 3.80427 34.0559 3.95421 34.1287C4.10414 34.2014 4.30141 34.2027 4.54599 34.1324L4.79363 34.0613C5.03822 33.991 5.20477 33.8852 5.29331 33.744C5.38184 33.6027 5.40154 33.4465 5.35242 33.2752L5.34715 33.2569C5.24803 32.9114 4.95388 32.8089 4.46471 32.9494L4.23541 33.0153C3.74624 33.1558 3.55122 33.3988 3.65035 33.7443L3.65561 33.7627Z" fill="#F2F2F2"/>
<path d="M2.60544 30.1174L4.90476 29.7502L4.96038 30.0989L4.59757 30.1568L4.60434 30.1992C4.739 30.2357 4.85148 30.3047 4.94176 30.4063C5.03569 30.5104 5.09418 30.6348 5.11723 30.7793L5.12023 30.7981C5.1959 31.2725 4.92904 31.5583 4.31965 31.6556L2.88729 31.8844L2.83167 31.5357L4.2499 31.3092C4.46036 31.2756 4.60694 31.2151 4.68965 31.1278C4.776 31.0432 4.80715 30.9254 4.7831 30.7747L4.78009 30.7558C4.75203 30.5799 4.67219 30.4429 4.54057 30.3447C4.41209 30.246 4.23477 30.2148 4.00861 30.2509L2.66106 30.4661L2.60544 30.1174Z" fill="#F2F2F2"/>
<path d="M2.81312 29.1798L2.82878 29.5373L2.5094 29.5514L2.47995 28.8792L2.83622 28.8349L2.83413 28.7873C2.55857 28.6752 2.41272 28.4348 2.39657 28.0662L2.39574 28.0471C2.38738 27.8564 2.43244 27.6857 2.5309 27.5349C2.63269 27.3872 2.78368 27.3089 2.98389 27.3001L3.01249 27.2989C3.20634 27.2904 3.35566 27.3555 3.46044 27.4941C3.5684 27.6327 3.64764 27.8425 3.69817 28.1237L3.81342 28.7921L3.93259 28.7868C4.32665 28.7696 4.5163 28.5925 4.50154 28.2556L4.50071 28.2366C4.48595 27.8997 4.31435 27.7257 3.98591 27.7147L3.96983 27.3476C4.22476 27.3524 4.42728 27.4326 4.57739 27.5884C4.72749 27.7442 4.80853 27.9588 4.82051 28.2321L4.82113 28.2464C4.83353 28.5292 4.76334 28.744 4.61057 28.8908C4.4578 29.0376 4.23205 29.1176 3.93333 29.1307L2.81312 29.1798ZM2.71327 28.1C2.73485 28.5926 3.00147 28.8277 3.51311 28.8052L3.52741 28.8046L3.41922 28.1885C3.38517 27.9926 3.33759 27.8514 3.27649 27.7649C3.21539 27.6784 3.13399 27.6374 3.0323 27.6419L3.00369 27.6431C2.90518 27.6475 2.83051 27.6874 2.77969 27.7628C2.72901 27.8415 2.70659 27.9475 2.71244 28.081L2.71327 28.1Z" fill="#F2F2F2"/>
<path d="M3.53797 25.2066L3.72915 23.6773L3.70075 23.6738C3.42299 23.639 3.21842 23.6599 3.08703 23.7364C2.95841 23.8165 2.88128 23.9591 2.85563 24.1643L2.85148 24.1974C2.814 24.4973 2.92427 24.6922 3.1823 24.7822L3.1385 25.1326C2.67688 24.9786 2.47725 24.6523 2.5396 24.1536L2.54315 24.1252C2.58024 23.8285 2.69881 23.6109 2.89884 23.4724C3.09888 23.334 3.38039 23.2875 3.74336 23.3329L3.98009 23.3625C4.34622 23.4084 4.6076 23.5228 4.76423 23.7059C4.92402 23.8894 4.98537 24.1295 4.94827 24.4262L4.94591 24.4452C4.86896 25.0607 4.46909 25.3232 3.74629 25.2327L3.53797 25.2066ZM4.6358 24.3871C4.66066 24.1883 4.62535 24.0348 4.52987 23.9266C4.434 23.8217 4.26021 23.7502 4.00849 23.7123L3.85992 24.9007C4.11322 24.926 4.29944 24.898 4.41859 24.8167C4.53735 24.7386 4.60896 24.6017 4.63343 24.4061L4.6358 24.3871Z" fill="#F2F2F2"/>
<path d="M2.37582 20.3115L2.68642 20.3872L2.40994 21.523C2.38963 21.6064 2.42274 21.6587 2.50927 21.6798L3.34834 21.8843L3.35962 21.8379C3.24337 21.7507 3.1609 21.6389 3.11223 21.5026C3.06589 21.3702 3.06115 21.2283 3.09802 21.0768L3.10253 21.0583C3.15745 20.8326 3.29146 20.6721 3.50457 20.5767C3.71767 20.4813 3.99883 20.4762 4.34806 20.5613L4.57985 20.6178C4.92907 20.7029 5.17638 20.8369 5.32177 21.0197C5.46642 21.2055 5.51165 21.4097 5.45749 21.6322L5.45297 21.6508C5.41686 21.7991 5.3478 21.9215 5.24579 22.0177C5.14688 22.1148 5.02729 22.1757 4.88704 22.2004L4.87575 22.2468L5.23734 22.3349L5.1527 22.6826L2.54742 22.0476C2.37744 22.0062 2.25275 21.9267 2.17333 21.8091C2.09391 21.6915 2.07527 21.5462 2.1174 21.3731L2.37582 20.3115ZM3.39531 21.2475L3.3908 21.266C3.34942 21.436 3.37583 21.5898 3.47003 21.7273C3.56347 21.868 3.73382 21.9684 3.98106 22.0287L4.23139 22.0897C4.47863 22.15 4.67605 22.1392 4.82366 22.0573C4.97052 21.9785 5.06464 21.8541 5.10602 21.6841L5.11054 21.6655C5.19555 21.3163 4.99082 21.0814 4.49634 20.9609L4.26455 20.9044C3.77007 20.7839 3.48033 20.8982 3.39531 21.2475Z" fill="#F2F2F2"/>
<path d="M3.86524 19.6229L3.74147 19.9586L3.44156 19.8479L3.67426 19.2167L4.01988 19.3137L4.03638 19.269C3.82564 19.0589 3.78408 18.7808 3.91171 18.4346L3.91831 18.4167C3.98432 18.2376 4.09187 18.0976 4.24096 17.9967C4.39193 17.8998 4.56142 17.8861 4.74942 17.9555L4.77628 17.9654C4.95831 18.0326 5.07083 18.1504 5.11383 18.3188C5.15981 18.4884 5.15175 18.7126 5.08964 18.9915L4.93751 19.6524L5.04941 19.6937C5.41945 19.8303 5.66278 19.7404 5.77941 19.4241L5.78601 19.4062C5.90263 19.0898 5.81166 18.8629 5.5131 18.7256L5.64017 18.3809C5.8734 18.4839 6.02911 18.6363 6.10728 18.8381C6.18546 19.0399 6.17724 19.2691 6.08262 19.5258L6.07766 19.5393C5.97974 19.8049 5.83197 19.9758 5.63436 20.0521C5.43674 20.1283 5.19767 20.1147 4.91716 20.0111L3.86524 19.6229ZM4.19064 18.5884C4.0201 19.051 4.17506 19.371 4.65551 19.5484L4.66893 19.5533L4.80738 18.9432C4.85173 18.7494 4.86244 18.6007 4.83953 18.4973C4.81663 18.3939 4.75743 18.3246 4.66193 18.2894L4.63507 18.2795C4.54257 18.2453 4.45829 18.2532 4.38226 18.3031C4.30512 18.356 4.24345 18.4452 4.19724 18.5705L4.19064 18.5884Z" fill="#F2F2F2"/>
<path d="M5.02198 15.9842L7.12081 16.9925L6.96808 17.3108L6.78314 17.222L6.76457 17.2607C6.85346 17.3916 6.858 17.5402 6.7782 17.7066L6.62133 18.0335L6.33317 17.8951L6.59943 17.3401C6.62832 17.2799 6.63462 17.23 6.61834 17.1904C6.60491 17.1522 6.56523 17.1173 6.49928 17.0856L4.86924 16.3025L5.02198 15.9842Z" fill="#F2F2F2"/>
<path d="M5.97541 14.1683C6.13128 13.9131 6.32883 13.7636 6.56807 13.7198C6.80731 13.6759 7.08297 13.7494 7.39504 13.9403L7.59857 14.0648C7.91335 14.2573 8.10445 14.4693 8.17185 14.7006C8.24197 14.9337 8.1991 15.1778 8.04324 15.433L8.03329 15.4493C7.70996 15.9786 7.23758 16.0533 6.61615 15.6732L6.41262 15.5487C6.09784 15.3562 5.90538 15.1434 5.83527 14.9104C5.76786 14.679 5.81126 14.4371 5.96547 14.1846L5.97541 14.1683ZM6.24814 14.3351L6.23819 14.3514C6.13373 14.5224 6.10902 14.6788 6.16405 14.8206C6.21743 14.9651 6.36081 15.1087 6.59418 15.2515L6.79771 15.3759C7.03109 15.5187 7.2242 15.5809 7.37707 15.5625C7.52827 15.5468 7.6561 15.4535 7.76056 15.2825L7.77051 15.2662C7.87497 15.0952 7.90051 14.9374 7.84714 14.7929C7.79376 14.6484 7.65038 14.5048 7.41701 14.362L7.21348 14.2376C6.9801 14.0948 6.78698 14.0326 6.63412 14.051C6.48126 14.0694 6.3526 14.1641 6.24814 14.3351Z" fill="#F2F2F2"/>
<path d="M7.34428 12.7636L7.0183 13.199L6.7625 13.0073L7.04273 12.633C7.14949 12.4904 7.27346 12.4123 7.41464 12.3989C7.55392 12.388 7.69355 12.435 7.83354 12.54L8.9789 13.3986L9.25914 13.0242L9.51493 13.216L9.2347 13.5903L9.68903 13.9309L9.50319 14.2269L9.02596 13.8691L8.6485 14.3733L8.3927 14.1816L8.77016 13.6774L7.52553 12.7444C7.45427 12.691 7.39385 12.6974 7.34428 12.7636Z" fill="#F2F2F2"/>
<path d="M8.38973 10.8455C8.57504 10.6357 8.77262 10.5153 8.98248 10.4844C9.19472 10.4555 9.39496 10.5243 9.5832 10.6908L9.35261 10.9518C9.11433 10.7411 8.872 10.7752 8.62563 11.0542L8.60983 11.072C8.38241 11.3295 8.35686 11.5362 8.53318 11.6922C8.57131 11.7259 8.61323 11.7481 8.65894 11.7588C8.70466 11.7695 8.74653 11.7726 8.78454 11.768C8.82256 11.7634 8.87215 11.7457 8.93333 11.7148C8.9924 11.6864 9.0392 11.6598 9.07372 11.6352C9.10852 11.615 9.16059 11.5825 9.22991 11.5376C9.47058 11.3853 9.67088 11.2906 9.8308 11.2537C9.99101 11.2213 10.145 11.2704 10.2927 11.4011C10.4381 11.5296 10.5062 11.6855 10.4973 11.8686C10.4886 12.0563 10.4052 12.2395 10.2473 12.4183L10.2315 12.4362C10.0652 12.6245 9.87915 12.7318 9.67351 12.758C9.47025 12.7863 9.27807 12.7204 9.09698 12.5603L9.32756 12.2992C9.43479 12.394 9.54662 12.4356 9.66304 12.4239C9.77974 12.4167 9.89179 12.3523 9.99919 12.2307L10.015 12.2128C10.1118 12.1032 10.164 11.9985 10.1713 11.8989C10.179 11.8037 10.1447 11.7224 10.0684 11.655C10.0232 11.6149 9.97662 11.5908 9.9288 11.5824C9.88098 11.5741 9.82409 11.5833 9.75815 11.6099C9.6922 11.6365 9.63854 11.6612 9.59714 11.6841C9.55364 11.7093 9.48747 11.7506 9.39864 11.8079C9.27291 11.8878 9.1718 11.947 9.09533 11.9855C9.02124 12.0262 8.93551 12.0607 8.83815 12.0893C8.74078 12.1178 8.64849 12.119 8.56127 12.0928C8.47643 12.0688 8.39112 12.0188 8.30534 11.9429C8.15284 11.8081 8.08291 11.6422 8.09555 11.4453C8.11057 11.2505 8.20337 11.0565 8.37394 10.8634L8.38973 10.8455Z" fill="#F2F2F2"/>
<path d="M11.2745 9.47034L12.4674 8.49447L12.4493 8.4723C12.2721 8.25553 12.1097 8.12954 11.9618 8.09435C11.8134 8.06363 11.6593 8.11373 11.4992 8.24465L11.4734 8.2658C11.2395 8.45715 11.1849 8.67441 11.3097 8.91759L11.0364 9.14116C10.8083 8.71124 10.8888 8.33715 11.2778 8.01891L11.3 8.00079C11.5314 7.81145 11.7673 7.73563 12.0076 7.77332C12.2478 7.811 12.4837 7.97149 12.7152 8.25477L12.8661 8.43952C13.0996 8.72526 13.2099 8.98847 13.197 9.22914C13.1862 9.47227 13.065 9.6885 12.8336 9.87784L12.8188 9.88992C12.3387 10.2827 11.8682 10.197 11.4073 9.63292L11.2745 9.47034ZM12.6343 9.63397C12.7895 9.50707 12.8697 9.37154 12.8752 9.22736C12.8781 9.0852 12.8016 8.91357 12.6455 8.71247L11.7185 9.47081C11.8845 9.66385 12.0386 9.77203 12.1809 9.79536C12.3207 9.8207 12.4669 9.77093 12.6196 9.64605L12.6343 9.63397Z" fill="#F2F2F2"/>
<path d="M14.2675 5.92941L14.4785 6.25324L14.2362 8.30265L14.2571 8.33464L15.3121 7.64641L15.4866 7.91427L14.1119 8.81105L13.9035 8.49122L14.1392 6.44041L14.1183 6.40843L12.9914 7.14357L12.8169 6.87572L14.2675 5.92941Z" fill="#F2F2F2"/>
<path d="M17.1231 7.70233L17.3319 8.09387L16.9363 8.30514L16.7275 7.9136L17.1231 7.70233ZM15.7002 5.13555L16.7959 7.19011L16.4844 7.35643L15.3887 5.30187L15.7002 5.13555Z" fill="#F2F2F2"/>
<path d="M17.1976 4.41958L18.6066 7.55281L18.2846 7.69778L16.8757 4.56455L17.1976 4.41958Z" fill="#F2F2F2"/>
<path d="M18.0249 4.39467L17.687 4.5125L17.5818 4.2106L18.2171 3.98908L18.3618 4.3176L18.4069 4.30189C18.4351 4.0057 18.6234 3.79686 18.9718 3.67536L18.9898 3.66908C19.1701 3.60624 19.3465 3.60029 19.5192 3.65124C19.6899 3.70625 19.8082 3.82837 19.8742 4.01763L19.8836 4.04466C19.9474 4.22791 19.9279 4.38966 19.8252 4.52991C19.7235 4.67317 19.5453 4.80944 19.2905 4.9387L18.6835 5.24133L18.7227 5.35398C18.8525 5.72648 19.0765 5.85722 19.3949 5.7462L19.4129 5.73991C19.7313 5.62889 19.8486 5.41448 19.7649 5.09669L20.1118 4.97572C20.1805 5.22127 20.1618 5.43835 20.0557 5.62695C19.9496 5.81554 19.7674 5.95488 19.5091 6.04496L19.4955 6.04967C19.2282 6.14289 19.0023 6.13744 18.8179 6.03332C18.6334 5.92921 18.492 5.73596 18.3937 5.45358L18.0249 4.39467ZM19.0303 3.98847C18.5648 4.15082 18.4162 4.47381 18.5847 4.95746L18.5894 4.97097L19.1484 4.69013C19.3262 4.60116 19.4478 4.51498 19.5131 4.43158C19.5783 4.34818 19.5942 4.25841 19.5608 4.16229L19.5513 4.13525C19.5189 4.04213 19.4593 3.98207 19.3724 3.9551C19.2825 3.92917 19.1745 3.9382 19.0484 3.98219L19.0303 3.98847Z" fill="#F2F2F2"/>
<path d="M21.5687 2.97591L22.1244 5.2371L21.7815 5.32147L21.7326 5.12222L21.6909 5.13248C21.6463 5.28431 21.5344 5.38227 21.3553 5.42635L21.0031 5.513L20.9268 5.20255L21.5245 5.05548C21.5894 5.03952 21.6319 5.01267 21.6521 4.97494C21.6731 4.9403 21.6749 4.88745 21.6574 4.81641L21.2258 3.06028L21.5687 2.97591Z" fill="#F2F2F2"/>
<path d="M22.6016 3.08703L22.0653 3.17753L22.0121 2.86229L22.4732 2.78449C22.6489 2.75485 22.7925 2.78384 22.904 2.87148C23.0124 2.95964 23.0812 3.08998 23.1102 3.2625L23.3481 4.67403L23.8092 4.59622L23.8623 4.91147L23.4012 4.98927L23.4956 5.54918L23.1569 5.63537L23.0578 5.04723L22.4367 5.15203L22.3836 4.83679L23.0047 4.73199L22.7462 3.19813C22.7314 3.1103 22.6832 3.07326 22.6016 3.08703Z" fill="#F2F2F2"/>
<path d="M26.069 2.365L26.2381 4.68732L25.886 4.71299L25.8593 4.34656L25.8165 4.34969C25.7686 4.48075 25.6902 4.58693 25.5813 4.66823C25.4695 4.75293 25.3406 4.8006 25.1947 4.81124L25.1756 4.81263C24.6966 4.84756 24.4346 4.55729 24.3898 3.94181L24.2845 2.49512L24.6366 2.46944L24.7409 3.90186C24.7564 4.11442 24.8041 4.26563 24.884 4.35548C24.961 4.44874 25.0756 4.48982 25.2279 4.47872L25.2469 4.47733C25.4246 4.46438 25.5679 4.39651 25.677 4.27374C25.7863 4.15414 25.8326 3.98013 25.816 3.75171L25.7169 2.39068L26.069 2.365Z" fill="#F2F2F2"/>
<path d="M26.9227 3.40446L28.4625 3.4688L28.4637 3.4402C28.4754 3.16051 28.4376 2.95836 28.3505 2.83374C28.2601 2.71216 28.1116 2.64706 27.905 2.63843L27.8716 2.63703C27.5697 2.62442 27.3845 2.7504 27.3162 3.01498L26.9634 3.00024C27.0786 2.52749 27.3873 2.30161 27.8895 2.32259L27.9181 2.32379C28.2169 2.33627 28.4435 2.43647 28.598 2.6244C28.7525 2.81233 28.8222 3.08904 28.8069 3.45454L28.797 3.6929C28.7816 4.06157 28.6892 4.33151 28.5196 4.50272C28.35 4.6771 28.1158 4.75805 27.817 4.74557L27.798 4.74478C27.1782 4.71888 26.8835 4.34203 26.9139 3.61422L26.9227 3.40446ZM27.8302 4.43093C28.0304 4.4393 28.1804 4.39144 28.2803 4.28737C28.377 4.18316 28.4338 4.00406 28.4508 3.75007L27.2542 3.70007C27.2499 3.9546 27.2932 4.13788 27.384 4.24992C27.4717 4.36183 27.6141 4.4219 27.8111 4.43013L27.8302 4.43093Z" fill="#F2F2F2"/>
<path d="M30.5696 2.55899C30.8653 2.60352 31.0798 2.72751 31.2133 2.93097C31.3436 3.13395 31.3815 3.41631 31.3271 3.77806L31.2916 4.01398C31.2368 4.37886 31.1159 4.6373 30.929 4.7893C30.7416 4.94444 30.5016 4.99998 30.2091 4.95592L30.1996 4.9545C29.9323 4.91423 29.734 4.81038 29.6048 4.64295C29.4724 4.47504 29.42 4.25645 29.4477 3.98718L29.7968 4.03976C29.7636 4.38862 29.9138 4.58816 30.2472 4.63837L30.2566 4.63979C30.4516 4.66916 30.6056 4.62961 30.7184 4.52115C30.8307 4.41583 30.907 4.22948 30.9472 3.9621L30.9827 3.72619C31.0229 3.45881 31.0051 3.25668 30.9291 3.11979C30.8528 2.98605 30.7171 2.90449 30.522 2.87512L30.5126 2.8737C30.1792 2.82348 29.977 2.96996 29.9061 3.31313L29.5569 3.26055C29.6102 2.99193 29.7248 2.79687 29.9007 2.67539C30.0761 2.55705 30.2959 2.51777 30.5601 2.55757L30.5696 2.55899Z" fill="#F2F2F2"/>
<path d="M31.9671 3.91875L33.4576 4.31077L33.4649 4.28308C33.536 4.01234 33.5423 3.80678 33.4838 3.66641C33.4214 3.5283 33.2902 3.43295 33.0903 3.38036L33.058 3.37186C32.7657 3.29499 32.5579 3.37849 32.4347 3.62236L32.0932 3.53255C32.3067 3.09533 32.6565 2.94065 33.1426 3.06849L33.1703 3.07577C33.4594 3.15183 33.6594 3.29818 33.7703 3.51481C33.8811 3.73144 33.89 4.01666 33.7971 4.37047L33.7365 4.60121C33.6427 4.9581 33.4948 5.20205 33.2927 5.33308C33.0897 5.46718 32.8436 5.4962 32.5545 5.42014L32.536 5.41528C31.9361 5.2575 31.7287 4.82634 31.9138 4.1218L31.9671 3.91875ZM32.6345 5.11555C32.8283 5.16653 32.9851 5.15185 33.1048 5.07152C33.2215 4.99038 33.3153 4.82756 33.3861 4.58305L32.2278 4.27841C32.1693 4.52616 32.1725 4.71447 32.2373 4.84335C32.299 4.97142 32.4253 5.06053 32.616 5.1107L32.6345 5.11555Z" fill="#F2F2F2"/>
<path d="M36.1175 4.02871L36.1353 4.03565C36.3516 4.11999 36.493 4.27412 36.5594 4.49804C36.6259 4.72196 36.5939 5.00139 36.4635 5.33635L36.3769 5.55867C36.2465 5.89362 36.0811 6.12107 35.8808 6.241C35.6805 6.36093 35.4722 6.37873 35.2558 6.29438L35.2381 6.28745C35.0928 6.23084 34.9807 6.14616 34.9017 6.03343C34.8186 5.9225 34.774 5.79587 34.768 5.65354L34.7236 5.63621L34.1869 7.01457L33.8535 6.88459L35.0999 3.68323L35.4244 3.80975L35.2842 4.1699L35.3287 4.18723C35.4316 4.08057 35.5518 4.01304 35.6892 3.98465C35.8265 3.95626 35.9693 3.97094 36.1175 4.02871ZM35.8913 4.29392C35.7254 4.22921 35.568 4.23445 35.4193 4.30961C35.2705 4.38478 35.15 4.54093 35.0577 4.77807L34.9642 5.01817C34.8719 5.25531 34.8551 5.4519 34.9138 5.60794C34.9725 5.76399 35.0848 5.87436 35.2508 5.93906L35.2686 5.94599C35.6035 6.07655 35.8633 5.90469 36.0479 5.43042L36.1345 5.2081C36.3191 4.73383 36.244 4.43141 35.9091 4.30085L35.8913 4.29392Z" fill="#F2F2F2"/>
<path d="M38.3549 6.28012L39.6713 7.08156L39.6862 7.0571C39.8316 6.81792 39.8963 6.6227 39.8803 6.47145C39.86 6.32126 39.7615 6.1924 39.5849 6.08488L39.5564 6.06751C39.2982 5.91036 39.0753 5.93106 38.8876 6.12959L38.586 5.94598C38.9154 5.58791 39.2948 5.53955 39.724 5.80091L39.7485 5.8158C40.0039 5.97129 40.1538 6.16868 40.1982 6.40797C40.2425 6.64726 40.1697 6.92318 39.9796 7.23575L39.8557 7.4396C39.664 7.75489 39.4526 7.94645 39.2215 8.0143C38.9887 8.08486 38.7446 8.0424 38.4892 7.8869L38.4729 7.87698C37.9431 7.55442 37.8674 7.08192 38.2459 6.45951L38.3549 6.28012ZM38.6528 7.61782C38.824 7.72204 38.9784 7.75275 39.1161 7.70996C39.2511 7.66552 39.3874 7.53624 39.5251 7.32211L38.5021 6.69931C38.3753 6.92006 38.3246 7.10145 38.3499 7.24349C38.3725 7.38387 38.4681 7.50534 38.6365 7.6079L38.6528 7.61782Z" fill="#F2F2F2"/>
<path d="M40.5161 7.61345L41.7388 8.55173L41.7562 8.529C41.9265 8.30683 42.0118 8.11969 42.0121 7.96759C42.008 7.81607 41.924 7.67738 41.7599 7.5515L41.7334 7.53116C41.4937 7.34719 41.2698 7.34381 41.0619 7.52103L40.7818 7.30607C41.1477 6.98546 41.5301 6.97814 41.9288 7.28412L41.9515 7.30155C42.1887 7.48359 42.3165 7.69595 42.3349 7.93862C42.3533 8.1813 42.2513 8.44781 42.0287 8.73815L41.8836 8.92751C41.6591 9.22038 41.4284 9.38813 41.1913 9.43075C40.9523 9.47589 40.7142 9.40744 40.477 9.2254L40.4619 9.21378C39.9698 8.83615 39.9453 8.35825 40.3884 7.78008L40.5161 7.61345ZM40.6686 8.97545C40.8276 9.09746 40.9778 9.14459 41.1193 9.11685C41.2583 9.08717 41.4077 8.97327 41.5675 8.77517L40.6174 8.04604C40.4677 8.25189 40.3978 8.42679 40.4077 8.57073C40.4151 8.71273 40.497 8.84377 40.6534 8.96383L40.6686 8.97545Z" fill="#F2F2F2"/>
<path d="M44.1278 9.21666L42.5438 10.9234L42.2852 10.683L42.4248 10.5326L42.3933 10.5034C42.242 10.5495 42.0988 10.5098 41.9636 10.3842L41.698 10.1373L41.9155 9.90301L42.3663 10.322C42.4153 10.3675 42.461 10.3883 42.5037 10.3845C42.5441 10.383 42.5892 10.3554 42.639 10.3018L43.8691 8.97631L44.1278 9.21666Z" fill="#F2F2F2"/>
<path d="M42.7705 11.962L43.7987 13.1482L44.6491 12.41L43.8803 11.5231L44.1289 11.3073L44.8977 12.1942L46.0076 11.2309L46.2388 11.4977L43.7813 13.6308L42.5218 12.1778L42.7705 11.962Z" fill="#F2F2F2"/>
<path d="M47.326 15.2506L47.0447 15.4217L46.4627 14.4633L46.744 14.2922L47.326 15.2506Z" fill="#F2F2F2"/>
<path d="M46.9676 18.2562L47.5363 19.7193L48.5857 19.3109L48.1604 18.2169L48.4672 18.0975L48.8925 19.1915L49.9552 18.7778L49.3865 17.3147L49.6933 17.1953L50.3899 18.9875L47.3574 20.1679L46.6607 18.3756L46.9676 18.2562Z" fill="#F2F2F2"/>
<path d="M49.9951 22.3087L49.6731 22.3771L49.475 21.4436L51.0105 21.1173L51.0809 21.4487L50.6841 21.533L50.694 21.5797C51.0141 21.632 51.2143 21.848 51.2949 22.2276L51.2989 22.2463C51.3629 22.5481 51.3201 22.806 51.1703 23.0199C51.0206 23.2339 50.7528 23.3818 50.367 23.4638L49.3682 23.676C48.9824 23.7579 48.6763 23.7254 48.45 23.5784C48.2237 23.4313 48.0762 23.196 48.0076 22.8724L48.0026 22.849C47.934 22.5254 47.9732 22.2504 48.1202 22.0241C48.2673 21.7977 48.5338 21.6435 48.9196 21.5616L48.9929 21.907C48.6973 21.9698 48.4995 22.072 48.3994 22.2135C48.2963 22.3558 48.2698 22.5451 48.32 22.7816L48.3249 22.805C48.3751 23.0414 48.4762 23.2037 48.6282 23.2917C48.7771 23.3804 48.9993 23.3934 49.2949 23.3306L50.2937 23.1184C50.5862 23.0562 50.7844 22.9556 50.8882 22.8165C50.9913 22.6742 51.0188 22.4895 50.9706 22.2624L50.9656 22.2391C50.9155 22.0026 50.8137 21.8372 50.6604 21.7429C50.5071 21.6487 50.2842 21.6326 49.9917 21.6948L49.8703 21.7206L49.9951 22.3087Z" fill="#F2F2F2"/>
<path d="M51.6827 25.7104L50.6855 26.0116L50.7216 27.075L51.737 27.3127L51.7499 27.6942L48.4668 26.8937L48.4484 26.3501L51.6701 25.3384L51.6827 25.7104ZM50.3896 27.0003L50.3596 26.1134L48.7906 26.5867L48.792 26.6297L50.3896 27.0003Z" fill="#F2F2F2"/>
<path d="M49.3748 29.0869C49.9674 29.1673 50.2522 29.4819 50.2292 30.031L50.2528 30.0342L51.6102 29.4333L51.557 29.8258L50.1795 30.4335L50.1155 30.9063L51.3874 31.0788L51.34 31.4287L48.1154 30.9915L48.2607 29.9181C48.3478 29.2751 48.7144 28.9974 49.3606 29.085L49.3748 29.0869ZM49.3138 29.4302C49.0743 29.3977 48.9006 29.4239 48.7928 29.5088C48.6854 29.5905 48.6168 29.7417 48.5869 29.9624L48.489 30.6858L49.7892 30.8621L49.8872 30.1387C49.9171 29.918 49.8911 29.754 49.8094 29.6466C49.728 29.5361 49.5676 29.4646 49.328 29.4321L49.3138 29.4302Z" fill="#F2F2F2"/>
<path d="M50.5442 34.6795C50.4455 34.9953 50.2766 35.2157 50.0375 35.3408C49.7984 35.466 49.4906 35.4696 49.1142 35.3517L48.1397 35.0466C47.7633 34.9288 47.5125 34.7502 47.3873 34.5111C47.2622 34.2719 47.2489 33.9944 47.3477 33.6787L47.3548 33.6559C47.4535 33.3401 47.6224 33.1197 47.8615 32.9946C48.1006 32.8694 48.4084 32.8658 48.7848 32.9837L49.7593 33.2888C50.1357 33.4066 50.3865 33.5852 50.5117 33.8244C50.6368 34.0635 50.6501 34.341 50.5513 34.6568L50.5442 34.6795ZM50.2346 34.5826L50.2417 34.5598C50.3138 34.3291 50.3068 34.1385 50.2205 33.9882C50.1311 33.8369 49.9423 33.7161 49.6539 33.6258L48.6703 33.3178C48.385 33.2285 48.164 33.221 48.0075 33.2953C47.8509 33.3696 47.7366 33.5221 47.6644 33.7528L47.6573 33.7756C47.5852 34.0063 47.5922 34.1969 47.6785 34.3472C47.7648 34.4976 47.9507 34.6174 48.236 34.7068L49.2196 35.0147C49.5079 35.105 49.7319 35.1135 49.8915 35.0401C50.0481 34.9658 50.1624 34.8133 50.2346 34.5826Z" fill="#F2F2F2"/>
<path d="M46.584 35.8209L46.8782 35.9686L46.459 36.8046L49.073 38.1169L48.9147 38.4325L46.3008 37.1202L45.8816 37.9562L45.5874 37.8085L46.584 35.8209Z" fill="#F2F2F2"/>
<path d="M47.3761 41.0682C47.1785 41.3531 46.9534 41.5298 46.7007 41.5984C46.4472 41.6625 46.1742 41.5929 45.8815 41.3897L46.0827 41.0996C46.2996 41.2502 46.4878 41.3053 46.6473 41.265C46.8068 41.2248 46.9609 41.0975 47.1095 40.8831L47.1231 40.8635C47.3968 40.4688 47.3808 40.1653 47.0751 39.9531C47.0202 39.915 46.9674 39.8879 46.9165 39.872C46.863 39.8542 46.8084 39.8492 46.7527 39.857C46.697 39.8648 46.6474 39.8749 46.6039 39.8873C46.5623 39.8971 46.5107 39.9213 46.4491 39.9599C46.3893 39.9958 46.3433 40.0259 46.3111 40.05C46.2781 40.0697 46.2285 40.1049 46.1623 40.1558C46.0961 40.2066 46.0509 40.2411 46.0268 40.2591C45.9078 40.3469 45.8104 40.4149 45.7345 40.4629C45.6561 40.5091 45.556 40.5557 45.4342 40.6029C45.3125 40.65 45.1918 40.665 45.0722 40.6477C44.9543 40.6279 44.8353 40.5762 44.7151 40.4928C44.5001 40.3396 44.3823 40.1494 44.3618 39.9222C44.3405 39.6905 44.4141 39.4531 44.5827 39.21L44.5963 39.1904C44.7811 38.9238 44.9985 38.761 45.2484 38.7022C45.4956 38.6415 45.7655 38.7127 46.0582 38.9159L45.857 39.2061C45.6401 39.0555 45.4528 38.999 45.2951 39.0367C45.1392 39.0717 44.9951 39.1846 44.8628 39.3755L44.8492 39.3951C44.6135 39.7349 44.6368 40.0028 44.919 40.1987C44.953 40.2223 44.9884 40.241 45.0252 40.255C45.062 40.2689 45.0948 40.2801 45.1238 40.2886C45.1527 40.2971 45.1862 40.299 45.2242 40.2944C45.2641 40.2872 45.2964 40.2826 45.3211 40.2804C45.3458 40.2782 45.3782 40.2678 45.4183 40.2491C45.4601 40.2278 45.4917 40.2129 45.513 40.2045C45.5318 40.1943 45.5625 40.175 45.6054 40.1467C45.6501 40.1157 45.6796 40.0955 45.6939 40.0861C45.71 40.074 45.7413 40.0512 45.7878 40.0177C45.8334 39.9797 45.8634 39.956 45.8777 39.9465C46.1434 39.7476 46.3411 39.6216 46.4709 39.5684C46.7544 39.4554 47.0228 39.4869 47.2763 39.6629C47.5062 39.8225 47.6299 40.0265 47.6474 40.2749C47.6623 40.5214 47.5763 40.7793 47.3896 41.0486L47.3761 41.0682Z" fill="#F2F2F2"/>
<path d="M45.6684 43.1942L45.294 42.8759L45.6121 42.5013L45.9865 42.8196L45.6684 43.1942Z" fill="#F2F2F2"/>
<path d="M44.26 44.7483C44.0108 44.9894 43.7557 45.119 43.4945 45.1371C43.2334 45.1508 42.9791 45.0295 42.7315 44.7733L42.9852 44.5278C43.1687 44.7176 43.3426 44.8083 43.5069 44.7998C43.6712 44.7913 43.8471 44.6964 44.0345 44.515L44.0517 44.4984C44.3968 44.1643 44.4401 43.8635 44.1815 43.5959C44.135 43.5479 44.0884 43.5111 44.0416 43.4856C43.9926 43.4577 43.94 43.4422 43.8839 43.439C43.8277 43.4358 43.7771 43.4361 43.732 43.4399C43.6893 43.4414 43.634 43.4551 43.5661 43.481C43.5005 43.5046 43.4495 43.5252 43.4132 43.5426C43.377 43.5554 43.3215 43.5804 43.2467 43.6174C43.1719 43.6544 43.1208 43.6794 43.0936 43.6925C42.9599 43.7555 42.8512 43.8032 42.7674 43.8355C42.6815 43.8656 42.5742 43.8919 42.4456 43.9145C42.3171 43.9371 42.1958 43.9284 42.0818 43.8882C41.97 43.8458 41.8633 43.772 41.7616 43.6668C41.5804 43.4748 41.5019 43.2653 41.5259 43.0384C41.55 42.807 41.6683 42.5885 41.8809 42.3828L41.8981 42.3662C42.1312 42.1405 42.3761 42.0231 42.6326 42.0139C42.8869 42.0024 43.1379 42.1247 43.3854 42.3809L43.1317 42.6265C42.9482 42.4366 42.7755 42.3448 42.6135 42.3511C42.4537 42.3552 42.2904 42.438 42.1236 42.5995L42.1064 42.6161C41.8092 42.9036 41.78 43.1709 42.0188 43.418C42.0475 43.4477 42.0786 43.473 42.112 43.4938C42.1454 43.5146 42.1754 43.532 42.2022 43.5459C42.2289 43.5599 42.2614 43.5683 42.2996 43.5712C42.34 43.5719 42.3726 43.5735 42.3973 43.5762C42.422 43.5789 42.4558 43.5749 42.4987 43.5644C42.5439 43.5516 42.5778 43.5432 42.6003 43.5391C42.6207 43.5327 42.6546 43.5197 42.7022 43.5003C42.752 43.4786 42.7849 43.4645 42.8007 43.458C42.8189 43.4493 42.854 43.4331 42.9061 43.4092C42.9583 43.3808 42.9923 43.3634 43.0082 43.3569C43.3074 43.2134 43.5259 43.1281 43.6635 43.1012C43.9635 43.0454 44.2208 43.1285 44.4352 43.3504C44.6297 43.5517 44.7114 43.7758 44.6803 44.0228C44.647 44.2675 44.5126 44.5038 44.2771 44.7317L44.26 44.7483Z" fill="#F2F2F2"/>
<path d="M40.7946 43.8918L39.53 44.8218L40.1965 45.7294L41.1421 45.0341L41.337 45.2994L40.3914 45.9948L41.2612 47.1793L40.9768 47.3885L39.0506 44.7656L40.5998 43.6265L40.7946 43.8918Z" fill="#F2F2F2"/>
<path d="M37.5358 45.6827C38.1084 45.3706 38.5505 45.5009 38.8623 46.0736L38.8692 46.0862C39.181 46.6589 39.0506 47.1013 38.478 47.4135L37.8077 47.7789L38.4214 48.9061L38.1114 49.0751L36.5555 46.2171L37.5358 45.6827ZM38.5592 46.2552L38.5523 46.2426C38.4367 46.0303 38.3128 45.9058 38.1806 45.8692C38.0512 45.8311 37.8887 45.8653 37.6932 45.9719L37.0229 46.3373L37.6503 47.4897L38.3206 47.1243C38.5161 47.0177 38.633 46.8997 38.6711 46.7702C38.7121 46.6392 38.6747 46.4675 38.5592 46.2552Z" fill="#F2F2F2"/>
<path d="M36.1658 49.9336L34.9264 46.9248L35.2528 46.7901L36.4922 49.799L36.1658 49.9336Z" fill="#F2F2F2"/>
<path d="M32.5842 50.0409C32.6606 50.2969 32.7685 50.4639 32.9079 50.5418C33.0473 50.6197 33.2435 50.6208 33.4964 50.5453L33.5102 50.5412C33.7601 50.4666 33.9239 50.3646 34.0015 50.2352C34.0781 50.1027 34.0888 49.9435 34.0333 49.7576L34.0238 49.7256C33.9656 49.5305 33.8796 49.4035 33.7658 49.3445C33.651 49.2825 33.4961 49.2806 33.301 49.3388L32.8667 49.4685L32.7726 49.153L33.0881 49.0588C33.2862 48.9997 33.4182 48.9138 33.4842 48.8011C33.5533 48.6876 33.5605 48.5393 33.506 48.3564L33.4951 48.3199C33.446 48.1552 33.3582 48.0387 33.2315 47.9703C33.107 47.8979 32.9488 47.8904 32.7568 47.9477L32.7293 47.9559C32.5099 48.0214 32.3658 48.1226 32.297 48.2593C32.2282 48.396 32.2284 48.5802 32.2975 48.8119L31.9591 48.9129C31.8664 48.6019 31.8799 48.3356 31.9997 48.114C32.1226 47.8914 32.3349 47.7351 32.6366 47.645L32.6641 47.6368C32.9475 47.5522 33.1941 47.5665 33.4038 47.6798C33.6157 47.7892 33.7575 47.9643 33.8293 48.2051L33.843 48.2508C33.942 48.5831 33.8587 48.8437 33.5931 49.0326L33.6067 49.0783C33.9979 49.0544 34.2512 49.2361 34.3667 49.6232L34.3776 49.6598C34.4567 49.925 34.4334 50.1643 34.3079 50.3778C34.1823 50.5912 33.9488 50.7489 33.6074 50.8508L33.5892 50.8562C33.2539 50.9563 32.9704 50.9464 32.7388 50.8263C32.5102 50.7053 32.3459 50.4772 32.2459 50.1419L32.5842 50.0409Z" fill="#F2F2F2"/>
<path d="M28.5116 51.6701L27.4855 48.5127L27.8362 48.4723L28.7269 51.3283L28.7695 51.3234L28.9596 48.3428L29.4905 48.2816L30.3575 51.1404L30.3954 51.136L30.6139 48.1522L30.9647 48.1118L30.6826 51.4199L30.128 51.4838L29.3033 48.7835L29.2607 48.7884L29.071 51.6056L28.5116 51.6701Z" fill="#F2F2F2"/>
<path d="M32.178 32.2316L36.6248 32.0663L31.6303 26.8631L36.6248 21.6599L32.1782 21.4943L31.6739 17.2217L27.0248 22.0651L22.3757 17.2217L21.8714 21.4943L17.4248 21.6599L22.4193 26.8631L17.4248 32.0663L21.8716 32.2316L22.3757 36.5045L27.0248 31.6611L31.6739 36.5045L32.178 32.2316Z" fill="#FFFFEC"/>
</svg>
