<svg width="576" height="409" viewBox="0 0 576 409" fill="none" xmlns="http://www.w3.org/2000/svg">
<path d="M442.835 72.7135C513.555 64.1787 562.606 76.0824 572.31 102.562C589.267 148.812 475.777 232.979 318.817 290.547C161.857 348.115 20.8588 357.295 3.90209 311.045C-5.95859 284.141 24.6687 246.47 85.9431 206.617L86.4965 221.556C63.3745 242.322 56.0439 258.896 61.3521 273.385C74.5672 309.414 184.399 302.262 306.671 257.413C428.944 212.564 518.759 144.708 505.562 108.679C500.466 94.7897 476.937 87.0995 452.241 84.8865L442.835 72.7135Z" fill="currentColor"/>
<path d="M432.851 61.6469C503.572 53.1121 561.524 62.3988 571.228 88.8786C588.184 135.128 474.695 219.295 317.735 276.863C160.775 334.431 19.776 343.611 2.81933 297.361C-7.04136 270.458 23.5859 232.787 84.8604 192.933L85.4137 207.873C62.2918 228.638 54.9611 245.213 60.2693 259.702C73.4845 295.73 183.316 288.578 305.588 243.729C427.861 198.88 517.676 131.024 504.479 94.9958C499.383 81.1061 468.084 76.033 443.388 73.8199L432.851 61.6469Z" fill="currentColor"/>
<path d="M432.851 61.6469C503.572 53.1121 561.524 62.3988 571.228 88.8786C588.184 135.128 474.695 219.295 317.735 276.863C160.775 334.431 19.776 343.611 2.81933 297.361C-7.04136 270.458 23.5859 232.787 84.8604 192.933L85.4137 207.873C62.2918 228.638 54.9611 245.213 60.2693 259.702C73.4845 295.73 183.316 288.578 305.588 243.729C427.861 198.88 517.676 131.024 504.479 94.9958C499.383 81.1061 468.084 76.033 443.388 73.8199L432.851 61.6469Z" fill="black" fill-opacity="0.2"/>
<path d="M105.826 294.867C93.1981 271.223 87.9207 246.41 85.9247 217.755C83.6612 192.144 87.232 165.674 95.5169 140.172C103.802 114.67 121.358 87.9893 138.959 67.7948C156.56 47.6003 180.495 32.3335 204.587 20.6874C228.68 9.0413 254.873 2.40424 281.59 1.17566C308.307 -0.0529254 334.81 5.24071 359.865 14.6268C384.919 24.0129 410.08 40.9929 429.45 59.4873C448.82 77.9816 483.571 132.224 483.571 155.3M491.856 205.098C492.616 242.252 479.76 283.619 459.481 314.251C439.202 344.882 410.329 370.742 378.298 386.249C347.371 400.095 312.717 410.86 263.427 406.741C214.138 402.622 156.977 374.619 129.019 337.512" stroke="black" stroke-width="2" stroke-linecap="round" stroke-linejoin="round"/>
<path d="M442.835 72.7125C513.605 64.1729 563.357 74.4257 573.068 100.92C590.036 147.196 475.961 232.013 318.892 289.614C161.823 347.215 20.7259 356.4 3.75738 310.124C-6.11015 283.205 23.7646 246.72 85.0816 206.844" stroke="black" stroke-width="2" stroke-linecap="round" stroke-linejoin="round"/>
<path d="M452.794 85.9928C481.816 87.3761 499.753 95.443 504.843 109.341C518.068 145.399 429.63 212.104 307.273 256.969C184.915 301.834 75.0166 308.999 61.7923 272.95C56.4804 258.453 63.0542 242.313 86.1829 221.536" stroke="black" stroke-width="2" stroke-linecap="round" stroke-linejoin="round"/>
</svg>
