<svg width="248" height="201" viewBox="0 0 248 201" fill="none" xmlns="http://www.w3.org/2000/svg">
<path d="M215.336 130.054C214.678 128.656 214.013 127.242 213.157 125.904C213.051 125.716 212.902 125.543 212.719 125.395C212.536 125.247 212.322 125.126 212.09 125.04C211.858 124.954 211.613 124.905 211.37 124.895C211.127 124.885 210.89 124.915 210.673 124.982C210.236 125.115 209.905 125.389 209.75 125.746C209.596 126.102 209.631 126.513 209.847 126.887C210.929 128.708 211.867 130.569 212.654 132.459C212.828 132.842 213.171 133.173 213.611 133.386C214.051 133.598 214.554 133.673 215.015 133.597C215.472 133.514 215.847 133.282 216.056 132.952C216.266 132.622 216.294 132.221 216.134 131.837C215.883 131.216 215.61 130.635 215.336 130.054ZM218.132 137.651C217.967 137.282 217.641 136.96 217.221 136.751C216.8 136.541 216.317 136.459 215.869 136.522C215.421 136.585 215.041 136.787 214.808 137.088C214.574 137.39 214.504 137.767 214.611 138.144C215.121 140.063 215.474 141.992 215.667 143.917C215.729 144.3 215.97 144.669 216.34 144.946C216.71 145.223 217.18 145.387 217.653 145.404C218.125 145.421 218.565 145.289 218.879 145.037C219.193 144.785 219.357 144.431 219.339 144.049C219.138 141.996 218.766 139.938 218.225 137.89L218.132 137.651ZM209.516 120.475L209.383 120.193C207.972 118.355 206.447 116.569 204.813 114.842C204.494 114.51 204.041 114.277 203.553 114.191C203.064 114.105 202.578 114.173 202.197 114.381C201.825 114.598 201.595 114.937 201.554 115.324C201.514 115.711 201.667 116.115 201.981 116.45C203.513 118.078 204.937 119.765 206.246 121.502C206.378 121.68 206.55 121.838 206.75 121.969C206.951 122.099 207.177 122.199 207.415 122.263C207.653 122.326 207.899 122.352 208.137 122.338C208.375 122.325 208.601 122.272 208.802 122.184C209.154 122.038 209.418 121.793 209.55 121.488C209.683 121.183 209.676 120.837 209.531 120.507L209.516 120.475ZM219.264 149.51C219.11 149.182 218.829 148.891 218.466 148.686C218.103 148.481 217.68 148.373 217.266 148.381C216.852 148.389 216.472 148.512 216.189 148.73C215.905 148.947 215.735 149.247 215.707 149.579L215.602 150.707C215.568 150.902 215.585 151.105 215.651 151.305C215.716 151.504 215.83 151.696 215.986 151.869C216.141 152.041 216.334 152.191 216.553 152.309C216.773 152.427 217.014 152.51 217.262 152.554C217.51 152.598 217.761 152.602 217.998 152.565C218.235 152.528 218.454 152.452 218.642 152.34C218.83 152.228 218.983 152.083 219.091 151.915C219.199 151.746 219.261 151.557 219.272 151.358L219.403 150.155C219.428 149.951 219.399 149.739 219.316 149.534L219.264 149.51ZM200.055 110.396C199.953 110.184 199.797 109.987 199.599 109.819C197.763 108.237 195.834 106.728 193.82 105.297C193.621 105.161 193.396 105.055 193.158 104.985C192.92 104.914 192.672 104.881 192.431 104.887C192.189 104.893 191.957 104.938 191.748 105.019C191.54 105.101 191.358 105.217 191.215 105.361C191.071 105.505 190.968 105.674 190.911 105.86C190.855 106.045 190.846 106.242 190.885 106.44C190.923 106.638 191.01 106.833 191.138 107.013C191.267 107.194 191.435 107.357 191.634 107.493C193.539 108.853 195.363 110.286 197.1 111.787C197.41 112.04 197.803 112.213 198.217 112.278C198.631 112.343 199.041 112.296 199.385 112.145C199.728 111.995 199.984 111.749 200.112 111.446C200.24 111.143 200.233 110.801 200.092 110.474L200.055 110.396ZM188.316 102.013C188.162 101.705 187.904 101.429 187.574 101.22C185.456 99.9442 183.207 98.6959 180.939 97.6246C180.721 97.5167 180.485 97.4421 180.243 97.405C180.001 97.3679 179.759 97.3691 179.53 97.4084C179.301 97.4477 179.089 97.5244 178.908 97.6341C178.726 97.7439 178.578 97.8845 178.472 98.0479C178.366 98.2114 178.304 98.3945 178.289 98.5867C178.274 98.779 178.307 98.9767 178.386 99.1686C178.465 99.3604 178.588 99.5426 178.748 99.7048C178.909 99.867 179.104 100.006 179.321 100.114C181.515 101.201 183.637 102.355 185.655 103.549C185.986 103.742 186.371 103.854 186.755 103.868C187.139 103.883 187.503 103.799 187.797 103.63C188.09 103.46 188.298 103.213 188.391 102.923C188.485 102.633 188.458 102.315 188.316 102.013ZM175.077 95.454C174.984 95.2526 174.841 95.064 174.658 94.9005C174.475 94.737 174.256 94.6023 174.016 94.5053C171.706 93.5639 169.293 92.6621 166.867 91.8664C166.634 91.7891 166.39 91.7479 166.15 91.7453C165.909 91.7426 165.676 91.7786 165.465 91.8511C165.038 91.9975 164.723 92.2838 164.589 92.6471C164.455 93.0103 164.514 93.4207 164.752 93.7881C164.991 94.1554 165.389 94.4495 165.859 94.6057C168.263 95.3542 170.479 96.2291 172.71 97.1353C172.937 97.2277 173.178 97.2852 173.42 97.3044C173.663 97.3237 173.901 97.3043 174.122 97.2475C174.343 97.1907 174.542 97.0975 174.708 96.9733C174.873 96.8491 175.003 96.6962 175.089 96.5235C175.238 96.22 175.247 95.8703 175.114 95.5326L175.077 95.454ZM160.92 90.8206C160.806 90.5778 160.621 90.3548 160.381 90.173C160.14 89.9911 159.854 89.8566 159.549 89.7823C158.098 89.4009 156.617 89.0431 155.151 88.7167C154.146 88.4992 153.123 88.2857 152.107 88.0878C151.643 88.0282 151.191 88.1101 150.841 88.3172C150.491 88.5244 150.269 88.8415 150.217 89.2056C150.166 89.5696 150.291 89.9539 150.566 90.2818C150.841 90.6096 151.246 90.8571 151.702 90.9749C152.673 91.165 153.652 91.3708 154.612 91.5805C156.033 91.8992 157.444 92.2375 158.85 92.6112C159.175 92.6919 159.51 92.7034 159.821 92.6446C160.131 92.5858 160.405 92.4588 160.616 92.2766C160.827 92.0945 160.966 91.8636 161.019 91.6078C161.072 91.3519 161.038 91.0803 160.92 90.8206ZM146.264 88.0051C146.131 87.7204 145.902 87.463 145.604 87.2652C145.307 87.0673 144.955 86.9378 144.592 86.8929C142.068 86.585 139.525 86.3677 137.045 86.2406C136.803 86.2275 136.567 86.2531 136.349 86.3158C136.132 86.3785 135.937 86.4771 135.777 86.6061C135.617 86.735 135.494 86.8918 135.415 87.0673C135.337 87.2429 135.304 87.4338 135.32 87.6292C135.357 88.0247 135.585 88.4125 135.955 88.7088C136.325 89.0051 136.806 89.186 137.295 89.2125C139.667 89.328 142.084 89.5379 144.499 89.8342C144.805 89.8761 145.108 89.8562 145.382 89.7764C145.656 89.6965 145.892 89.5593 146.067 89.3772C146.243 89.1952 146.353 88.9741 146.387 88.7344C146.422 88.4946 146.379 88.2439 146.264 88.0051ZM131.563 87.2736C131.404 86.9437 131.117 86.653 130.749 86.449C130.381 86.245 129.954 86.1397 129.538 86.1505C127.045 86.221 124.576 86.4021 122.143 86.6931C121.677 86.754 121.284 86.9651 121.049 87.2807C120.814 87.5964 120.755 87.9911 120.886 88.3793C120.925 88.5927 121.024 88.8023 121.174 88.9919C120.992 89.1469 120.864 89.3398 120.801 89.5547C120.738 89.7695 120.742 90.0002 120.812 90.2275C121.374 92.1218 121.75 94.0299 121.939 95.9336C121.976 96.3293 122.205 96.7173 122.577 97.0124C122.948 97.3075 123.432 97.4854 123.92 97.507C124.409 97.5287 124.863 97.3922 125.183 97.1278C125.503 96.8633 125.662 96.4925 125.625 96.0968C125.416 94.0267 125.009 91.9521 124.407 89.8916C124.37 89.7677 124.312 89.6462 124.237 89.5303C126.189 89.3207 128.179 89.1895 130.086 89.1452C130.325 89.1394 130.555 89.0945 130.761 89.0131C130.968 88.9317 131.146 88.8154 131.286 88.6711C131.427 88.5268 131.526 88.3574 131.578 88.1728C131.631 87.9881 131.636 87.792 131.592 87.5959C131.61 87.4897 131.607 87.3795 131.582 87.2696L131.563 87.2736ZM122.101 83.8151C121.127 81.8299 119.998 79.8823 118.722 77.9852C118.474 77.624 118.071 77.3386 117.601 77.1909C117.131 77.0433 116.631 77.0454 116.21 77.1968C115.789 77.3482 115.482 77.6367 115.354 77.9994C115.227 78.3622 115.29 78.7699 115.53 79.134C116.731 80.9029 117.786 82.7225 118.687 84.5791C118.867 84.9624 119.221 85.2914 119.67 85.4937C120.119 85.696 120.627 85.7551 121.082 85.6579C121.536 85.5608 121.901 85.3154 122.095 84.9757C122.289 84.6359 122.296 84.2298 122.116 83.8465L122.101 83.8151ZM114.721 72.8411C114.687 72.7055 114.625 72.5726 114.537 72.4484C112.974 70.6787 111.283 68.9784 109.475 67.3583C109.129 67.0448 108.659 66.84 108.17 66.789C107.681 66.7379 107.211 66.8448 106.865 67.0861C106.519 67.3274 106.325 67.6833 106.325 68.0756C106.325 68.4679 106.519 68.8644 106.865 69.1779C108.55 70.7063 110.121 72.3112 111.567 73.9819C111.869 74.3208 112.31 74.5667 112.794 74.6669C113.278 74.767 113.768 74.7134 114.157 74.5176C114.475 74.3494 114.703 74.095 114.808 73.7923C114.913 73.4896 114.889 73.1547 114.74 72.8372L114.721 72.8411ZM125.498 101.535C125.341 101.217 125.064 100.936 124.709 100.737C124.355 100.538 123.943 100.432 123.539 100.436C123.135 100.439 122.762 100.551 122.476 100.756C122.191 100.96 122.011 101.244 121.964 101.564C121.741 103.392 121.255 105.167 120.515 106.852C120.357 107.206 120.387 107.615 120.598 107.99C120.809 108.365 121.185 108.677 121.644 108.859C121.873 108.946 122.116 108.998 122.359 109.012C122.601 109.025 122.838 109 123.056 108.937C123.275 108.874 123.47 108.776 123.63 108.646C123.791 108.517 123.914 108.36 123.992 108.184C124.844 106.298 125.393 104.306 125.63 102.25C125.663 102.014 125.624 101.767 125.517 101.531L125.498 101.535ZM117.387 89.006C117.196 88.6233 116.834 88.2979 116.38 88.1003C115.926 87.9028 115.417 87.849 114.962 87.9508C112.62 88.4859 110.339 89.1406 108.133 89.9113C107.912 89.9801 107.717 90.0863 107.559 90.2236C107.401 90.3609 107.283 90.5264 107.213 90.7102C107.143 90.8939 107.122 91.0922 107.151 91.2931C107.179 91.4939 107.258 91.6933 107.381 91.879C107.505 92.0648 107.671 92.2333 107.869 92.3742C108.067 92.5152 108.293 92.6258 108.534 92.6993C108.775 92.7729 109.026 92.8079 109.271 92.8023C109.517 92.7967 109.752 92.7505 109.962 92.6666C112.036 91.9446 114.179 91.3309 116.378 90.8291C116.833 90.7275 117.196 90.4786 117.388 90.1365C117.58 89.7944 117.586 89.3867 117.405 89.002L117.387 89.006ZM104.357 63.3693C104.234 63.1177 104.04 62.8863 103.793 62.6945C101.798 61.2299 99.7108 59.8516 97.5439 58.5669C97.3395 58.4422 97.1112 58.3489 96.8727 58.2926C96.6342 58.2364 96.3902 58.2183 96.1553 58.2395C95.9204 58.2607 95.6994 58.3206 95.5053 58.4158C95.3112 58.5111 95.1481 58.6396 95.0255 58.7938C94.8973 58.9458 94.811 59.1208 94.7718 59.3088C94.7325 59.4968 94.741 59.6942 94.7967 59.8895C94.8524 60.0848 94.9543 60.2742 95.0964 60.4469C95.2386 60.6196 95.4183 60.7721 95.6251 60.8958C97.6921 62.1076 99.6777 63.4156 101.57 64.8118C101.888 65.0499 102.282 65.2055 102.69 65.2542C103.098 65.3029 103.497 65.2421 103.825 65.0811C104.153 64.9202 104.39 64.6683 104.501 64.3649C104.611 64.0615 104.588 63.7237 104.435 63.4044L104.357 63.3693ZM120.512 111.987C120.394 111.734 120.199 111.502 119.948 111.313C119.757 111.173 119.539 111.061 119.305 110.985C119.071 110.908 118.827 110.868 118.586 110.867C118.346 110.865 118.113 110.902 117.902 110.976C117.691 111.049 117.505 111.158 117.356 111.296C116.701 111.89 115.972 112.428 115.179 112.902C114.335 113.41 113.391 113.809 112.374 114.089C112.152 114.15 111.953 114.248 111.789 114.377C111.625 114.507 111.5 114.666 111.421 114.844C111.342 115.022 111.311 115.217 111.33 115.415C111.349 115.613 111.417 115.812 111.53 115.998C111.636 116.186 111.786 116.36 111.969 116.509C112.153 116.658 112.367 116.78 112.599 116.867C112.831 116.954 113.076 117.005 113.32 117.017C113.564 117.029 113.803 117.001 114.022 116.935C115.33 116.565 116.549 116.048 117.647 115.4C118.613 114.825 119.5 114.172 120.298 113.451C120.498 113.262 120.624 113.026 120.665 112.768C120.706 112.511 120.659 112.24 120.53 111.983L120.512 111.987ZM91.7734 55.8928C91.5945 55.5182 91.2515 55.1954 90.8157 54.9911L89.2094 54.2797C87.4283 53.502 85.5874 52.7716 83.7128 52.1003C83.2457 51.9342 82.7395 51.9176 82.3057 52.054C81.8718 52.1905 81.5458 52.4689 81.3994 52.828C81.2529 53.1871 81.298 53.5975 81.5247 53.9689C81.7514 54.3403 82.1412 54.6423 82.6083 54.8084C84.3788 55.4328 86.1229 56.132 87.8 56.8628L89.3022 57.5272C89.524 57.6293 89.7633 57.697 90.0059 57.7262C90.2486 57.7554 90.4898 57.7457 90.7154 57.6975C90.941 57.6493 91.1465 57.5636 91.3198 57.4455C91.4931 57.3274 91.6308 57.1792 91.7247 57.0096C91.9233 56.6856 91.9526 56.2967 91.8068 55.9203L91.7734 55.8928ZM104.608 93.5341C104.569 93.3879 104.501 93.2447 104.408 93.11C104.257 92.9425 104.069 92.7967 103.857 92.6809C103.645 92.5651 103.411 92.4816 103.171 92.4351C102.93 92.3887 102.686 92.3802 102.453 92.4101C102.22 92.4401 102.003 92.5079 101.814 92.6097C99.7492 93.6907 97.9074 95.0085 96.3369 96.5287C96.0495 96.8193 95.9327 97.2062 96.0123 97.6042C96.0919 98.0021 96.3614 98.3786 96.7614 98.6508C97.1615 98.9229 97.6594 99.0684 98.1455 99.0553C98.6316 99.0423 99.0662 98.8716 99.3537 98.5809C100.731 97.249 102.346 96.0957 104.159 95.1513C104.441 94.9806 104.638 94.7362 104.724 94.4516C104.811 94.167 104.782 93.8561 104.641 93.5616L104.608 93.5341ZM77.7212 50.8738C77.6088 50.6327 77.426 50.4108 77.1896 50.2286C76.9533 50.0464 76.6711 49.9098 76.3692 49.8315C73.899 49.1752 71.405 48.6175 68.897 48.1607C68.4094 48.0723 67.9232 48.1409 67.5453 48.3513C67.1674 48.5617 66.9288 48.8968 66.882 49.2827C66.8352 49.6687 66.984 50.074 67.2957 50.4094C67.6074 50.7448 68.0565 50.9829 68.5441 51.0712C70.9272 51.5008 73.297 52.0274 75.6442 52.6487C75.9692 52.7346 76.3056 52.7505 76.6181 52.6948C76.9306 52.6392 77.2077 52.5139 77.4202 52.3323C77.6327 52.1507 77.7728 51.9194 77.8258 51.6628C77.8787 51.4061 77.8426 51.1336 77.7212 50.8738ZM107.729 115.635C107.594 115.349 107.361 115.091 107.06 114.893C106.759 114.696 106.403 114.568 106.038 114.527C103.927 114.316 101.86 113.609 100.098 112.494C99.7004 112.279 99.2374 112.18 98.7967 112.216C98.3561 112.253 97.9685 112.421 97.7077 112.691C97.4469 112.96 97.3312 113.311 97.3825 113.676C97.4338 114.042 97.6485 114.397 97.9858 114.674C100.351 116.18 103.129 117.139 105.968 117.429C106.21 117.459 106.451 117.451 106.676 117.405C106.902 117.358 107.107 117.274 107.282 117.158C107.456 117.042 107.596 116.896 107.692 116.728C107.788 116.561 107.839 116.375 107.842 116.181C107.853 116.01 107.826 115.834 107.762 115.662L107.729 115.635ZM96.3653 102.21C96.2535 101.976 96.0763 101.759 95.8487 101.579C95.6211 101.399 95.3499 101.261 95.058 101.176C94.8215 101.108 94.5768 101.077 94.3377 101.085C94.0987 101.093 93.8701 101.139 93.6651 101.222C93.46 101.304 93.2825 101.421 93.1426 101.565C93.0028 101.709 92.9034 101.878 92.8501 102.062C92.2208 104.176 92.2987 106.457 93.0762 108.687C93.1343 108.889 93.2415 109.084 93.3915 109.261C93.5415 109.438 93.7311 109.593 93.9485 109.717C94.166 109.84 94.4068 109.929 94.6562 109.978C94.9056 110.028 95.1584 110.037 95.3989 110.004C95.6395 109.972 95.8629 109.898 96.0554 109.789C96.2478 109.68 96.4053 109.537 96.5182 109.369C96.6311 109.201 96.697 109.012 96.7119 108.812C96.7268 108.613 96.6903 108.408 96.6047 108.21C96.0005 106.473 95.9491 104.697 96.4554 103.055C96.5236 102.792 96.5041 102.511 96.3987 102.238L96.3653 102.21ZM63.0612 48.1802C62.9238 47.8926 62.6877 47.6338 62.3832 47.437C62.0786 47.2403 61.7195 47.1145 61.3519 47.0759C58.8688 46.8112 56.3408 46.6253 53.8198 46.5416C53.5707 46.5235 53.3261 46.5462 53.1009 46.6085C52.8757 46.6707 52.6745 46.7712 52.5095 46.9038C52.3446 47.0364 52.2192 47.1984 52.141 47.38C52.0628 47.5617 52.0334 47.7591 52.0547 47.9604C52.0759 48.1617 52.1472 48.3628 52.2644 48.5514C52.3816 48.74 52.5422 48.9123 52.7365 49.0578C52.9307 49.2033 53.1547 49.319 53.3948 49.398C53.6349 49.477 53.8861 49.5175 54.1333 49.5172C56.535 49.6091 58.9738 49.7795 61.3489 50.0327C61.8352 50.0769 62.2991 49.9667 62.6416 49.7256C62.9841 49.4845 63.178 49.1316 63.1821 48.7421C63.1987 48.5658 63.1689 48.3837 63.0946 48.2076L63.0612 48.1802ZM48.442 47.6214C48.2859 47.2901 47.9995 46.9976 47.6307 46.7932C47.2619 46.5887 46.8331 46.4846 46.4163 46.4984C43.9692 46.5717 41.5032 46.7356 39.0482 46.9662C38.6036 47.0358 38.2305 47.2437 38.0044 47.5481C37.7783 47.8525 37.716 48.2305 37.8301 48.6058C37.9442 48.9811 38.2262 49.3256 38.6191 49.5697C39.0119 49.8138 39.4864 49.9392 39.9464 49.9206C42.3009 49.6942 44.6737 49.5502 47.0388 49.4771C47.5209 49.4612 47.9503 49.289 48.2328 48.9985C48.5153 48.7079 48.6276 48.3228 48.5452 47.9279L48.442 47.6214ZM34.1178 48.9532C33.9403 48.5851 33.6044 48.2672 33.1775 48.0633C32.7506 47.8595 32.2644 47.7849 31.8164 47.8544C29.9529 48.2526 28.0302 48.5251 26.1667 48.9232L24.7318 49.2298C24.2879 49.3425 23.9379 49.5963 23.7548 49.9383C23.5718 50.2802 23.5699 50.6838 23.7496 51.0647C23.8388 51.2544 23.9723 51.4325 24.1423 51.5884C24.3122 51.7443 24.5151 51.8749 24.7389 51.9722C24.9627 52.0696 25.2028 52.1318 25.4449 52.1551C25.687 52.1785 25.9261 52.1625 26.148 52.1081L27.527 51.8135C29.3905 51.4153 31.1049 51.049 32.9344 50.7964C33.1692 50.7628 33.3873 50.6908 33.5762 50.5845C33.7651 50.4783 33.9211 50.3399 34.0352 50.1774C34.1493 50.0148 34.2193 49.8313 34.2411 49.6374C34.2628 49.4435 34.236 49.243 34.1621 49.0474L34.1178 48.9532Z" fill="#808080"/>
</svg>
