<svg width="201" height="67" viewBox="0 0 201 67" fill="none" xmlns="http://www.w3.org/2000/svg">
<path  fill-rule="evenodd" clip-rule="evenodd" d="M196.968 32.3376C196.968 50.0156 177.821 64.3464 154.202 64.3464L46.7971 64.3464C23.1785 64.3464 4.03179 50.0156 4.03179 32.3376C4.03179 14.6596 23.1785 0.328784 46.7971 0.328784L154.202 0.328782C177.821 0.328781 196.968 14.6596 196.968 32.3376ZM154.202 44.8975C163.47 44.8975 170.983 39.2743 170.983 32.3376C170.983 25.401 163.47 19.7777 154.202 19.7777L46.7971 19.7777C37.5294 19.7777 30.0164 25.401 30.0164 32.3376C30.0164 39.2743 37.5294 44.8975 46.7971 44.8975L154.202 44.8975Z" fill="currentColor"/>
<path  fill-rule="evenodd" clip-rule="evenodd" d="M196.968 32.3376C196.968 50.0156 177.821 64.3464 154.202 64.3464L46.7971 64.3464C23.1785 64.3464 4.03179 50.0156 4.03179 32.3376C4.03179 14.6596 23.1785 0.328784 46.7971 0.328784L154.202 0.328782C177.821 0.328781 196.968 14.6596 196.968 32.3376ZM154.202 44.8975C163.47 44.8975 170.983 39.2743 170.983 32.3376C170.983 25.401 163.47 19.7777 154.202 19.7777L46.7971 19.7777C37.5294 19.7777 30.0164 25.401 30.0164 32.3376C30.0164 39.2743 37.5294 44.8975 46.7971 44.8975L154.202 44.8975Z" fill="black" fill-opacity="0.2"/>
<path  fill-rule="evenodd" clip-rule="evenodd" d="M196.968 32.3376C196.968 50.0156 177.821 64.3464 154.202 64.3464L46.7971 64.3464C23.1785 64.3464 4.03179 50.0156 4.03179 32.3376C4.03179 14.6596 23.1785 0.328784 46.7971 0.328784L154.202 0.328782C177.821 0.328781 196.968 14.6596 196.968 32.3376ZM154.202 44.8975C163.47 44.8975 170.983 39.2743 170.983 32.3376C170.983 25.401 163.47 19.7777 154.202 19.7777L46.7971 19.7777C37.5294 19.7777 30.0164 25.401 30.0164 32.3376C30.0164 39.2743 37.5294 44.8975 46.7971 44.8975L154.202 44.8975Z" stroke="black" stroke-width="0.441501"/>
<path  fill-rule="evenodd" clip-rule="evenodd" d="M200.5 33.6621C200.5 51.3401 180.652 65.6709 156.169 65.6709L44.8311 65.6709C20.3477 65.6709 0.499997 51.3401 0.499996 33.6621C0.499996 15.9841 20.3477 1.65325 44.8311 1.65325L156.169 1.65324C180.652 1.65324 200.5 15.9841 200.5 33.6621ZM156.169 46.222C165.776 46.222 173.564 40.5987 173.564 33.6621C173.564 26.7254 165.776 21.1021 156.169 21.1021L44.8311 21.1021C35.224 21.1021 27.436 26.7254 27.436 33.6621C27.436 40.5987 35.224 46.222 44.8311 46.222L156.169 46.222Z" fill="currentColor" stroke="black" stroke-width="0.883002"/>
</svg>
