<svg width="224" height="197" viewBox="0 0 224 197" fill="none" xmlns="http://www.w3.org/2000/svg">
<path d="M25.0737 47.4498C25.2465 49.0196 25.4213 50.6071 25.8293 52.1615C25.8718 52.3759 25.966 52.5855 26.1064 52.7779C26.2469 52.9703 26.4306 53.1416 26.6469 53.2815C26.8631 53.4215 27.1075 53.5273 27.3654 53.5927C27.6233 53.6582 27.8895 53.6819 28.1483 53.6624C28.6684 53.6267 29.1297 53.4234 29.4322 53.0963C29.7347 52.7693 29.8543 52.3448 29.765 51.9147C29.2979 49.8195 29.0014 47.7151 28.8777 45.6159C28.8369 45.188 28.5952 44.7729 28.2032 44.4574C27.8112 44.1419 27.2993 43.9505 26.7745 43.9231C26.2504 43.9041 25.7591 44.0545 25.4076 44.3418C25.0561 44.629 24.8727 45.0298 24.8973 45.457C24.93 46.1445 25.0018 46.7971 25.0737 47.4498ZM24.9723 39.0963C25.0092 39.5084 25.2366 39.9094 25.6084 40.2179C25.9803 40.5264 26.4687 40.7193 26.9745 40.7575C27.4803 40.7956 27.9656 40.6762 28.3319 40.4234C28.6982 40.1705 28.9179 39.8033 28.9466 39.3962C29.1325 37.3299 29.4908 35.2903 30.019 33.2911C30.099 32.8873 29.9809 32.4581 29.6892 32.0927C29.3976 31.7272 28.9547 31.4537 28.4528 31.3289C27.951 31.2042 27.4286 31.2378 26.9945 31.4228C26.5603 31.6078 26.2478 31.93 26.1218 32.3223C25.5525 34.4534 25.1659 36.6283 24.9648 38.8319L24.9723 39.0963ZM27.6691 58.504L27.7041 58.8215C28.518 61.0092 29.475 63.1708 30.5707 65.2966C30.7879 65.706 31.1848 66.0462 31.6772 66.2447C32.1696 66.4433 32.7186 66.4845 33.2077 66.3598C33.6902 66.2236 34.068 65.932 34.2595 65.5479C34.451 65.1638 34.4407 64.7181 34.2308 64.3072C33.2063 62.3048 32.3204 60.267 31.5774 58.2041C31.5032 57.9941 31.3794 57.7941 31.2135 57.6158C31.0475 57.4375 30.8427 57.2846 30.6109 57.166C30.3792 57.0474 30.1253 56.9655 29.864 56.9251C29.6028 56.8847 29.3396 56.8866 29.0897 56.9308C28.6558 56.9988 28.2783 57.1882 28.0194 57.4677C27.7605 57.7473 27.6356 58.1003 27.6653 58.4687L27.6691 58.504ZM28.2911 26.791C28.3301 27.1595 28.5213 27.5188 28.8332 27.8098C29.1451 28.1008 29.5592 28.3062 30.0073 28.3923C30.4554 28.4783 30.9108 28.4398 31.2987 28.2832C31.6866 28.1265 31.9838 27.861 32.1415 27.5303L32.6855 26.4073C32.7964 26.2175 32.8563 26.0074 32.8618 25.7896C32.8673 25.5719 32.8181 25.351 32.7173 25.1403C32.6165 24.9297 32.4661 24.7337 32.2753 24.5641C32.0845 24.3945 31.8571 24.2549 31.607 24.1537C31.3569 24.0525 31.0892 23.9918 30.8201 23.9753C30.551 23.9588 30.286 23.9868 30.0413 24.0577C29.7966 24.1285 29.5771 24.2408 29.3962 24.3875C29.2153 24.5343 29.0767 24.7126 28.9887 24.9117L28.3878 26.1046C28.2824 26.306 28.2334 26.5278 28.2441 26.7553L28.2911 26.791ZM33.987 70.8955C34.0155 71.1337 34.1076 71.3691 34.2568 71.5851C35.6253 73.6093 37.1223 75.5816 38.7409 77.4932C38.9025 77.6763 39.1038 77.8351 39.3332 77.9607C39.5626 78.0863 39.8158 78.1762 40.0782 78.2252C40.3406 78.2742 40.607 78.2813 40.8624 78.2462C41.1178 78.2111 41.357 78.1344 41.5665 78.0206C41.776 77.9068 41.9516 77.758 42.0833 77.5828C42.2151 77.4075 42.3003 77.2093 42.3342 76.9993C42.368 76.7894 42.3499 76.5718 42.2808 76.3591C42.2117 76.1463 42.093 75.9426 41.9314 75.7595C40.4033 73.9447 38.9893 72.0732 37.6959 70.1533C37.4593 69.8258 37.1029 69.5612 36.6829 69.4013C36.2629 69.2414 35.8033 69.1953 35.3768 69.2703C34.9503 69.3453 34.5811 69.5371 34.3276 69.8155C34.0742 70.0938 33.9509 70.4428 33.9773 70.8073L33.987 70.8955ZM43.4028 82.0812C43.4507 82.4289 43.6229 82.7675 43.8976 83.0547C45.6872 84.8329 47.6276 86.6124 49.6564 88.2165C49.8493 88.3755 50.0751 88.5051 50.3209 88.5978C50.5667 88.6905 50.8277 88.7444 51.089 88.7566C51.3504 88.7687 51.6069 88.7388 51.844 88.6686C52.081 88.5984 52.294 88.4892 52.4707 88.3473C52.6474 88.2054 52.7844 88.0336 52.8738 87.8416C52.9632 87.6497 53.0034 87.4413 52.992 87.2285C52.9805 87.0157 52.9177 86.8025 52.8072 86.6013C52.6966 86.4 52.5404 86.2145 52.3476 86.0554C50.405 84.4522 48.5644 82.7969 46.8511 81.1252C46.5693 80.8538 46.1986 80.6531 45.7911 80.551C45.3837 80.449 44.96 80.4509 44.5795 80.5563C44.199 80.6618 43.8809 80.8656 43.6698 81.1391C43.4588 81.4126 43.3654 81.7421 43.4028 82.0812ZM55.1287 91.7544C55.1522 91.9803 55.2337 92.2044 55.3679 92.4121C55.5021 92.6198 55.686 92.8064 55.9076 92.9596C58.0306 94.4412 60.281 95.9063 62.5844 97.2661C62.8054 97.3976 63.0517 97.4949 63.3094 97.5523C63.5671 97.6097 63.831 97.6261 64.0862 97.6005C64.6016 97.549 65.0499 97.3297 65.3325 96.9911C65.6151 96.6525 65.7088 96.2221 65.5931 95.7948C65.4774 95.3675 65.1617 94.9781 64.7154 94.7124C62.4178 93.4055 60.3692 92.0127 58.3167 90.5847C58.1084 90.4393 57.8709 90.326 57.6179 90.2514C57.3649 90.1768 57.1013 90.1422 56.8421 90.1497C56.5829 90.1572 56.3333 90.2066 56.1074 90.2951C55.8815 90.3836 55.6839 90.5095 55.5257 90.6654C55.2486 90.9397 55.1051 91.2928 55.119 91.6662L55.1287 91.7544ZM68.5792 99.681C68.6083 99.9534 68.7226 100.222 68.9112 100.462C69.0997 100.701 69.3561 100.903 69.6558 101.047C71.0701 101.765 72.5256 102.465 73.9772 103.13C74.9743 103.58 75.993 104.029 77.0097 104.461C77.4852 104.627 78.0022 104.647 78.4579 104.516C78.9135 104.385 79.2743 104.114 79.4684 103.755C79.6625 103.397 79.6757 102.978 79.5054 102.583C79.335 102.187 78.9936 101.844 78.5491 101.62C77.5774 101.206 76.6038 100.775 75.6517 100.343C74.2452 99.6964 72.8583 99.032 71.489 98.3325C71.1701 98.1766 70.8144 98.0887 70.4583 98.0779C70.1022 98.067 69.7585 98.1336 69.4625 98.2708C69.1664 98.408 68.9286 98.6109 68.7734 98.8587C68.6182 99.1065 68.5512 99.3902 68.5792 99.681ZM83.2603 105.874C83.294 106.193 83.4422 106.507 83.6863 106.776C83.9305 107.044 84.2596 107.256 84.6326 107.384C87.2286 108.271 89.8795 109.07 92.4972 109.763C92.7522 109.831 93.0162 109.859 93.2741 109.845C93.5321 109.83 93.7789 109.774 94.0005 109.68C94.2221 109.585 94.4141 109.454 94.5656 109.294C94.7171 109.133 94.8251 108.946 94.8834 108.744C94.9943 108.334 94.8971 107.888 94.6129 107.503C94.3287 107.118 93.8802 106.825 93.3646 106.687C90.8586 106.03 88.3409 105.267 85.8566 104.417C85.5445 104.305 85.2105 104.256 84.8855 104.275C84.5604 104.294 84.2546 104.38 83.9962 104.525C83.7378 104.67 83.535 104.869 83.4064 105.105C83.2778 105.341 83.2276 105.605 83.2603 105.874ZM98.7862 109.96C98.8311 110.331 99.0285 110.692 99.3461 110.983C99.6638 111.274 100.083 111.478 100.535 111.562C103.242 112.057 105.965 112.434 108.693 112.692C109.217 112.736 109.72 112.611 110.094 112.344C110.468 112.076 110.681 111.689 110.689 111.265C110.729 111.039 110.703 110.804 110.613 110.577C110.869 110.461 111.08 110.294 111.23 110.09C111.379 109.886 111.464 109.651 111.475 109.404C111.596 107.352 111.92 105.328 112.445 103.351C112.557 102.94 112.459 102.494 112.172 102.11C111.886 101.726 111.434 101.435 110.917 101.302C110.399 101.169 109.859 101.204 109.414 101.4C108.969 101.596 108.656 101.936 108.544 102.347C107.977 104.497 107.622 106.697 107.481 108.928C107.474 109.062 107.489 109.198 107.526 109.333C105.347 109.102 103.158 108.783 101.091 108.395C100.831 108.346 100.566 108.339 100.314 108.375C100.061 108.411 99.8243 108.488 99.6183 108.603C99.4122 108.718 99.2407 108.867 99.1137 109.043C98.9867 109.219 98.9068 109.417 98.8787 109.626C98.8181 109.73 98.7796 109.842 98.7647 109.96L98.7862 109.96ZM107.637 115.625C107.926 117.863 108.395 120.099 109.042 122.316C109.17 122.739 109.494 123.121 109.943 123.378C110.392 123.635 110.93 123.746 111.441 123.688C111.951 123.63 112.392 123.407 112.667 123.067C112.943 122.728 113.031 122.299 112.913 121.875C112.298 119.805 111.859 117.716 111.6 115.625C111.553 115.195 111.298 114.78 110.893 114.473C110.487 114.165 109.964 113.989 109.438 113.985C108.912 113.98 108.426 114.147 108.088 114.448C107.749 114.749 107.586 115.159 107.633 115.59L107.637 115.625ZM111.375 128.452C111.361 128.597 111.377 128.746 111.424 128.893C112.427 131.046 113.595 133.158 114.92 135.215C115.172 135.612 115.598 135.927 116.105 136.09C116.612 136.253 117.157 136.251 117.622 136.085C118.086 135.918 118.431 135.601 118.581 135.202C118.731 134.804 118.674 134.357 118.422 133.96C117.195 132.024 116.12 130.036 115.204 128.01C115.008 127.597 114.628 127.247 114.146 127.035C113.663 126.823 113.117 126.766 112.624 126.877C112.217 126.976 111.875 127.182 111.646 127.466C111.417 127.749 111.315 128.095 111.354 128.451L111.375 128.452ZM110.761 96.851C110.808 97.2099 110.999 97.558 111.304 97.8407C111.609 98.1234 112.011 98.3248 112.446 98.4133C112.882 98.5018 113.327 98.4724 113.712 98.3298C114.096 98.1872 114.399 97.9394 114.572 97.6251C115.511 95.8185 116.712 94.1266 118.152 92.5821C118.457 92.2584 118.581 91.8366 118.498 91.4074C118.414 90.9783 118.13 90.5761 117.705 90.2874C117.492 90.1462 117.251 90.0381 116.995 89.9693C116.74 89.9004 116.475 89.8723 116.216 89.8863C115.958 89.9004 115.71 89.9564 115.488 90.0512C115.266 90.146 115.074 90.2777 114.922 90.4387C113.286 92.1607 111.933 94.0598 110.893 96.0944C110.766 96.3268 110.714 96.5861 110.739 96.8508L110.761 96.851ZM114.691 111.424C114.75 111.856 115.014 112.269 115.427 112.573C115.839 112.877 116.367 113.047 116.894 113.047C119.617 113.036 122.319 112.889 124.987 112.608C125.251 112.589 125.501 112.525 125.723 112.422C125.946 112.318 126.136 112.177 126.281 112.006C126.427 111.835 126.526 111.639 126.571 111.428C126.617 111.217 126.609 110.997 126.547 110.78C126.485 110.563 126.372 110.355 126.213 110.166C126.054 109.978 125.852 109.814 125.621 109.685C125.39 109.555 125.134 109.463 124.868 109.412C124.602 109.362 124.332 109.356 124.073 109.393C121.567 109.655 119.029 109.791 116.472 109.801C115.945 109.801 115.46 109.971 115.122 110.275C114.785 110.579 114.622 110.992 114.67 111.424L114.691 111.424ZM118.897 140.431C118.934 140.715 119.053 140.994 119.245 141.245C120.831 143.186 122.548 145.061 124.386 146.859C124.558 147.032 124.768 147.179 125.003 147.29C125.238 147.402 125.493 147.475 125.754 147.507C126.015 147.539 126.275 147.529 126.52 147.476C126.765 147.423 126.99 147.33 127.181 147.201C127.377 147.076 127.536 146.918 127.65 146.736C127.764 146.554 127.831 146.351 127.846 146.14C127.86 145.929 127.823 145.713 127.736 145.506C127.65 145.298 127.515 145.102 127.34 144.929C125.581 143.228 123.946 141.448 122.445 139.599C122.194 139.285 121.83 139.037 121.41 138.895C120.99 138.753 120.538 138.724 120.124 138.813C119.71 138.902 119.358 139.104 119.124 139.387C118.889 139.67 118.784 140.018 118.827 140.378L118.897 140.431ZM120.119 87.3662C120.149 87.6504 120.269 87.9308 120.467 88.1799C120.619 88.3654 120.811 88.5282 121.033 88.6591C121.255 88.79 121.502 88.8864 121.76 88.9427C122.018 88.9991 122.283 89.0142 122.538 88.9874C122.793 88.9605 123.034 88.8922 123.247 88.7862C124.179 88.3317 125.168 87.9513 126.202 87.6496C127.304 87.3256 128.471 87.1344 129.671 87.0815C129.934 87.0707 130.185 87.0164 130.411 86.9219C130.637 86.8273 130.832 86.6944 130.985 86.5312C131.138 86.368 131.246 86.1778 131.301 85.9721C131.357 85.7664 131.36 85.5494 131.31 85.334C131.267 85.1189 131.173 84.9086 131.033 84.7153C130.892 84.522 130.709 84.3497 130.493 84.2083C130.277 84.067 130.032 83.9594 129.774 83.892C129.516 83.8245 129.249 83.7985 128.989 83.8155C127.441 83.8946 125.933 84.1418 124.504 84.5507C123.245 84.9158 122.042 85.3769 120.908 85.9283C120.621 86.0751 120.395 86.2854 120.252 86.5379C120.11 86.7905 120.056 87.0762 120.097 87.366L120.119 87.3662ZM129.568 150.888C129.617 151.309 129.862 151.715 130.253 152.022L131.708 153.11C133.325 154.305 135.025 155.465 136.784 156.574C137.223 156.849 137.761 156.981 138.279 156.941C138.798 156.901 139.255 156.692 139.55 156.36C139.845 156.029 139.953 155.602 139.851 155.173C139.75 154.744 139.446 154.349 139.007 154.074C137.343 153.037 135.735 151.93 134.211 150.806L132.85 149.789C132.65 149.635 132.419 149.512 132.169 149.427C131.92 149.342 131.657 149.297 131.396 149.295C131.135 149.293 130.881 149.333 130.649 149.414C130.418 149.494 130.213 149.613 130.047 149.764C129.71 150.048 129.53 150.437 129.542 150.852L129.568 150.888ZM130.162 109.729C130.148 109.887 130.166 110.048 130.215 110.206C130.313 110.41 130.459 110.601 130.643 110.767C130.827 110.933 131.046 111.071 131.287 111.173C131.528 111.275 131.787 111.339 132.049 111.361C132.311 111.384 132.57 111.364 132.812 111.304C135.446 110.675 137.93 109.755 140.2 108.568C140.62 108.338 140.894 107.972 140.96 107.549C141.027 107.127 140.881 106.683 140.555 106.316C140.229 105.948 139.749 105.687 139.221 105.59C138.694 105.493 138.161 105.567 137.741 105.797C135.751 106.837 133.573 107.641 131.263 108.189C130.895 108.298 130.589 108.501 130.388 108.771C130.186 109.04 130.098 109.363 130.137 109.694L130.162 109.729ZM142.757 159.182C142.786 159.453 142.898 159.72 143.082 159.958C143.267 160.197 143.518 160.4 143.812 160.548C146.217 161.777 148.686 162.911 151.207 163.945C151.698 164.146 152.247 164.186 152.734 164.059C153.22 163.931 153.605 163.645 153.803 163.263C154.001 162.882 153.996 162.436 153.789 162.025C153.582 161.613 153.19 161.269 152.7 161.068C150.302 160.09 147.955 159.016 145.669 157.851C145.353 157.69 144.997 157.597 144.64 157.583C144.282 157.568 143.937 157.633 143.639 157.769C143.341 157.905 143.102 158.108 142.947 158.357C142.791 158.605 142.726 158.891 142.757 159.182ZM135.258 86.5676C135.293 86.889 135.445 87.2041 135.693 87.4729C135.941 87.7418 136.275 87.9524 136.652 88.0779C138.84 88.7718 140.792 89.9604 142.261 91.4937C142.606 91.8025 143.066 92.0081 143.554 92.0715C144.042 92.1348 144.523 92.0515 144.906 91.8374C145.289 91.6232 145.548 91.2932 145.633 90.91C145.717 90.5268 145.622 90.1173 145.365 89.7593C143.398 87.6915 140.778 86.0859 137.836 85.1457C137.588 85.0597 137.326 85.0133 137.066 85.0092C136.806 85.005 136.552 85.0432 136.321 85.1214C136.089 85.1997 135.883 85.3165 135.715 85.4651C135.548 85.6136 135.422 85.791 135.344 85.9869C135.267 86.1586 135.229 86.3432 135.232 86.5321L135.258 86.5676ZM142.342 102.79C142.372 103.053 142.48 103.314 142.656 103.548C142.832 103.783 143.07 103.985 143.352 104.138C143.58 104.261 143.832 104.348 144.092 104.394C144.352 104.44 144.615 104.445 144.867 104.408C145.119 104.371 145.355 104.293 145.56 104.178C145.766 104.063 145.937 103.914 146.065 103.739C147.55 101.735 148.338 99.4001 148.355 96.958C148.37 96.7397 148.329 96.5167 148.235 96.3027C148.142 96.0887 147.997 95.8883 147.811 95.7135C147.624 95.5388 147.399 95.3935 147.15 95.2866C146.901 95.1796 146.632 95.1133 146.361 95.0917C146.09 95.07 145.822 95.0935 145.573 95.1607C145.325 95.2278 145.101 95.3373 144.915 95.4823C144.729 95.6273 144.586 95.8048 144.494 96.004C144.402 96.2031 144.362 96.4197 144.379 96.6405C144.364 98.5422 143.74 100.358 142.568 101.911C142.394 102.162 142.308 102.453 142.316 102.754L142.342 102.79ZM157.489 165.252C157.527 165.576 157.682 165.892 157.934 166.161C158.186 166.43 158.525 166.64 158.905 166.763C161.474 167.596 164.121 168.36 166.799 169.018C167.06 169.093 167.332 169.126 167.598 169.114C167.863 169.102 168.118 169.045 168.346 168.948C168.574 168.851 168.771 168.715 168.925 168.548C169.078 168.382 169.185 168.188 169.239 167.978C169.294 167.769 169.294 167.548 169.24 167.33C169.186 167.112 169.079 166.9 168.926 166.708C168.773 166.516 168.576 166.348 168.348 166.213C168.12 166.078 167.866 165.98 167.6 165.924C165.053 165.285 162.496 164.557 160.039 163.76C159.533 163.604 158.992 163.611 158.532 163.778C158.071 163.945 157.728 164.259 157.574 164.654C157.489 164.829 157.451 165.021 157.464 165.217L157.489 165.252ZM172.994 169.144C173.035 169.516 173.231 169.879 173.55 170.17C173.868 170.462 174.289 170.665 174.743 170.746C177.402 171.228 180.116 171.622 182.844 171.946C183.348 171.976 183.829 171.85 184.188 171.592C184.548 171.334 184.759 170.964 184.78 170.557C184.801 170.15 184.63 169.736 184.3 169.399C183.971 169.061 183.509 168.826 183.007 168.74C180.389 168.435 177.783 168.042 175.212 167.578C174.688 167.485 174.16 167.562 173.746 167.793C173.331 168.024 173.063 168.389 173 168.809L172.994 169.144ZM188.904 171.049C188.954 171.463 189.194 171.862 189.575 172.166C189.956 172.47 190.45 172.657 190.959 172.688C193.114 172.707 195.286 172.868 197.442 172.887L199.102 172.902C199.622 172.888 200.096 172.71 200.423 172.404C200.751 172.099 200.907 171.689 200.859 171.261C200.836 171.048 200.761 170.837 200.638 170.64C200.514 170.443 200.346 170.264 200.143 170.114C199.939 169.964 199.705 169.847 199.454 169.768C199.202 169.689 198.939 169.651 198.68 169.656L197.084 169.641C194.929 169.622 192.945 169.604 190.882 169.445C190.616 169.426 190.354 169.449 190.11 169.514C189.867 169.579 189.646 169.684 189.461 169.824C189.276 169.963 189.131 170.133 189.033 170.325C188.936 170.517 188.888 170.727 188.893 170.943L188.904 171.049Z" fill="#808080"/>
</svg>
